<?xml version="1.0" encoding="UTF-8" standalone="no"?>
<!DOCTYPE svg PUBLIC "-//W3C//DTD SVG 1.1//EN"
 "http://www.w3.org/Graphics/SVG/1.1/DTD/svg11.dtd">
<!-- Generated by graphviz version 2.40.1 (20161225.0304)
 -->
<!-- Title: permutations Pages: 1 -->
<svg width="1571pt" height="1051pt"
 viewBox="0.00 0.00 1570.60 1051.04" xmlns="http://www.w3.org/2000/svg" xmlns:xlink="http://www.w3.org/1999/xlink">
<g id="graph0" class="graph" transform="scale(1 1) rotate(0) translate(4 1047.0444)">
<title>permutations</title>
<polygon fill="#ffffff" stroke="transparent" points="-4,4 -4,-1047.0444 1566.5975,-1047.0444 1566.5975,4 -4,4"/>
<!-- reality -->
<g id="node1" class="node">
<title>reality</title>
<ellipse fill="none" stroke="#ff0000" cx="744.4977" cy="-521.0444" rx="33.2948" ry="18"/>
<text text-anchor="middle" x="744.4977" y="-517.3444" font-family="Times,serif" font-size="14.00" fill="#ff0000">reality</text>
</g>
<!-- capture3 -->
<g id="node12" class="node">
<title>capture3</title>
<ellipse fill="none" stroke="#000000" cx="1150.9262" cy="-345.0444" rx="44.5955" ry="48.5816"/>
<text text-anchor="middle" x="1150.9262" y="-364.3444" font-family="Times,serif" font-size="14.00" fill="#000000">capture3</text>
<text text-anchor="middle" x="1150.9262" y="-349.3444" font-family="Times,serif" font-size="14.00" fill="#000000">slurp</text>
<text text-anchor="middle" x="1150.9262" y="-318.3444" font-family="Times,serif" font-size="14.00" fill="#000000">gphoto2</text>
</g>
<!-- reality&#45;&gt;capture3 -->
<g id="edge35" class="edge">
<title>reality&#45;&gt;capture3</title>
<path fill="none" stroke="#ff0000" d="M777.1271,-517.6047C806.6844,-513.3743 850.6222,-504.2351 884.2353,-485.0444 894.0605,-479.4349 893.0157,-473.6018 902.2353,-467.0444 953.7463,-430.4074 973.4889,-432.8921 1030.2353,-405.0444 1053.5788,-393.5887 1079.3978,-380.7728 1101.1446,-369.9362"/>
<polygon fill="#ff0000" stroke="#ff0000" points="1102.8088,-373.0174 1110.1962,-365.4228 1099.6852,-366.7529 1102.8088,-373.0174"/>
<text text-anchor="middle" x="966.2353" y="-470.8444" font-family="Times,serif" font-size="14.00" fill="#ff0000">sources</text>
</g>
<!-- capture4 -->
<g id="node15" class="node">
<title>capture4</title>
<ellipse fill="none" stroke="#000000" cx="1150.9262" cy="-613.0444" rx="44.5955" ry="48.5816"/>
<text text-anchor="middle" x="1150.9262" y="-632.3444" font-family="Times,serif" font-size="14.00" fill="#000000">capture4</text>
<text text-anchor="middle" x="1150.9262" y="-617.3444" font-family="Times,serif" font-size="14.00" fill="#000000">slurp</text>
<text text-anchor="middle" x="1150.9262" y="-586.3444" font-family="Times,serif" font-size="14.00" fill="#000000">gphoto2</text>
</g>
<!-- reality&#45;&gt;capture4 -->
<g id="edge38" class="edge">
<title>reality&#45;&gt;capture4</title>
<path fill="none" stroke="#ff0000" d="M773.4679,-511.8609C827.7046,-496.4718 946.6286,-471.3992 1030.2353,-517.0444 1043.2202,-524.1335 1037.8454,-534.5127 1048.2353,-545.0444 1063.8507,-560.8728 1083.7234,-575.0619 1101.8185,-586.3318"/>
<polygon fill="#ff0000" stroke="#ff0000" points="1100.1683,-589.4245 1110.5323,-591.6242 1103.8021,-583.4416 1100.1683,-589.4245"/>
<text text-anchor="middle" x="966.2353" y="-520.8444" font-family="Times,serif" font-size="14.00" fill="#ff0000">sources</text>
</g>
<!-- BYTEBOOOK -->
<g id="node2" class="node">
<title>BYTEBOOOK</title>
<ellipse fill="none" stroke="#ff0000" cx="744.4977" cy="-301.0444" rx="64.9885" ry="18"/>
<text text-anchor="middle" x="744.4977" y="-297.3444" font-family="Times,serif" font-size="14.00" fill="#000000">BYTEBOOOK</text>
</g>
<!-- capture1 -->
<g id="node5" class="node">
<title>capture1</title>
<ellipse fill="none" stroke="#000000" cx="1150.9262" cy="-209.0444" rx="70.922" ry="48.1667"/>
<text text-anchor="middle" x="1150.9262" y="-227.8444" font-family="Times,serif" font-size="14.00" fill="#000000">capture1</text>
<text text-anchor="middle" x="1150.9262" y="-212.8444" font-family="Times,serif" font-size="14.00" fill="#000000">slurp</text>
<text text-anchor="middle" x="1150.9262" y="-197.8444" font-family="Times,serif" font-size="14.00" fill="#000000">BYTEBOOOK</text>
<text text-anchor="middle" x="1150.9262" y="-182.8444" font-family="Times,serif" font-size="14.00" fill="#000000">generic</text>
</g>
<!-- BYTEBOOOK&#45;&gt;capture1 -->
<g id="edge29" class="edge">
<title>BYTEBOOOK&#45;&gt;capture1</title>
<path fill="none" stroke="#ff0000" d="M807.919,-297.0522C866.4905,-292.2232 955.4686,-281.9744 1030.2353,-261.0444 1048.217,-256.0106 1067.0368,-248.8806 1084.321,-241.5091"/>
<polygon fill="#ff0000" stroke="#ff0000" points="1085.9807,-244.6038 1093.7503,-237.4008 1083.1846,-238.1865 1085.9807,-244.6038"/>
<text text-anchor="middle" x="966.2353" y="-290.8444" font-family="Times,serif" font-size="14.00" fill="#ff0000">sources</text>
</g>
<!-- capture2 -->
<g id="node9" class="node">
<title>capture2</title>
<ellipse fill="none" stroke="#000000" cx="1150.9262" cy="-479.0444" rx="70.922" ry="48.1667"/>
<text text-anchor="middle" x="1150.9262" y="-497.8444" font-family="Times,serif" font-size="14.00" fill="#000000">capture2</text>
<text text-anchor="middle" x="1150.9262" y="-482.8444" font-family="Times,serif" font-size="14.00" fill="#000000">slurp</text>
<text text-anchor="middle" x="1150.9262" y="-467.8444" font-family="Times,serif" font-size="14.00" fill="#000000">BYTEBOOOK</text>
<text text-anchor="middle" x="1150.9262" y="-452.8444" font-family="Times,serif" font-size="14.00" fill="#000000">generic</text>
</g>
<!-- BYTEBOOOK&#45;&gt;capture2 -->
<g id="edge32" class="edge">
<title>BYTEBOOOK&#45;&gt;capture2</title>
<path fill="none" stroke="#ff0000" d="M808.2107,-304.8614C870.7121,-311.5841 965.7665,-330.1027 1030.2353,-381.0444 1042.7357,-390.9219 1037.2665,-400.4896 1048.2353,-412.0444 1059.4012,-423.8068 1073.0163,-434.5023 1086.6339,-443.724"/>
<polygon fill="#ff0000" stroke="#ff0000" points="1084.8099,-446.7134 1095.0912,-449.2718 1088.6494,-440.8603 1084.8099,-446.7134"/>
<text text-anchor="middle" x="966.2353" y="-384.8444" font-family="Times,serif" font-size="14.00" fill="#ff0000">sources</text>
</g>
<!-- viewer_gui_kv_py_gsl -->
<g id="node3" class="node">
<title>viewer_gui_kv_py_gsl</title>
<ellipse fill="none" stroke="#000000" stroke-dasharray="1,5" cx="1150.9262" cy="-716.0444" rx="84.485" ry="18"/>
<text text-anchor="middle" x="1150.9262" y="-712.3444" font-family="Times,serif" font-size="14.00" fill="#c0c0c0">viewer&#45;gui&#45;kv.py.gsl</text>
</g>
<!-- viewer00 -->
<g id="node4" class="node">
<title>viewer00</title>
<ellipse fill="none" stroke="#000000" cx="1452.1073" cy="-416.0444" rx="91.784" ry="18"/>
<text text-anchor="middle" x="1452.1073" y="-412.3444" font-family="Times,serif" font-size="14.00" fill="#000000">viewer&#45;gui&#45;kv.py.gsl&#45;0</text>
</g>
<!-- viewer_gui_kv_py_gsl&#45;&gt;viewer00 -->
<g id="edge1" class="edge">
<title>viewer_gui_kv_py_gsl&#45;&gt;viewer00</title>
<path fill="none" stroke="#000000" stroke-dasharray="1,5" d="M1217.0788,-704.7198C1230.9882,-699.3868 1244.2619,-691.5517 1253.6171,-680.0444 1292.0788,-632.7345 1239.4896,-595.8648 1271.6171,-544.0444 1286.2964,-520.3671 1303.0209,-527.8033 1323.6171,-509.0444 1332.9572,-500.5375 1332.187,-495.4514 1341.6171,-487.0444 1362.8585,-468.1073 1389.6494,-450.7597 1411.5303,-437.9526"/>
<polygon fill="#000000" stroke="#000000" points="1413.3454,-440.9463 1420.2675,-432.9253 1409.8543,-434.879 1413.3454,-440.9463"/>
<text text-anchor="middle" x="1297.6171" y="-547.8444" font-family="Times,serif" font-size="14.00" fill="#c0c0c0">generates</text>
</g>
<!-- viewer01 -->
<g id="node8" class="node">
<title>viewer01</title>
<ellipse fill="none" stroke="#000000" cx="1452.1073" cy="-681.0444" rx="91.784" ry="18"/>
<text text-anchor="middle" x="1452.1073" y="-677.3444" font-family="Times,serif" font-size="14.00" fill="#000000">viewer&#45;gui&#45;kv.py.gsl&#45;1</text>
</g>
<!-- viewer_gui_kv_py_gsl&#45;&gt;viewer01 -->
<g id="edge5" class="edge">
<title>viewer_gui_kv_py_gsl&#45;&gt;viewer01</title>
<path fill="none" stroke="#000000" stroke-dasharray="1,5" d="M1206.5292,-729.6397C1240.5671,-735.9576 1284.8793,-740.5859 1323.6171,-733.0444 1354.0928,-727.1113 1386.4859,-713.951 1411.1231,-702.355"/>
<polygon fill="#000000" stroke="#000000" points="1412.671,-705.4944 1420.1657,-698.0057 1409.6368,-699.1861 1412.671,-705.4944"/>
<text text-anchor="middle" x="1297.6171" y="-740.8444" font-family="Times,serif" font-size="14.00" fill="#c0c0c0">generates</text>
</g>
<!-- viewer02 -->
<g id="node11" class="node">
<title>viewer02</title>
<ellipse fill="none" stroke="#000000" cx="1452.1073" cy="-523.0444" rx="91.784" ry="18"/>
<text text-anchor="middle" x="1452.1073" y="-519.3444" font-family="Times,serif" font-size="14.00" fill="#000000">viewer&#45;gui&#45;kv.py.gsl&#45;2</text>
</g>
<!-- viewer_gui_kv_py_gsl&#45;&gt;viewer02 -->
<g id="edge9" class="edge">
<title>viewer_gui_kv_py_gsl&#45;&gt;viewer02</title>
<path fill="none" stroke="#000000" stroke-dasharray="1,5" d="M1207.5661,-702.579C1223.3764,-697.1767 1239.9518,-689.8407 1253.6171,-680.0444 1264.1668,-672.4815 1262.1739,-665.9506 1271.6171,-657.0444 1292.066,-637.758 1300.8804,-637.5721 1323.6171,-621.0444 1357.6087,-596.3353 1395.8121,-566.9903 1421.6611,-546.8939"/>
<polygon fill="#000000" stroke="#000000" points="1423.8599,-549.6178 1429.5986,-540.7117 1419.5585,-544.0952 1423.8599,-549.6178"/>
<text text-anchor="middle" x="1297.6171" y="-660.8444" font-family="Times,serif" font-size="14.00" fill="#c0c0c0">generates</text>
</g>
<!-- viewer03 -->
<g id="node14" class="node">
<title>viewer03</title>
<ellipse fill="none" stroke="#000000" cx="1452.1073" cy="-773.0444" rx="91.784" ry="18"/>
<text text-anchor="middle" x="1452.1073" y="-769.3444" font-family="Times,serif" font-size="14.00" fill="#000000">viewer&#45;gui&#45;kv.py.gsl&#45;3</text>
</g>
<!-- viewer_gui_kv_py_gsl&#45;&gt;viewer03 -->
<g id="edge13" class="edge">
<title>viewer_gui_kv_py_gsl&#45;&gt;viewer03</title>
<path fill="none" stroke="#000000" stroke-dasharray="1,5" d="M1186.5446,-732.4503C1210.1525,-742.5355 1242.1015,-754.7028 1271.6171,-761.0444 1296.8252,-766.4605 1324.4286,-769.6368 1350.2981,-771.453"/>
<polygon fill="#000000" stroke="#000000" points="1350.2955,-774.9599 1360.4988,-772.1064 1350.743,-767.9742 1350.2955,-774.9599"/>
<text text-anchor="middle" x="1297.6171" y="-772.8444" font-family="Times,serif" font-size="14.00" fill="#c0c0c0">generates</text>
</g>
<!-- capture1&#45;&gt;viewer00 -->
<g id="edge2" class="edge">
<title>capture1&#45;&gt;viewer00</title>
<path fill="none" stroke="#000000" d="M1208.2506,-237.5212C1224.9239,-248.2197 1241.8059,-261.8019 1253.6171,-278.0444 1270.7434,-301.5962 1252.2489,-319.2987 1271.6171,-341.0444 1288.4732,-359.9696 1347.1094,-382.3443 1393.0297,-397.6996"/>
<polygon fill="#000000" stroke="#000000" points="1392.0228,-401.0529 1402.616,-400.8659 1394.2183,-394.4061 1392.0228,-401.0529"/>
<text text-anchor="middle" x="1297.6171" y="-375.8444" font-family="Times,serif" font-size="14.00" fill="#000000">filter</text>
</g>
<!-- viewer10 -->
<g id="node7" class="node">
<title>viewer10</title>
<ellipse fill="none" stroke="#000000" cx="1452.1073" cy="-42.0444" rx="110.4804" ry="18"/>
<text text-anchor="middle" x="1452.1073" y="-38.3444" font-family="Times,serif" font-size="14.00" fill="#000000">viewer&#45;terminal&#45;cli.py.gsl&#45;0</text>
</g>
<!-- capture1&#45;&gt;viewer10 -->
<g id="edge4" class="edge">
<title>capture1&#45;&gt;viewer10</title>
<path fill="none" stroke="#000000" d="M1204.1198,-177.0181C1220.9442,-165.5557 1238.9573,-151.7915 1253.6171,-137.0444 1263.5256,-127.0768 1260.559,-119.7191 1271.6171,-111.0444 1302.4985,-86.8187 1342.8528,-70.3243 1377.5706,-59.5545"/>
<polygon fill="#000000" stroke="#000000" points="1378.6274,-62.8916 1387.2008,-56.6669 1376.6169,-56.1865 1378.6274,-62.8916"/>
<text text-anchor="middle" x="1297.6171" y="-114.8444" font-family="Times,serif" font-size="14.00" fill="#000000">filter</text>
</g>
<!-- viewer_terminal_cli_py_gsl -->
<g id="node6" class="node">
<title>viewer_terminal_cli_py_gsl</title>
<ellipse fill="none" stroke="#000000" stroke-dasharray="1,5" cx="1150.9262" cy="-101.0444" rx="102.8821" ry="18"/>
<text text-anchor="middle" x="1150.9262" y="-97.3444" font-family="Times,serif" font-size="14.00" fill="#c0c0c0">viewer&#45;terminal&#45;cli.py.gsl</text>
</g>
<!-- viewer_terminal_cli_py_gsl&#45;&gt;viewer10 -->
<g id="edge3" class="edge">
<title>viewer_terminal_cli_py_gsl&#45;&gt;viewer10</title>
<path fill="none" stroke="#000000" stroke-dasharray="1,5" d="M1166.6894,-82.9103C1187.8619,-60.0871 1227.9113,-22.0565 1271.6171,-7.0444 1316.7866,8.4705 1370.8142,-6.1081 1407.9139,-20.9018"/>
<polygon fill="#000000" stroke="#000000" points="1406.858,-24.2529 1417.4359,-24.8517 1409.5401,-17.7871 1406.858,-24.2529"/>
<text text-anchor="middle" x="1297.6171" y="-10.8444" font-family="Times,serif" font-size="14.00" fill="#c0c0c0">generates</text>
</g>
<!-- viewer11 -->
<g id="node10" class="node">
<title>viewer11</title>
<ellipse fill="none" stroke="#000000" cx="1452.1073" cy="-204.0444" rx="110.4804" ry="18"/>
<text text-anchor="middle" x="1452.1073" y="-200.3444" font-family="Times,serif" font-size="14.00" fill="#000000">viewer&#45;terminal&#45;cli.py.gsl&#45;1</text>
</g>
<!-- viewer_terminal_cli_py_gsl&#45;&gt;viewer11 -->
<g id="edge7" class="edge">
<title>viewer_terminal_cli_py_gsl&#45;&gt;viewer11</title>
<path fill="none" stroke="#000000" stroke-dasharray="1,5" d="M1209.336,-115.9492C1243.1968,-125.2508 1286.3695,-138.2508 1323.6171,-153.0444 1331.9297,-156.3459 1333.4264,-158.4508 1341.6171,-162.0444 1359.138,-169.7315 1378.5521,-177.3902 1396.1565,-184.0216"/>
<polygon fill="#000000" stroke="#000000" points="1395.1344,-187.3759 1405.727,-187.5937 1397.5822,-180.8178 1395.1344,-187.3759"/>
<text text-anchor="middle" x="1297.6171" y="-156.8444" font-family="Times,serif" font-size="14.00" fill="#c0c0c0">generates</text>
</g>
<!-- viewer12 -->
<g id="node13" class="node">
<title>viewer12</title>
<ellipse fill="none" stroke="#000000" cx="1452.1073" cy="-126.0444" rx="110.4804" ry="18"/>
<text text-anchor="middle" x="1452.1073" y="-122.3444" font-family="Times,serif" font-size="14.00" fill="#000000">viewer&#45;terminal&#45;cli.py.gsl&#45;2</text>
</g>
<!-- viewer_terminal_cli_py_gsl&#45;&gt;viewer12 -->
<g id="edge11" class="edge">
<title>viewer_terminal_cli_py_gsl&#45;&gt;viewer12</title>
<path fill="none" stroke="#000000" stroke-dasharray="1,5" d="M1171.1032,-83.2375C1204.7161,-55.843 1273.434,-9.6513 1323.6171,-41.0444 1339.1206,-50.7429 1328.4114,-65.394 1341.6171,-78.0444 1354.3052,-90.1989 1370.5649,-99.5453 1386.6856,-106.6177"/>
<polygon fill="#000000" stroke="#000000" points="1385.5544,-109.9373 1396.1331,-110.5231 1388.2287,-103.4682 1385.5544,-109.9373"/>
<text text-anchor="middle" x="1297.6171" y="-44.8444" font-family="Times,serif" font-size="14.00" fill="#c0c0c0">generates</text>
</g>
<!-- viewer13 -->
<g id="node16" class="node">
<title>viewer13</title>
<ellipse fill="none" stroke="#000000" cx="1452.1073" cy="-324.0444" rx="110.4804" ry="18"/>
<text text-anchor="middle" x="1452.1073" y="-320.3444" font-family="Times,serif" font-size="14.00" fill="#000000">viewer&#45;terminal&#45;cli.py.gsl&#45;3</text>
</g>
<!-- viewer_terminal_cli_py_gsl&#45;&gt;viewer13 -->
<g id="edge15" class="edge">
<title>viewer_terminal_cli_py_gsl&#45;&gt;viewer13</title>
<path fill="none" stroke="#000000" stroke-dasharray="1,5" d="M1213.1467,-115.3883C1228.2984,-121.6069 1243.1394,-130.4635 1253.6171,-143.0444 1278.6077,-173.0512 1248.0991,-197.8699 1271.6171,-229.0444 1280.6012,-240.9534 1355.9626,-278.3469 1406.423,-302.5146"/>
<polygon fill="#000000" stroke="#000000" points="1405.0015,-305.7142 1415.5337,-306.8642 1408.0173,-299.3972 1405.0015,-305.7142"/>
<text text-anchor="middle" x="1297.6171" y="-263.8444" font-family="Times,serif" font-size="14.00" fill="#c0c0c0">generates</text>
</g>
<!-- capture2&#45;&gt;viewer01 -->
<g id="edge6" class="edge">
<title>capture2&#45;&gt;viewer01</title>
<path fill="none" stroke="#000000" d="M1204.5816,-510.6883C1220.8961,-521.1852 1238.4967,-533.4308 1253.6171,-546.0444 1262.5493,-553.4957 1262.6593,-557.6237 1271.6171,-565.0444 1284.3764,-575.6142 1366.5866,-627.526 1415.5444,-658.2068"/>
<polygon fill="#000000" stroke="#000000" points="1413.9417,-661.3327 1424.2747,-663.6737 1417.6569,-655.4 1413.9417,-661.3327"/>
<text text-anchor="middle" x="1297.6171" y="-603.8444" font-family="Times,serif" font-size="14.00" fill="#000000">filter</text>
</g>
<!-- capture2&#45;&gt;viewer11 -->
<g id="edge8" class="edge">
<title>capture2&#45;&gt;viewer11</title>
<path fill="none" stroke="#000000" d="M1209.6194,-451.9475C1226.1547,-441.65 1242.6135,-428.3737 1253.6171,-412.0444 1276.8997,-377.4927 1248.2159,-354.5159 1271.6171,-320.0444 1276.3265,-313.1071 1363.7232,-258.5289 1415.1449,-226.7681"/>
<polygon fill="#000000" stroke="#000000" points="1417.0126,-229.7284 1423.6851,-221.4987 1413.3368,-223.7711 1417.0126,-229.7284"/>
<text text-anchor="middle" x="1297.6171" y="-323.8444" font-family="Times,serif" font-size="14.00" fill="#000000">filter</text>
</g>
<!-- capture3&#45;&gt;viewer02 -->
<g id="edge10" class="edge">
<title>capture3&#45;&gt;viewer02</title>
<path fill="none" stroke="#000000" d="M1191.7407,-364.9503C1212.4123,-376.6562 1236.655,-393.0844 1253.6171,-413.0444 1266.2412,-427.8997 1257.4725,-439.6287 1271.6171,-453.0444 1300.3707,-480.3164 1340.9281,-497.3161 1376.3154,-507.7205"/>
<polygon fill="#000000" stroke="#000000" points="1375.5712,-511.1469 1386.1453,-510.4833 1377.4653,-504.408 1375.5712,-511.1469"/>
<text text-anchor="middle" x="1297.6171" y="-489.8444" font-family="Times,serif" font-size="14.00" fill="#000000">filter</text>
</g>
<!-- capture3&#45;&gt;viewer12 -->
<g id="edge12" class="edge">
<title>capture3&#45;&gt;viewer12</title>
<path fill="none" stroke="#000000" d="M1192.033,-325.9231C1213.3084,-314.0712 1238.0228,-296.917 1253.6171,-275.0444 1271.2677,-250.2875 1253.1296,-233.1826 1271.6171,-209.0444 1293.5401,-180.4204 1309.0977,-183.6149 1341.6171,-168.0444 1358.4835,-159.9685 1377.3422,-152.3204 1394.6378,-145.8187"/>
<polygon fill="#000000" stroke="#000000" points="1395.9004,-149.0835 1404.063,-142.3291 1393.4699,-142.5189 1395.9004,-149.0835"/>
<text text-anchor="middle" x="1297.6171" y="-212.8444" font-family="Times,serif" font-size="14.00" fill="#000000">filter</text>
</g>
<!-- capture4&#45;&gt;viewer03 -->
<g id="edge14" class="edge">
<title>capture4&#45;&gt;viewer03</title>
<path fill="none" stroke="#000000" d="M1190.9147,-635.3103C1229.3686,-656.6131 1289.2185,-689.4851 1341.6171,-717.0444 1363.7344,-728.6771 1388.5385,-741.2876 1409.033,-751.5913"/>
<polygon fill="#000000" stroke="#000000" points="1407.6134,-754.7948 1418.121,-756.1513 1410.7527,-748.5383 1407.6134,-754.7948"/>
<text text-anchor="middle" x="1297.6171" y="-709.8444" font-family="Times,serif" font-size="14.00" fill="#000000">filter</text>
</g>
<!-- capture4&#45;&gt;viewer13 -->
<g id="edge16" class="edge">
<title>capture4&#45;&gt;viewer13</title>
<path fill="none" stroke="#000000" d="M1192.7116,-595.5047C1214.3276,-584.2582 1239.1501,-567.519 1253.6171,-545.0444 1281.1431,-502.2823 1244.5341,-475.0884 1271.6171,-432.0444 1286.5865,-408.2528 1301.5165,-413.4135 1323.6171,-396.0444 1332.0327,-389.4304 1332.7701,-386.0693 1341.6171,-380.0444 1360.9516,-366.8773 1383.8033,-354.7894 1403.6928,-345.2408"/>
<polygon fill="#000000" stroke="#000000" points="1405.3425,-348.3325 1412.8939,-340.901 1402.3563,-342.0014 1405.3425,-348.3325"/>
<text text-anchor="middle" x="1297.6171" y="-435.8444" font-family="Times,serif" font-size="14.00" fill="#000000">filter</text>
</g>
<!-- button_gui_kv_py_gsl -->
<g id="node17" class="node">
<title>button_gui_kv_py_gsl</title>
<ellipse fill="none" stroke="#000000" stroke-dasharray="1,5" cx="106.5905" cy="-633.0444" rx="83.3857" ry="18"/>
<text text-anchor="middle" x="106.5905" y="-629.3444" font-family="Times,serif" font-size="14.00" fill="#c0c0c0">button&#45;gui&#45;kv.py.gsl</text>
</g>
<!-- button04 -->
<g id="node18" class="node">
<title>button04</title>
<ellipse fill="none" stroke="#000000" cx="419.4706" cy="-265.0444" rx="90.1842" ry="18"/>
<text text-anchor="middle" x="419.4706" y="-261.3444" font-family="Times,serif" font-size="14.00" fill="#000000">button&#45;gui&#45;kv.py.gsl&#45;4</text>
</g>
<!-- button_gui_kv_py_gsl&#45;&gt;button04 -->
<g id="edge17" class="edge">
<title>button_gui_kv_py_gsl&#45;&gt;button04</title>
<path fill="none" stroke="#000000" stroke-dasharray="1,5" d="M116.6373,-615.0243C135.8106,-581.7026 180.2732,-509.3629 231.1811,-460.0444 251.1899,-440.6602 268.3532,-448.629 283.1811,-425.0444 312.8217,-377.8992 264.8915,-343.2853 301.1811,-301.0444 309.8201,-290.9886 321.1751,-283.6894 333.4329,-278.4021"/>
<polygon fill="#000000" stroke="#000000" points="334.8767,-281.5967 342.9525,-274.7386 332.3626,-275.0638 334.8767,-281.5967"/>
<text text-anchor="middle" x="257.1811" y="-463.8444" font-family="Times,serif" font-size="14.00" fill="#c0c0c0">generates</text>
</g>
<!-- button05 -->
<g id="node24" class="node">
<title>button05</title>
<ellipse fill="none" stroke="#000000" cx="419.4706" cy="-737.0444" rx="90.1842" ry="18"/>
<text text-anchor="middle" x="419.4706" y="-733.3444" font-family="Times,serif" font-size="14.00" fill="#000000">button&#45;gui&#45;kv.py.gsl&#45;5</text>
</g>
<!-- button_gui_kv_py_gsl&#45;&gt;button05 -->
<g id="edge23" class="edge">
<title>button_gui_kv_py_gsl&#45;&gt;button05</title>
<path fill="none" stroke="#000000" stroke-dasharray="1,5" d="M149.3175,-648.5382C188.6302,-662.6596 248.6254,-683.8721 301.1811,-701.0444 319.861,-707.1479 340.3079,-713.4899 358.8691,-719.1192"/>
<polygon fill="#000000" stroke="#000000" points="358.0881,-722.5394 368.6729,-722.0798 360.1117,-715.8383 358.0881,-722.5394"/>
<text text-anchor="middle" x="257.1811" y="-697.8444" font-family="Times,serif" font-size="14.00" fill="#c0c0c0">generates</text>
</g>
<!-- button010 -->
<g id="node33" class="node">
<title>button010</title>
<ellipse fill="none" stroke="#000000" cx="419.4706" cy="-521.0444" rx="94.7833" ry="18"/>
<text text-anchor="middle" x="419.4706" y="-517.3444" font-family="Times,serif" font-size="14.00" fill="#000000">button&#45;gui&#45;kv.py.gsl&#45;10</text>
</g>
<!-- button_gui_kv_py_gsl&#45;&gt;button010 -->
<g id="edge41" class="edge">
<title>button_gui_kv_py_gsl&#45;&gt;button010</title>
<path fill="none" stroke="#000000" stroke-dasharray="1,5" d="M188.1759,-629.4681C220.531,-624.4801 256.3409,-614.0889 283.1811,-593.0444 297.2584,-582.0068 287.5141,-568.5861 301.1811,-557.0444 311.8049,-548.0726 324.6261,-541.3362 337.8524,-536.2783"/>
<polygon fill="#000000" stroke="#000000" points="339.2512,-539.4968 347.5291,-532.8842 336.9343,-532.8914 339.2512,-539.4968"/>
<text text-anchor="middle" x="257.1811" y="-623.8444" font-family="Times,serif" font-size="14.00" fill="#c0c0c0">generates</text>
</g>
<!-- DEST1 -->
<g id="node19" class="node">
<title>DEST1</title>
<ellipse fill="none" stroke="#000000" cx="744.4977" cy="-189.0444" rx="27" ry="18"/>
<text text-anchor="middle" x="744.4977" y="-185.3444" font-family="Times,serif" font-size="14.00" fill="#000000">/1</text>
</g>
<!-- button04&#45;&gt;DEST1 -->
<g id="edge18" class="edge">
<title>button04&#45;&gt;DEST1</title>
<path fill="none" stroke="#000000" d="M478.3305,-251.2813C545.5282,-235.5687 653.3054,-210.3676 708.8484,-197.3801"/>
<polygon fill="#000000" stroke="#000000" points="709.9713,-200.712 718.9118,-195.027 708.3775,-193.8959 709.9713,-200.712"/>
<text text-anchor="middle" x="571.2601" y="-235.8444" font-family="Times,serif" font-size="14.00" fill="#000000">1</text>
</g>
<!-- DEST1&#45;&gt;capture1 -->
<g id="edge31" class="edge">
<title>DEST1&#45;&gt;capture1</title>
<path fill="none" stroke="#000000" d="M771.3698,-186.6692C822.1095,-182.6273 935.4385,-175.7103 1030.2353,-185.0444 1044.4866,-186.4476 1059.5494,-188.7614 1074.0217,-191.4128"/>
<polygon fill="#000000" stroke="#000000" points="1073.4518,-194.8671 1083.9294,-193.2953 1074.7585,-187.9901 1073.4518,-194.8671"/>
<text text-anchor="middle" x="966.2353" y="-188.8444" font-family="Times,serif" font-size="14.00" fill="#000000">create_glworb capture1</text>
</g>
<!-- DEST1&#45;&gt;capture3 -->
<g id="edge37" class="edge">
<title>DEST1&#45;&gt;capture3</title>
<path fill="none" stroke="#000000" d="M771.0372,-192.4195C837.8954,-201.1123 1009.4117,-224.6628 1030.2353,-240.0444 1044.3052,-250.4373 1036.652,-261.937 1048.2353,-275.0444 1063.3449,-292.1421 1083.495,-307.0591 1101.9428,-318.6795"/>
<polygon fill="#000000" stroke="#000000" points="1100.196,-321.7139 1110.5527,-323.948 1103.8497,-315.743 1100.196,-321.7139"/>
<text text-anchor="middle" x="966.2353" y="-243.8444" font-family="Times,serif" font-size="14.00" fill="#000000">create_glworb capture3</text>
</g>
<!-- button_terminal_curt_py_gsl -->
<g id="node20" class="node">
<title>button_terminal_curt_py_gsl</title>
<ellipse fill="none" stroke="#000000" stroke-dasharray="1,5" cx="106.5905" cy="-409.0444" rx="106.6812" ry="18"/>
<text text-anchor="middle" x="106.5905" y="-405.3444" font-family="Times,serif" font-size="14.00" fill="#c0c0c0">button&#45;terminal&#45;curt.py.gsl</text>
</g>
<!-- button14 -->
<g id="node21" class="node">
<title>button14</title>
<ellipse fill="none" stroke="#000000" cx="419.4706" cy="-193.0444" rx="113.9803" ry="18"/>
<text text-anchor="middle" x="419.4706" y="-189.3444" font-family="Times,serif" font-size="14.00" fill="#000000">button&#45;terminal&#45;curt.py.gsl&#45;4</text>
</g>
<!-- button_terminal_curt_py_gsl&#45;&gt;button14 -->
<g id="edge19" class="edge">
<title>button_terminal_curt_py_gsl&#45;&gt;button14</title>
<path fill="none" stroke="#000000" stroke-dasharray="1,5" d="M177.7593,-395.5495C190.8781,-390.3284 203.4765,-383.0872 213.1811,-373.0444 232.5275,-353.0237 218.0024,-337.5685 231.1811,-313.0444 254.1849,-270.2366 260.6851,-255.9098 301.1811,-229.0444 312.6964,-221.405 325.9004,-215.3312 339.2155,-210.5187"/>
<polygon fill="#000000" stroke="#000000" points="340.561,-213.7583 348.908,-207.2331 338.3137,-207.1288 340.561,-213.7583"/>
<text text-anchor="middle" x="257.1811" y="-316.8444" font-family="Times,serif" font-size="14.00" fill="#c0c0c0">generates</text>
</g>
<!-- button15 -->
<g id="node26" class="node">
<title>button15</title>
<ellipse fill="none" stroke="#000000" cx="419.4706" cy="-665.0444" rx="113.9803" ry="18"/>
<text text-anchor="middle" x="419.4706" y="-661.3444" font-family="Times,serif" font-size="14.00" fill="#000000">button&#45;terminal&#45;curt.py.gsl&#45;5</text>
</g>
<!-- button_terminal_curt_py_gsl&#45;&gt;button15 -->
<g id="edge25" class="edge">
<title>button_terminal_curt_py_gsl&#45;&gt;button15</title>
<path fill="none" stroke="#000000" stroke-dasharray="1,5" d="M122.0598,-427.1628C144.6346,-453.0631 188.5698,-501.4683 231.1811,-537.0444 252.5661,-554.8987 266.4967,-549.7345 283.1811,-572.0444 299.0917,-593.3195 282.2979,-610.3574 301.1811,-629.0444 309.3239,-637.1026 319.2123,-643.3655 329.7647,-648.2315"/>
<polygon fill="#000000" stroke="#000000" points="328.605,-651.54 339.1818,-652.1582 331.299,-645.0791 328.605,-651.54"/>
<text text-anchor="middle" x="257.1811" y="-575.8444" font-family="Times,serif" font-size="14.00" fill="#c0c0c0">generates</text>
</g>
<!-- button110 -->
<g id="node36" class="node">
<title>button110</title>
<ellipse fill="none" stroke="#000000" cx="419.4706" cy="-409.0444" rx="118.0794" ry="18"/>
<text text-anchor="middle" x="419.4706" y="-405.3444" font-family="Times,serif" font-size="14.00" fill="#000000">button&#45;terminal&#45;curt.py.gsl&#45;10</text>
</g>
<!-- button_terminal_curt_py_gsl&#45;&gt;button110 -->
<g id="edge44" class="edge">
<title>button_terminal_curt_py_gsl&#45;&gt;button110</title>
<path fill="none" stroke="#000000" stroke-dasharray="1,5" d="M211.2713,-405.4399C218.0084,-405.2832 224.6895,-405.1485 231.1811,-405.0444 251.3392,-404.7209 272.7101,-404.7852 293.5401,-405.0694"/>
<polygon fill="#000000" stroke="#000000" points="293.662,-408.5716 303.7146,-405.2259 293.7696,-401.5725 293.662,-408.5716"/>
<text text-anchor="middle" x="257.1811" y="-408.8444" font-family="Times,serif" font-size="14.00" fill="#c0c0c0">generates</text>
</g>
<!-- button14&#45;&gt;DEST1 -->
<g id="edge20" class="edge">
<title>button14&#45;&gt;DEST1</title>
<path fill="none" stroke="#000000" d="M496.3772,-179.7608C515.7023,-176.9743 536.4405,-174.4544 555.7601,-173.0444 608.8224,-169.1717 670.1988,-176.5846 708.1868,-182.5651"/>
<polygon fill="#000000" stroke="#000000" points="707.8225,-186.0517 718.2549,-184.2033 708.9468,-179.1426 707.8225,-186.0517"/>
<text text-anchor="middle" x="571.2601" y="-176.8444" font-family="Times,serif" font-size="14.00" fill="#000000">1</text>
</g>
<!-- button_iot_hmi_c_gsl -->
<g id="node22" class="node">
<title>button_iot_hmi_c_gsl</title>
<ellipse fill="none" stroke="#000000" stroke-dasharray="1,5" cx="106.5905" cy="-337.0444" rx="81.4863" ry="18"/>
<text text-anchor="middle" x="106.5905" y="-333.3444" font-family="Times,serif" font-size="14.00" fill="#c0c0c0">button&#45;iot&#45;hmi.c.gsl</text>
</g>
<!-- button24 -->
<g id="node23" class="node">
<title>button24</title>
<ellipse fill="none" stroke="#000000" cx="419.4706" cy="-121.0444" rx="89.0842" ry="18"/>
<text text-anchor="middle" x="419.4706" y="-117.3444" font-family="Times,serif" font-size="14.00" fill="#000000">button&#45;iot&#45;hmi.c.gsl&#45;4</text>
</g>
<!-- button_iot_hmi_c_gsl&#45;&gt;button24 -->
<g id="edge21" class="edge">
<title>button_iot_hmi_c_gsl&#45;&gt;button24</title>
<path fill="none" stroke="#000000" stroke-dasharray="1,5" d="M120.6758,-319.2745C150.2182,-283.2032 222.4664,-201.0895 301.1811,-157.0444 315.7636,-148.8846 332.4151,-142.3586 348.529,-137.2272"/>
<polygon fill="#000000" stroke="#000000" points="349.9169,-140.4637 358.4694,-134.2103 347.8839,-133.7654 349.9169,-140.4637"/>
<text text-anchor="middle" x="257.1811" y="-206.8444" font-family="Times,serif" font-size="14.00" fill="#c0c0c0">generates</text>
</g>
<!-- button25 -->
<g id="node27" class="node">
<title>button25</title>
<ellipse fill="none" stroke="#000000" cx="419.4706" cy="-593.0444" rx="89.0842" ry="18"/>
<text text-anchor="middle" x="419.4706" y="-589.3444" font-family="Times,serif" font-size="14.00" fill="#000000">button&#45;iot&#45;hmi.c.gsl&#45;5</text>
</g>
<!-- button_iot_hmi_c_gsl&#45;&gt;button25 -->
<g id="edge27" class="edge">
<title>button_iot_hmi_c_gsl&#45;&gt;button25</title>
<path fill="none" stroke="#000000" stroke-dasharray="1,5" d="M172.9917,-347.4255C188.1337,-352.7703 202.8005,-360.8473 213.1811,-373.0444 244.7201,-410.1023 204.8494,-440.1219 231.1811,-481.0444 246.2557,-504.472 265.3189,-494.6659 283.1811,-516.0444 295.9411,-531.3163 286.302,-543.8284 301.1811,-557.0444 311.9393,-566.6 325.1736,-573.6197 338.8497,-578.7764"/>
<polygon fill="#000000" stroke="#000000" points="337.7687,-582.1058 348.3634,-582.057 340.0507,-575.4882 337.7687,-582.1058"/>
<text text-anchor="middle" x="257.1811" y="-519.8444" font-family="Times,serif" font-size="14.00" fill="#c0c0c0">generates</text>
</g>
<!-- button210 -->
<g id="node37" class="node">
<title>button210</title>
<ellipse fill="none" stroke="#000000" cx="419.4706" cy="-337.0444" rx="92.8835" ry="18"/>
<text text-anchor="middle" x="419.4706" y="-333.3444" font-family="Times,serif" font-size="14.00" fill="#000000">button&#45;iot&#45;hmi.c.gsl&#45;10</text>
</g>
<!-- button_iot_hmi_c_gsl&#45;&gt;button210 -->
<g id="edge47" class="edge">
<title>button_iot_hmi_c_gsl&#45;&gt;button210</title>
<path fill="none" stroke="#000000" stroke-dasharray="1,5" d="M187.9793,-337.0444C227.121,-337.0444 274.4776,-337.0444 316.1344,-337.0444"/>
<polygon fill="#000000" stroke="#000000" points="316.3145,-340.5445 326.3145,-337.0444 316.3144,-333.5445 316.3145,-340.5445"/>
<text text-anchor="middle" x="257.1811" y="-340.8444" font-family="Times,serif" font-size="14.00" fill="#c0c0c0">generates</text>
</g>
<!-- button24&#45;&gt;DEST1 -->
<g id="edge22" class="edge">
<title>button24&#45;&gt;DEST1</title>
<path fill="none" stroke="#000000" d="M492.6215,-131.3206C521.9958,-135.8449 556.0986,-141.6001 586.7601,-148.0444 629.486,-157.0242 678.0118,-170.074 709.8238,-179.0253"/>
<polygon fill="#000000" stroke="#000000" points="708.9612,-182.4186 719.5366,-181.7772 710.8694,-175.6837 708.9612,-182.4186"/>
<text text-anchor="middle" x="571.2601" y="-151.8444" font-family="Times,serif" font-size="14.00" fill="#000000">1</text>
</g>
<!-- DEST2 -->
<g id="node25" class="node">
<title>DEST2</title>
<ellipse fill="none" stroke="#000000" cx="744.4977" cy="-633.0444" rx="27" ry="18"/>
<text text-anchor="middle" x="744.4977" y="-629.3444" font-family="Times,serif" font-size="14.00" fill="#000000">/2</text>
</g>
<!-- button05&#45;&gt;DEST2 -->
<g id="edge24" class="edge">
<title>button05&#45;&gt;DEST2</title>
<path fill="none" stroke="#000000" d="M469.6217,-722.0517C490.6971,-715.6812 515.4529,-708.1065 537.7601,-701.0444 598.8617,-681.7005 669.7569,-658.1366 710.6415,-644.4377"/>
<polygon fill="#000000" stroke="#000000" points="711.9974,-647.6746 720.3651,-641.176 709.7711,-641.038 711.9974,-647.6746"/>
<text text-anchor="middle" x="571.2601" y="-697.8444" font-family="Times,serif" font-size="14.00" fill="#000000">1</text>
</g>
<!-- DEST2&#45;&gt;capture2 -->
<g id="edge34" class="edge">
<title>DEST2&#45;&gt;capture2</title>
<path fill="none" stroke="#000000" d="M769.334,-625.8349C819.393,-611.0567 935.698,-575.4688 1030.2353,-537.0444 1048.2997,-529.7021 1067.4833,-520.9447 1085.1134,-512.4876"/>
<polygon fill="#000000" stroke="#000000" points="1086.7001,-515.608 1094.177,-508.1015 1083.6509,-509.307 1086.7001,-515.608"/>
<text text-anchor="middle" x="966.2353" y="-586.8444" font-family="Times,serif" font-size="14.00" fill="#000000">create_glworb capture2</text>
</g>
<!-- DEST2&#45;&gt;capture4 -->
<g id="edge40" class="edge">
<title>DEST2&#45;&gt;capture4</title>
<path fill="none" stroke="#000000" d="M771.4794,-631.7166C837.4786,-628.4689 1008.0937,-620.073 1096.3088,-615.732"/>
<polygon fill="#000000" stroke="#000000" points="1096.5722,-619.2234 1106.388,-615.236 1096.228,-612.2319 1096.5722,-619.2234"/>
<text text-anchor="middle" x="966.2353" y="-628.8444" font-family="Times,serif" font-size="14.00" fill="#000000">create_glworb capture4</text>
</g>
<!-- button15&#45;&gt;DEST2 -->
<g id="edge26" class="edge">
<title>button15&#45;&gt;DEST2</title>
<path fill="none" stroke="#000000" d="M516.1094,-655.5299C580.343,-649.2059 661.104,-641.2547 707.3597,-636.7007"/>
<polygon fill="#000000" stroke="#000000" points="707.9077,-640.1638 717.5167,-635.7007 707.2218,-633.1975 707.9077,-640.1638"/>
<text text-anchor="middle" x="571.2601" y="-654.8444" font-family="Times,serif" font-size="14.00" fill="#000000">1</text>
</g>
<!-- button25&#45;&gt;DEST2 -->
<g id="edge28" class="edge">
<title>button25&#45;&gt;DEST2</title>
<path fill="none" stroke="#000000" d="M495.675,-602.4226C562.3801,-610.6318 656.415,-622.2043 707.6666,-628.5117"/>
<polygon fill="#000000" stroke="#000000" points="707.2745,-631.9898 717.6272,-629.7375 708.1296,-625.0422 707.2745,-631.9898"/>
<text text-anchor="middle" x="571.2601" y="-616.8444" font-family="Times,serif" font-size="14.00" fill="#000000">1</text>
</g>
<!-- slurp_term_cli_py_gsl -->
<g id="node28" class="node">
<title>slurp_term_cli_py_gsl</title>
<ellipse fill="none" stroke="#000000" stroke-dasharray="1,5" cx="106.5905" cy="-917.0444" rx="83.3857" ry="18"/>
<text text-anchor="middle" x="106.5905" y="-913.3444" font-family="Times,serif" font-size="14.00" fill="#c0c0c0">slurp&#45;term&#45;cli.py.gsl</text>
</g>
<!-- slurp06 -->
<g id="node29" class="node">
<title>slurp06</title>
<ellipse fill="none" stroke="#000000" cx="419.4706" cy="-1025.0444" rx="90.9839" ry="18"/>
<text text-anchor="middle" x="419.4706" y="-1021.3444" font-family="Times,serif" font-size="14.00" fill="#000000">slurp&#45;term&#45;cli.py.gsl&#45;6</text>
</g>
<!-- slurp_term_cli_py_gsl&#45;&gt;slurp06 -->
<g id="edge30" class="edge">
<title>slurp_term_cli_py_gsl&#45;&gt;slurp06</title>
<path fill="none" stroke="#000000" stroke-dasharray="1,5" d="M147.3408,-932.9197C186.5406,-948.0011 247.5863,-970.9911 301.1811,-989.0444 319.6322,-995.2596 339.8573,-1001.5896 358.2833,-1007.173"/>
<polygon fill="#000000" stroke="#000000" points="357.4384,-1010.5738 368.0229,-1010.106 359.4569,-1003.8711 357.4384,-1010.5738"/>
<text text-anchor="middle" x="257.1811" y="-984.8444" font-family="Times,serif" font-size="14.00" fill="#c0c0c0">generates</text>
</g>
<!-- slurp07 -->
<g id="node30" class="node">
<title>slurp07</title>
<ellipse fill="none" stroke="#000000" cx="419.4706" cy="-953.0444" rx="90.9839" ry="18"/>
<text text-anchor="middle" x="419.4706" y="-949.3444" font-family="Times,serif" font-size="14.00" fill="#000000">slurp&#45;term&#45;cli.py.gsl&#45;7</text>
</g>
<!-- slurp_term_cli_py_gsl&#45;&gt;slurp07 -->
<g id="edge33" class="edge">
<title>slurp_term_cli_py_gsl&#45;&gt;slurp07</title>
<path fill="none" stroke="#000000" stroke-dasharray="1,5" d="M180.3425,-925.5303C225.3771,-930.712 283.241,-937.3698 330.7677,-942.8382"/>
<polygon fill="#000000" stroke="#000000" points="330.4096,-946.32 340.7442,-943.9861 331.2098,-939.3659 330.4096,-946.32"/>
<text text-anchor="middle" x="257.1811" y="-940.8444" font-family="Times,serif" font-size="14.00" fill="#c0c0c0">generates</text>
</g>
<!-- slurp08 -->
<g id="node31" class="node">
<title>slurp08</title>
<ellipse fill="none" stroke="#000000" cx="419.4706" cy="-881.0444" rx="90.9839" ry="18"/>
<text text-anchor="middle" x="419.4706" y="-877.3444" font-family="Times,serif" font-size="14.00" fill="#000000">slurp&#45;term&#45;cli.py.gsl&#45;8</text>
</g>
<!-- slurp_term_cli_py_gsl&#45;&gt;slurp08 -->
<g id="edge36" class="edge">
<title>slurp_term_cli_py_gsl&#45;&gt;slurp08</title>
<path fill="none" stroke="#000000" stroke-dasharray="1,5" d="M180.3425,-908.5585C225.3771,-903.3768 283.241,-896.719 330.7677,-891.2505"/>
<polygon fill="#000000" stroke="#000000" points="331.2098,-894.7228 340.7442,-890.1026 330.4096,-887.7687 331.2098,-894.7228"/>
<text text-anchor="middle" x="257.1811" y="-905.8444" font-family="Times,serif" font-size="14.00" fill="#c0c0c0">generates</text>
</g>
<!-- slurp09 -->
<g id="node32" class="node">
<title>slurp09</title>
<ellipse fill="none" stroke="#000000" cx="419.4706" cy="-809.0444" rx="90.9839" ry="18"/>
<text text-anchor="middle" x="419.4706" y="-805.3444" font-family="Times,serif" font-size="14.00" fill="#000000">slurp&#45;term&#45;cli.py.gsl&#45;9</text>
</g>
<!-- slurp_term_cli_py_gsl&#45;&gt;slurp09 -->
<g id="edge39" class="edge">
<title>slurp_term_cli_py_gsl&#45;&gt;slurp09</title>
<path fill="none" stroke="#000000" stroke-dasharray="1,5" d="M147.3408,-901.1691C186.5406,-886.0876 247.5863,-863.0976 301.1811,-845.0444 319.6322,-838.8291 339.8573,-832.4991 358.2833,-826.9157"/>
<polygon fill="#000000" stroke="#000000" points="359.4569,-830.2176 368.0229,-823.9827 357.4384,-823.5149 359.4569,-830.2176"/>
<text text-anchor="middle" x="257.1811" y="-872.8444" font-family="Times,serif" font-size="14.00" fill="#c0c0c0">generates</text>
</g>
<!-- DESTsetBYTEBOOOKmarkercapture1 -->
<g id="node34" class="node">
<title>DESTsetBYTEBOOOKmarkercapture1</title>
<ellipse fill="none" stroke="#000000" cx="744.4977" cy="-373.0444" rx="139.9756" ry="18"/>
<text text-anchor="middle" x="744.4977" y="-369.3444" font-family="Times,serif" font-size="14.00" fill="#000000">/set/BYTEBOOOK/marker:capture1</text>
</g>
<!-- button010&#45;&gt;DESTsetBYTEBOOOKmarkercapture1 -->
<g id="edge42" class="edge">
<title>button010&#45;&gt;DESTsetBYTEBOOOKmarkercapture1</title>
<path fill="none" stroke="#000000" d="M482.6652,-507.5755C517.0236,-497.4936 558.2061,-480.5672 586.7601,-453.0444 600.7961,-439.5152 590.0188,-425.8015 604.7601,-413.0444 616.1082,-403.2237 629.7253,-395.8071 643.9448,-390.2078"/>
<polygon fill="#000000" stroke="#000000" points="645.157,-393.4912 653.3581,-386.7836 642.7641,-386.9129 645.157,-393.4912"/>
<text text-anchor="middle" x="571.2601" y="-477.8444" font-family="Times,serif" font-size="14.00" fill="#000000">+=2</text>
</g>
<!-- DESTsetBYTEBOOOKmarkercapture2 -->
<g id="node35" class="node">
<title>DESTsetBYTEBOOOKmarkercapture2</title>
<ellipse fill="none" stroke="#000000" cx="744.4977" cy="-449.0444" rx="139.9756" ry="18"/>
<text text-anchor="middle" x="744.4977" y="-445.3444" font-family="Times,serif" font-size="14.00" fill="#000000">/set/BYTEBOOOK/marker:capture2</text>
</g>
<!-- button010&#45;&gt;DESTsetBYTEBOOOKmarkercapture2 -->
<g id="edge43" class="edge">
<title>button010&#45;&gt;DESTsetBYTEBOOOKmarkercapture2</title>
<path fill="none" stroke="#000000" d="M464.594,-536.9216C500.7014,-546.609 551.0317,-553.0307 586.7601,-529.0444 604.3022,-517.2675 588.838,-498.9335 604.7601,-485.0444 614.1449,-476.8578 625.154,-470.4932 636.8028,-465.5516"/>
<polygon fill="#000000" stroke="#000000" points="638.2033,-468.7626 646.2633,-461.886 635.6742,-462.2354 638.2033,-468.7626"/>
<text text-anchor="middle" x="571.2601" y="-545.8444" font-family="Times,serif" font-size="14.00" fill="#000000">+ = 2</text>
</g>
<!-- button110&#45;&gt;DESTsetBYTEBOOOKmarkercapture1 -->
<g id="edge45" class="edge">
<title>button110&#45;&gt;DESTsetBYTEBOOOKmarkercapture1</title>
<path fill="none" stroke="#000000" d="M495.6639,-395.2046C510.6776,-390.0053 525.5449,-382.8602 537.7601,-373.0444 550.4799,-362.823 541.6744,-349.2824 555.7601,-341.0444 576.718,-328.7872 635.2317,-340.9446 681.6058,-353.6409"/>
<polygon fill="#000000" stroke="#000000" points="680.7264,-357.0292 691.2994,-356.3498 682.6104,-350.2875 680.7264,-357.0292"/>
<text text-anchor="middle" x="571.2601" y="-344.8444" font-family="Times,serif" font-size="14.00" fill="#000000">+=2</text>
</g>
<!-- button110&#45;&gt;DESTsetBYTEBOOOKmarkercapture2 -->
<g id="edge46" class="edge">
<title>button110&#45;&gt;DESTsetBYTEBOOOKmarkercapture2</title>
<path fill="none" stroke="#000000" d="M511.7409,-420.3998C549.6318,-425.0629 593.8311,-430.5023 633.4723,-435.3808"/>
<polygon fill="#000000" stroke="#000000" points="633.093,-438.8605 643.4457,-436.6082 633.9481,-431.9129 633.093,-438.8605"/>
<text text-anchor="middle" x="571.2601" y="-432.8444" font-family="Times,serif" font-size="14.00" fill="#000000">+ = 2</text>
</g>
<!-- button210&#45;&gt;DESTsetBYTEBOOOKmarkercapture1 -->
<g id="edge48" class="edge">
<title>button210&#45;&gt;DESTsetBYTEBOOOKmarkercapture1</title>
<path fill="none" stroke="#000000" d="M454.4297,-320.2319C489.7057,-305.8393 544.8111,-290.5567 586.7601,-312.0444 598.9459,-318.2864 593.4558,-329.3197 604.7601,-337.0444 616.5242,-345.0832 629.9583,-351.3271 643.7398,-356.1767"/>
<polygon fill="#000000" stroke="#000000" points="642.7273,-359.528 653.32,-359.3163 644.9073,-352.876 642.7273,-359.528"/>
<text text-anchor="middle" x="571.2601" y="-315.8444" font-family="Times,serif" font-size="14.00" fill="#000000">+=2</text>
</g>
<!-- button210&#45;&gt;DESTsetBYTEBOOOKmarkercapture2 -->
<g id="edge49" class="edge">
<title>button210&#45;&gt;DESTsetBYTEBOOOKmarkercapture2</title>
<path fill="none" stroke="#000000" d="M475.0364,-351.4964C495.1074,-357.3563 517.7422,-364.7165 537.7601,-373.0444 568.971,-386.0288 573.4423,-396.32 604.7601,-409.0444 624.9422,-417.2443 647.4033,-424.4626 668.3112,-430.4288"/>
<polygon fill="#000000" stroke="#000000" points="667.5397,-433.8472 678.1127,-433.1681 669.4239,-427.1055 667.5397,-433.8472"/>
<text text-anchor="middle" x="571.2601" y="-404.8444" font-family="Times,serif" font-size="14.00" fill="#000000">+ = 2</text>
</g>
</g>
</svg>
