<?xml version="1.0" encoding="UTF-8" standalone="no"?>
<!DOCTYPE svg PUBLIC "-//W3C//DTD SVG 1.1//EN"
 "http://www.w3.org/Graphics/SVG/1.1/DTD/svg11.dtd">
<!-- Generated by graphviz version 2.40.1 (20161225.0304)
 -->
<!-- Title: permutations Pages: 1 -->
<svg width="1568pt" height="1074pt"
 viewBox="0.00 0.00 1567.60 1074.04" xmlns="http://www.w3.org/2000/svg" xmlns:xlink="http://www.w3.org/1999/xlink">
<g id="graph0" class="graph" transform="scale(1 1) rotate(0) translate(4 1070.0444)">
<title>permutations</title>
<polygon fill="#ffffff" stroke="transparent" points="-4,4 -4,-1070.0444 1563.5975,-1070.0444 1563.5975,4 -4,4"/>
<text text-anchor="middle" x="779.7987" y="-1050.8444" font-family="Times,serif" font-size="14.00" fill="#000000">machine.xml@5de13579aa031dba6d3dc9167617373a55e530c5</text>
<!-- reality -->
<g id="node1" class="node">
<title>reality</title>
<ellipse fill="none" stroke="#ff0000" cx="741.4977" cy="-521.0444" rx="33.2948" ry="18"/>
<text text-anchor="middle" x="741.4977" y="-517.3444" font-family="Times,serif" font-size="14.00" fill="#ff0000">reality</text>
</g>
<!-- capture3 -->
<g id="node12" class="node">
<title>capture3</title>
<ellipse fill="none" stroke="#000000" cx="1147.9262" cy="-345.0444" rx="44.5955" ry="48.5816"/>
<text text-anchor="middle" x="1147.9262" y="-364.3444" font-family="Times,serif" font-size="14.00" fill="#000000">capture3</text>
<text text-anchor="middle" x="1147.9262" y="-349.3444" font-family="Times,serif" font-size="14.00" fill="#000000">slurp</text>
<text text-anchor="middle" x="1147.9262" y="-318.3444" font-family="Times,serif" font-size="14.00" fill="#000000">gphoto2</text>
</g>
<!-- reality&#45;&gt;capture3 -->
<g id="edge35" class="edge">
<title>reality&#45;&gt;capture3</title>
<path fill="none" stroke="#ff0000" d="M774.1271,-517.6047C803.6844,-513.3743 847.6222,-504.2351 881.2353,-485.0444 891.0605,-479.4349 890.0157,-473.6018 899.2353,-467.0444 950.7463,-430.4074 970.4889,-432.8921 1027.2353,-405.0444 1050.5788,-393.5887 1076.3978,-380.7728 1098.1446,-369.9362"/>
<polygon fill="#ff0000" stroke="#ff0000" points="1099.8088,-373.0174 1107.1962,-365.4228 1096.6852,-366.7529 1099.8088,-373.0174"/>
<text text-anchor="middle" x="963.2353" y="-470.8444" font-family="Times,serif" font-size="14.00" fill="#ff0000">sources</text>
</g>
<!-- capture4 -->
<g id="node15" class="node">
<title>capture4</title>
<ellipse fill="none" stroke="#000000" cx="1147.9262" cy="-613.0444" rx="44.5955" ry="48.5816"/>
<text text-anchor="middle" x="1147.9262" y="-632.3444" font-family="Times,serif" font-size="14.00" fill="#000000">capture4</text>
<text text-anchor="middle" x="1147.9262" y="-617.3444" font-family="Times,serif" font-size="14.00" fill="#000000">slurp</text>
<text text-anchor="middle" x="1147.9262" y="-586.3444" font-family="Times,serif" font-size="14.00" fill="#000000">gphoto2</text>
</g>
<!-- reality&#45;&gt;capture4 -->
<g id="edge38" class="edge">
<title>reality&#45;&gt;capture4</title>
<path fill="none" stroke="#ff0000" d="M770.4679,-511.8609C824.7046,-496.4718 943.6286,-471.3992 1027.2353,-517.0444 1040.2202,-524.1335 1034.8454,-534.5127 1045.2353,-545.0444 1060.8507,-560.8728 1080.7234,-575.0619 1098.8185,-586.3318"/>
<polygon fill="#ff0000" stroke="#ff0000" points="1097.1683,-589.4245 1107.5323,-591.6242 1100.8021,-583.4416 1097.1683,-589.4245"/>
<text text-anchor="middle" x="963.2353" y="-520.8444" font-family="Times,serif" font-size="14.00" fill="#ff0000">sources</text>
</g>
<!-- BYTEBOOOK -->
<g id="node2" class="node">
<title>BYTEBOOOK</title>
<ellipse fill="none" stroke="#ff0000" cx="741.4977" cy="-301.0444" rx="64.9885" ry="18"/>
<text text-anchor="middle" x="741.4977" y="-297.3444" font-family="Times,serif" font-size="14.00" fill="#000000">BYTEBOOOK</text>
</g>
<!-- capture1 -->
<g id="node5" class="node">
<title>capture1</title>
<ellipse fill="none" stroke="#000000" cx="1147.9262" cy="-209.0444" rx="70.922" ry="48.1667"/>
<text text-anchor="middle" x="1147.9262" y="-227.8444" font-family="Times,serif" font-size="14.00" fill="#000000">capture1</text>
<text text-anchor="middle" x="1147.9262" y="-212.8444" font-family="Times,serif" font-size="14.00" fill="#000000">slurp</text>
<text text-anchor="middle" x="1147.9262" y="-197.8444" font-family="Times,serif" font-size="14.00" fill="#000000">BYTEBOOOK</text>
<text text-anchor="middle" x="1147.9262" y="-182.8444" font-family="Times,serif" font-size="14.00" fill="#000000">generic</text>
</g>
<!-- BYTEBOOOK&#45;&gt;capture1 -->
<g id="edge29" class="edge">
<title>BYTEBOOOK&#45;&gt;capture1</title>
<path fill="none" stroke="#ff0000" d="M804.919,-297.0522C863.4905,-292.2232 952.4686,-281.9744 1027.2353,-261.0444 1045.217,-256.0106 1064.0368,-248.8806 1081.321,-241.5091"/>
<polygon fill="#ff0000" stroke="#ff0000" points="1082.9807,-244.6038 1090.7503,-237.4008 1080.1846,-238.1865 1082.9807,-244.6038"/>
<text text-anchor="middle" x="963.2353" y="-290.8444" font-family="Times,serif" font-size="14.00" fill="#ff0000">sources</text>
</g>
<!-- capture2 -->
<g id="node9" class="node">
<title>capture2</title>
<ellipse fill="none" stroke="#000000" cx="1147.9262" cy="-479.0444" rx="70.922" ry="48.1667"/>
<text text-anchor="middle" x="1147.9262" y="-497.8444" font-family="Times,serif" font-size="14.00" fill="#000000">capture2</text>
<text text-anchor="middle" x="1147.9262" y="-482.8444" font-family="Times,serif" font-size="14.00" fill="#000000">slurp</text>
<text text-anchor="middle" x="1147.9262" y="-467.8444" font-family="Times,serif" font-size="14.00" fill="#000000">BYTEBOOOK</text>
<text text-anchor="middle" x="1147.9262" y="-452.8444" font-family="Times,serif" font-size="14.00" fill="#000000">generic</text>
</g>
<!-- BYTEBOOOK&#45;&gt;capture2 -->
<g id="edge32" class="edge">
<title>BYTEBOOOK&#45;&gt;capture2</title>
<path fill="none" stroke="#ff0000" d="M805.2107,-304.8614C867.7121,-311.5841 962.7665,-330.1027 1027.2353,-381.0444 1039.7357,-390.9219 1034.2665,-400.4896 1045.2353,-412.0444 1056.4012,-423.8068 1070.0163,-434.5023 1083.6339,-443.724"/>
<polygon fill="#ff0000" stroke="#ff0000" points="1081.8099,-446.7134 1092.0912,-449.2718 1085.6494,-440.8603 1081.8099,-446.7134"/>
<text text-anchor="middle" x="963.2353" y="-384.8444" font-family="Times,serif" font-size="14.00" fill="#ff0000">sources</text>
</g>
<!-- viewer_gui_kv_py_gsl -->
<g id="node3" class="node">
<title>viewer_gui_kv_py_gsl</title>
<ellipse fill="none" stroke="#000000" stroke-dasharray="1,5" cx="1147.9262" cy="-716.0444" rx="84.485" ry="18"/>
<text text-anchor="middle" x="1147.9262" y="-712.3444" font-family="Times,serif" font-size="14.00" fill="#c0c0c0">viewer&#45;gui&#45;kv.py.gsl</text>
</g>
<!-- viewer00 -->
<g id="node4" class="node">
<title>viewer00</title>
<ellipse fill="none" stroke="#000000" cx="1449.1073" cy="-416.0444" rx="91.784" ry="18"/>
<text text-anchor="middle" x="1449.1073" y="-412.3444" font-family="Times,serif" font-size="14.00" fill="#000000">viewer&#45;gui&#45;kv.py.gsl&#45;0</text>
</g>
<!-- viewer_gui_kv_py_gsl&#45;&gt;viewer00 -->
<g id="edge1" class="edge">
<title>viewer_gui_kv_py_gsl&#45;&gt;viewer00</title>
<path fill="none" stroke="#000000" stroke-dasharray="1,5" d="M1214.0788,-704.7198C1227.9882,-699.3868 1241.2619,-691.5517 1250.6171,-680.0444 1289.0788,-632.7345 1236.4896,-595.8648 1268.6171,-544.0444 1283.2964,-520.3671 1300.0209,-527.8033 1320.6171,-509.0444 1329.9572,-500.5375 1329.187,-495.4514 1338.6171,-487.0444 1359.8585,-468.1073 1386.6494,-450.7597 1408.5303,-437.9526"/>
<polygon fill="#000000" stroke="#000000" points="1410.3454,-440.9463 1417.2675,-432.9253 1406.8543,-434.879 1410.3454,-440.9463"/>
<text text-anchor="middle" x="1294.6171" y="-547.8444" font-family="Times,serif" font-size="14.00" fill="#c0c0c0">generates</text>
</g>
<!-- viewer01 -->
<g id="node8" class="node">
<title>viewer01</title>
<ellipse fill="none" stroke="#000000" cx="1449.1073" cy="-681.0444" rx="91.784" ry="18"/>
<text text-anchor="middle" x="1449.1073" y="-677.3444" font-family="Times,serif" font-size="14.00" fill="#000000">viewer&#45;gui&#45;kv.py.gsl&#45;1</text>
</g>
<!-- viewer_gui_kv_py_gsl&#45;&gt;viewer01 -->
<g id="edge5" class="edge">
<title>viewer_gui_kv_py_gsl&#45;&gt;viewer01</title>
<path fill="none" stroke="#000000" stroke-dasharray="1,5" d="M1203.5292,-729.6397C1237.5671,-735.9576 1281.8793,-740.5859 1320.6171,-733.0444 1351.0928,-727.1113 1383.4859,-713.951 1408.1231,-702.355"/>
<polygon fill="#000000" stroke="#000000" points="1409.671,-705.4944 1417.1657,-698.0057 1406.6368,-699.1861 1409.671,-705.4944"/>
<text text-anchor="middle" x="1294.6171" y="-740.8444" font-family="Times,serif" font-size="14.00" fill="#c0c0c0">generates</text>
</g>
<!-- viewer02 -->
<g id="node11" class="node">
<title>viewer02</title>
<ellipse fill="none" stroke="#000000" cx="1449.1073" cy="-523.0444" rx="91.784" ry="18"/>
<text text-anchor="middle" x="1449.1073" y="-519.3444" font-family="Times,serif" font-size="14.00" fill="#000000">viewer&#45;gui&#45;kv.py.gsl&#45;2</text>
</g>
<!-- viewer_gui_kv_py_gsl&#45;&gt;viewer02 -->
<g id="edge9" class="edge">
<title>viewer_gui_kv_py_gsl&#45;&gt;viewer02</title>
<path fill="none" stroke="#000000" stroke-dasharray="1,5" d="M1204.5661,-702.579C1220.3764,-697.1767 1236.9518,-689.8407 1250.6171,-680.0444 1261.1668,-672.4815 1259.1739,-665.9506 1268.6171,-657.0444 1289.066,-637.758 1297.8804,-637.5721 1320.6171,-621.0444 1354.6087,-596.3353 1392.8121,-566.9903 1418.6611,-546.8939"/>
<polygon fill="#000000" stroke="#000000" points="1420.8599,-549.6178 1426.5986,-540.7117 1416.5585,-544.0952 1420.8599,-549.6178"/>
<text text-anchor="middle" x="1294.6171" y="-660.8444" font-family="Times,serif" font-size="14.00" fill="#c0c0c0">generates</text>
</g>
<!-- viewer03 -->
<g id="node14" class="node">
<title>viewer03</title>
<ellipse fill="none" stroke="#000000" cx="1449.1073" cy="-773.0444" rx="91.784" ry="18"/>
<text text-anchor="middle" x="1449.1073" y="-769.3444" font-family="Times,serif" font-size="14.00" fill="#000000">viewer&#45;gui&#45;kv.py.gsl&#45;3</text>
</g>
<!-- viewer_gui_kv_py_gsl&#45;&gt;viewer03 -->
<g id="edge13" class="edge">
<title>viewer_gui_kv_py_gsl&#45;&gt;viewer03</title>
<path fill="none" stroke="#000000" stroke-dasharray="1,5" d="M1183.5446,-732.4503C1207.1525,-742.5355 1239.1015,-754.7028 1268.6171,-761.0444 1293.8252,-766.4605 1321.4286,-769.6368 1347.2981,-771.453"/>
<polygon fill="#000000" stroke="#000000" points="1347.2955,-774.9599 1357.4988,-772.1064 1347.743,-767.9742 1347.2955,-774.9599"/>
<text text-anchor="middle" x="1294.6171" y="-772.8444" font-family="Times,serif" font-size="14.00" fill="#c0c0c0">generates</text>
</g>
<!-- capture1&#45;&gt;viewer00 -->
<g id="edge2" class="edge">
<title>capture1&#45;&gt;viewer00</title>
<path fill="none" stroke="#000000" d="M1205.2506,-237.5212C1221.9239,-248.2197 1238.8059,-261.8019 1250.6171,-278.0444 1267.7434,-301.5962 1249.2489,-319.2987 1268.6171,-341.0444 1285.4732,-359.9696 1344.1094,-382.3443 1390.0297,-397.6996"/>
<polygon fill="#000000" stroke="#000000" points="1389.0228,-401.0529 1399.616,-400.8659 1391.2183,-394.4061 1389.0228,-401.0529"/>
<text text-anchor="middle" x="1294.6171" y="-375.8444" font-family="Times,serif" font-size="14.00" fill="#000000">filter</text>
</g>
<!-- viewer10 -->
<g id="node7" class="node">
<title>viewer10</title>
<ellipse fill="none" stroke="#000000" cx="1449.1073" cy="-42.0444" rx="110.4804" ry="18"/>
<text text-anchor="middle" x="1449.1073" y="-38.3444" font-family="Times,serif" font-size="14.00" fill="#000000">viewer&#45;terminal&#45;cli.py.gsl&#45;0</text>
</g>
<!-- capture1&#45;&gt;viewer10 -->
<g id="edge4" class="edge">
<title>capture1&#45;&gt;viewer10</title>
<path fill="none" stroke="#000000" d="M1201.1198,-177.0181C1217.9442,-165.5557 1235.9573,-151.7915 1250.6171,-137.0444 1260.5256,-127.0768 1257.559,-119.7191 1268.6171,-111.0444 1299.4985,-86.8187 1339.8528,-70.3243 1374.5706,-59.5545"/>
<polygon fill="#000000" stroke="#000000" points="1375.6274,-62.8916 1384.2008,-56.6669 1373.6169,-56.1865 1375.6274,-62.8916"/>
<text text-anchor="middle" x="1294.6171" y="-114.8444" font-family="Times,serif" font-size="14.00" fill="#000000">filter</text>
</g>
<!-- viewer_terminal_cli_py_gsl -->
<g id="node6" class="node">
<title>viewer_terminal_cli_py_gsl</title>
<ellipse fill="none" stroke="#000000" stroke-dasharray="1,5" cx="1147.9262" cy="-101.0444" rx="102.8821" ry="18"/>
<text text-anchor="middle" x="1147.9262" y="-97.3444" font-family="Times,serif" font-size="14.00" fill="#c0c0c0">viewer&#45;terminal&#45;cli.py.gsl</text>
</g>
<!-- viewer_terminal_cli_py_gsl&#45;&gt;viewer10 -->
<g id="edge3" class="edge">
<title>viewer_terminal_cli_py_gsl&#45;&gt;viewer10</title>
<path fill="none" stroke="#000000" stroke-dasharray="1,5" d="M1163.6894,-82.9103C1184.8619,-60.0871 1224.9113,-22.0565 1268.6171,-7.0444 1313.7866,8.4705 1367.8142,-6.1081 1404.9139,-20.9018"/>
<polygon fill="#000000" stroke="#000000" points="1403.858,-24.2529 1414.4359,-24.8517 1406.5401,-17.7871 1403.858,-24.2529"/>
<text text-anchor="middle" x="1294.6171" y="-10.8444" font-family="Times,serif" font-size="14.00" fill="#c0c0c0">generates</text>
</g>
<!-- viewer11 -->
<g id="node10" class="node">
<title>viewer11</title>
<ellipse fill="none" stroke="#000000" cx="1449.1073" cy="-204.0444" rx="110.4804" ry="18"/>
<text text-anchor="middle" x="1449.1073" y="-200.3444" font-family="Times,serif" font-size="14.00" fill="#000000">viewer&#45;terminal&#45;cli.py.gsl&#45;1</text>
</g>
<!-- viewer_terminal_cli_py_gsl&#45;&gt;viewer11 -->
<g id="edge7" class="edge">
<title>viewer_terminal_cli_py_gsl&#45;&gt;viewer11</title>
<path fill="none" stroke="#000000" stroke-dasharray="1,5" d="M1206.336,-115.9492C1240.1968,-125.2508 1283.3695,-138.2508 1320.6171,-153.0444 1328.9297,-156.3459 1330.4264,-158.4508 1338.6171,-162.0444 1356.138,-169.7315 1375.5521,-177.3902 1393.1565,-184.0216"/>
<polygon fill="#000000" stroke="#000000" points="1392.1344,-187.3759 1402.727,-187.5937 1394.5822,-180.8178 1392.1344,-187.3759"/>
<text text-anchor="middle" x="1294.6171" y="-156.8444" font-family="Times,serif" font-size="14.00" fill="#c0c0c0">generates</text>
</g>
<!-- viewer12 -->
<g id="node13" class="node">
<title>viewer12</title>
<ellipse fill="none" stroke="#000000" cx="1449.1073" cy="-126.0444" rx="110.4804" ry="18"/>
<text text-anchor="middle" x="1449.1073" y="-122.3444" font-family="Times,serif" font-size="14.00" fill="#000000">viewer&#45;terminal&#45;cli.py.gsl&#45;2</text>
</g>
<!-- viewer_terminal_cli_py_gsl&#45;&gt;viewer12 -->
<g id="edge11" class="edge">
<title>viewer_terminal_cli_py_gsl&#45;&gt;viewer12</title>
<path fill="none" stroke="#000000" stroke-dasharray="1,5" d="M1168.1032,-83.2375C1201.7161,-55.843 1270.434,-9.6513 1320.6171,-41.0444 1336.1206,-50.7429 1325.4114,-65.394 1338.6171,-78.0444 1351.3052,-90.1989 1367.5649,-99.5453 1383.6856,-106.6177"/>
<polygon fill="#000000" stroke="#000000" points="1382.5544,-109.9373 1393.1331,-110.5231 1385.2287,-103.4682 1382.5544,-109.9373"/>
<text text-anchor="middle" x="1294.6171" y="-44.8444" font-family="Times,serif" font-size="14.00" fill="#c0c0c0">generates</text>
</g>
<!-- viewer13 -->
<g id="node16" class="node">
<title>viewer13</title>
<ellipse fill="none" stroke="#000000" cx="1449.1073" cy="-324.0444" rx="110.4804" ry="18"/>
<text text-anchor="middle" x="1449.1073" y="-320.3444" font-family="Times,serif" font-size="14.00" fill="#000000">viewer&#45;terminal&#45;cli.py.gsl&#45;3</text>
</g>
<!-- viewer_terminal_cli_py_gsl&#45;&gt;viewer13 -->
<g id="edge15" class="edge">
<title>viewer_terminal_cli_py_gsl&#45;&gt;viewer13</title>
<path fill="none" stroke="#000000" stroke-dasharray="1,5" d="M1210.1467,-115.3883C1225.2984,-121.6069 1240.1394,-130.4635 1250.6171,-143.0444 1275.6077,-173.0512 1245.0991,-197.8699 1268.6171,-229.0444 1277.6012,-240.9534 1352.9626,-278.3469 1403.423,-302.5146"/>
<polygon fill="#000000" stroke="#000000" points="1402.0015,-305.7142 1412.5337,-306.8642 1405.0173,-299.3972 1402.0015,-305.7142"/>
<text text-anchor="middle" x="1294.6171" y="-263.8444" font-family="Times,serif" font-size="14.00" fill="#c0c0c0">generates</text>
</g>
<!-- capture2&#45;&gt;viewer01 -->
<g id="edge6" class="edge">
<title>capture2&#45;&gt;viewer01</title>
<path fill="none" stroke="#000000" d="M1201.5816,-510.6883C1217.8961,-521.1852 1235.4967,-533.4308 1250.6171,-546.0444 1259.5493,-553.4957 1259.6593,-557.6237 1268.6171,-565.0444 1281.3764,-575.6142 1363.5866,-627.526 1412.5444,-658.2068"/>
<polygon fill="#000000" stroke="#000000" points="1410.9417,-661.3327 1421.2747,-663.6737 1414.6569,-655.4 1410.9417,-661.3327"/>
<text text-anchor="middle" x="1294.6171" y="-603.8444" font-family="Times,serif" font-size="14.00" fill="#000000">filter</text>
</g>
<!-- capture2&#45;&gt;viewer11 -->
<g id="edge8" class="edge">
<title>capture2&#45;&gt;viewer11</title>
<path fill="none" stroke="#000000" d="M1206.6194,-451.9475C1223.1547,-441.65 1239.6135,-428.3737 1250.6171,-412.0444 1273.8997,-377.4927 1245.2159,-354.5159 1268.6171,-320.0444 1273.3265,-313.1071 1360.7232,-258.5289 1412.1449,-226.7681"/>
<polygon fill="#000000" stroke="#000000" points="1414.0126,-229.7284 1420.6851,-221.4987 1410.3368,-223.7711 1414.0126,-229.7284"/>
<text text-anchor="middle" x="1294.6171" y="-323.8444" font-family="Times,serif" font-size="14.00" fill="#000000">filter</text>
</g>
<!-- capture3&#45;&gt;viewer02 -->
<g id="edge10" class="edge">
<title>capture3&#45;&gt;viewer02</title>
<path fill="none" stroke="#000000" d="M1188.7407,-364.9503C1209.4123,-376.6562 1233.655,-393.0844 1250.6171,-413.0444 1263.2412,-427.8997 1254.4725,-439.6287 1268.6171,-453.0444 1297.3707,-480.3164 1337.9281,-497.3161 1373.3154,-507.7205"/>
<polygon fill="#000000" stroke="#000000" points="1372.5712,-511.1469 1383.1453,-510.4833 1374.4653,-504.408 1372.5712,-511.1469"/>
<text text-anchor="middle" x="1294.6171" y="-489.8444" font-family="Times,serif" font-size="14.00" fill="#000000">filter</text>
</g>
<!-- capture3&#45;&gt;viewer12 -->
<g id="edge12" class="edge">
<title>capture3&#45;&gt;viewer12</title>
<path fill="none" stroke="#000000" d="M1189.033,-325.9231C1210.3084,-314.0712 1235.0228,-296.917 1250.6171,-275.0444 1268.2677,-250.2875 1250.1296,-233.1826 1268.6171,-209.0444 1290.5401,-180.4204 1306.0977,-183.6149 1338.6171,-168.0444 1355.4835,-159.9685 1374.3422,-152.3204 1391.6378,-145.8187"/>
<polygon fill="#000000" stroke="#000000" points="1392.9004,-149.0835 1401.063,-142.3291 1390.4699,-142.5189 1392.9004,-149.0835"/>
<text text-anchor="middle" x="1294.6171" y="-212.8444" font-family="Times,serif" font-size="14.00" fill="#000000">filter</text>
</g>
<!-- capture4&#45;&gt;viewer03 -->
<g id="edge14" class="edge">
<title>capture4&#45;&gt;viewer03</title>
<path fill="none" stroke="#000000" d="M1187.9147,-635.3103C1226.3686,-656.6131 1286.2185,-689.4851 1338.6171,-717.0444 1360.7344,-728.6771 1385.5385,-741.2876 1406.033,-751.5913"/>
<polygon fill="#000000" stroke="#000000" points="1404.6134,-754.7948 1415.121,-756.1513 1407.7527,-748.5383 1404.6134,-754.7948"/>
<text text-anchor="middle" x="1294.6171" y="-709.8444" font-family="Times,serif" font-size="14.00" fill="#000000">filter</text>
</g>
<!-- capture4&#45;&gt;viewer13 -->
<g id="edge16" class="edge">
<title>capture4&#45;&gt;viewer13</title>
<path fill="none" stroke="#000000" d="M1189.7116,-595.5047C1211.3276,-584.2582 1236.1501,-567.519 1250.6171,-545.0444 1278.1431,-502.2823 1241.5341,-475.0884 1268.6171,-432.0444 1283.5865,-408.2528 1298.5165,-413.4135 1320.6171,-396.0444 1329.0327,-389.4304 1329.7701,-386.0693 1338.6171,-380.0444 1357.9516,-366.8773 1380.8033,-354.7894 1400.6928,-345.2408"/>
<polygon fill="#000000" stroke="#000000" points="1402.3425,-348.3325 1409.8939,-340.901 1399.3563,-342.0014 1402.3425,-348.3325"/>
<text text-anchor="middle" x="1294.6171" y="-435.8444" font-family="Times,serif" font-size="14.00" fill="#000000">filter</text>
</g>
<!-- button_gui_kv_py_gsl -->
<g id="node17" class="node">
<title>button_gui_kv_py_gsl</title>
<ellipse fill="none" stroke="#000000" stroke-dasharray="1,5" cx="106.5905" cy="-633.0444" rx="83.3857" ry="18"/>
<text text-anchor="middle" x="106.5905" y="-629.3444" font-family="Times,serif" font-size="14.00" fill="#c0c0c0">button&#45;gui&#45;kv.py.gsl</text>
</g>
<!-- button04 -->
<g id="node18" class="node">
<title>button04</title>
<ellipse fill="none" stroke="#000000" cx="419.4706" cy="-265.0444" rx="90.1842" ry="18"/>
<text text-anchor="middle" x="419.4706" y="-261.3444" font-family="Times,serif" font-size="14.00" fill="#000000">button&#45;gui&#45;kv.py.gsl&#45;4</text>
</g>
<!-- button_gui_kv_py_gsl&#45;&gt;button04 -->
<g id="edge17" class="edge">
<title>button_gui_kv_py_gsl&#45;&gt;button04</title>
<path fill="none" stroke="#000000" stroke-dasharray="1,5" d="M116.6373,-615.0243C135.8106,-581.7026 180.2732,-509.3629 231.1811,-460.0444 251.1899,-440.6602 268.3532,-448.629 283.1811,-425.0444 312.8217,-377.8992 264.8915,-343.2853 301.1811,-301.0444 309.8201,-290.9886 321.1751,-283.6894 333.4329,-278.4021"/>
<polygon fill="#000000" stroke="#000000" points="334.8767,-281.5967 342.9525,-274.7386 332.3626,-275.0638 334.8767,-281.5967"/>
<text text-anchor="middle" x="257.1811" y="-463.8444" font-family="Times,serif" font-size="14.00" fill="#c0c0c0">generates</text>
</g>
<!-- button05 -->
<g id="node24" class="node">
<title>button05</title>
<ellipse fill="none" stroke="#000000" cx="419.4706" cy="-737.0444" rx="90.1842" ry="18"/>
<text text-anchor="middle" x="419.4706" y="-733.3444" font-family="Times,serif" font-size="14.00" fill="#000000">button&#45;gui&#45;kv.py.gsl&#45;5</text>
</g>
<!-- button_gui_kv_py_gsl&#45;&gt;button05 -->
<g id="edge23" class="edge">
<title>button_gui_kv_py_gsl&#45;&gt;button05</title>
<path fill="none" stroke="#000000" stroke-dasharray="1,5" d="M149.3175,-648.5382C188.6302,-662.6596 248.6254,-683.8721 301.1811,-701.0444 319.861,-707.1479 340.3079,-713.4899 358.8691,-719.1192"/>
<polygon fill="#000000" stroke="#000000" points="358.0881,-722.5394 368.6729,-722.0798 360.1117,-715.8383 358.0881,-722.5394"/>
<text text-anchor="middle" x="257.1811" y="-697.8444" font-family="Times,serif" font-size="14.00" fill="#c0c0c0">generates</text>
</g>
<!-- button010 -->
<g id="node33" class="node">
<title>button010</title>
<ellipse fill="none" stroke="#000000" cx="419.4706" cy="-521.0444" rx="94.7833" ry="18"/>
<text text-anchor="middle" x="419.4706" y="-517.3444" font-family="Times,serif" font-size="14.00" fill="#000000">button&#45;gui&#45;kv.py.gsl&#45;10</text>
</g>
<!-- button_gui_kv_py_gsl&#45;&gt;button010 -->
<g id="edge41" class="edge">
<title>button_gui_kv_py_gsl&#45;&gt;button010</title>
<path fill="none" stroke="#000000" stroke-dasharray="1,5" d="M188.1759,-629.4681C220.531,-624.4801 256.3409,-614.0889 283.1811,-593.0444 297.2584,-582.0068 287.5141,-568.5861 301.1811,-557.0444 311.8049,-548.0726 324.6261,-541.3362 337.8524,-536.2783"/>
<polygon fill="#000000" stroke="#000000" points="339.2512,-539.4968 347.5291,-532.8842 336.9343,-532.8914 339.2512,-539.4968"/>
<text text-anchor="middle" x="257.1811" y="-623.8444" font-family="Times,serif" font-size="14.00" fill="#c0c0c0">generates</text>
</g>
<!-- DEST1 -->
<g id="node19" class="node">
<title>DEST1</title>
<ellipse fill="none" stroke="#000000" cx="741.4977" cy="-189.0444" rx="27" ry="18"/>
<text text-anchor="middle" x="741.4977" y="-185.3444" font-family="Times,serif" font-size="14.00" fill="#000000">/1</text>
</g>
<!-- button04&#45;&gt;DEST1 -->
<g id="edge18" class="edge">
<title>button04&#45;&gt;DEST1</title>
<path fill="none" stroke="#000000" d="M477.7873,-251.2813C544.1944,-235.6089 650.6011,-210.4964 705.7542,-197.48"/>
<polygon fill="#000000" stroke="#000000" points="706.8261,-200.8233 715.7548,-195.1198 705.2182,-194.0104 706.8261,-200.8233"/>
<text text-anchor="middle" x="569.7601" y="-235.8444" font-family="Times,serif" font-size="14.00" fill="#000000">1</text>
</g>
<!-- DEST1&#45;&gt;capture1 -->
<g id="edge31" class="edge">
<title>DEST1&#45;&gt;capture1</title>
<path fill="none" stroke="#000000" d="M768.3698,-186.6692C819.1095,-182.6273 932.4385,-175.7103 1027.2353,-185.0444 1041.4866,-186.4476 1056.5494,-188.7614 1071.0217,-191.4128"/>
<polygon fill="#000000" stroke="#000000" points="1070.4518,-194.8671 1080.9294,-193.2953 1071.7585,-187.9901 1070.4518,-194.8671"/>
<text text-anchor="middle" x="963.2353" y="-188.8444" font-family="Times,serif" font-size="14.00" fill="#000000">create_glworb capture1</text>
</g>
<!-- DEST1&#45;&gt;capture3 -->
<g id="edge37" class="edge">
<title>DEST1&#45;&gt;capture3</title>
<path fill="none" stroke="#000000" d="M768.0372,-192.4195C834.8954,-201.1123 1006.4117,-224.6628 1027.2353,-240.0444 1041.3052,-250.4373 1033.652,-261.937 1045.2353,-275.0444 1060.3449,-292.1421 1080.495,-307.0591 1098.9428,-318.6795"/>
<polygon fill="#000000" stroke="#000000" points="1097.196,-321.7139 1107.5527,-323.948 1100.8497,-315.743 1097.196,-321.7139"/>
<text text-anchor="middle" x="963.2353" y="-243.8444" font-family="Times,serif" font-size="14.00" fill="#000000">create_glworb capture3</text>
</g>
<!-- button_terminal_curt_py_gsl -->
<g id="node20" class="node">
<title>button_terminal_curt_py_gsl</title>
<ellipse fill="none" stroke="#000000" stroke-dasharray="1,5" cx="106.5905" cy="-409.0444" rx="106.6812" ry="18"/>
<text text-anchor="middle" x="106.5905" y="-405.3444" font-family="Times,serif" font-size="14.00" fill="#c0c0c0">button&#45;terminal&#45;curt.py.gsl</text>
</g>
<!-- button14 -->
<g id="node21" class="node">
<title>button14</title>
<ellipse fill="none" stroke="#000000" cx="419.4706" cy="-193.0444" rx="113.9803" ry="18"/>
<text text-anchor="middle" x="419.4706" y="-189.3444" font-family="Times,serif" font-size="14.00" fill="#000000">button&#45;terminal&#45;curt.py.gsl&#45;4</text>
</g>
<!-- button_terminal_curt_py_gsl&#45;&gt;button14 -->
<g id="edge19" class="edge">
<title>button_terminal_curt_py_gsl&#45;&gt;button14</title>
<path fill="none" stroke="#000000" stroke-dasharray="1,5" d="M177.7593,-395.5495C190.8781,-390.3284 203.4765,-383.0872 213.1811,-373.0444 232.5275,-353.0237 218.0024,-337.5685 231.1811,-313.0444 254.1849,-270.2366 260.6851,-255.9098 301.1811,-229.0444 312.6964,-221.405 325.9004,-215.3312 339.2155,-210.5187"/>
<polygon fill="#000000" stroke="#000000" points="340.561,-213.7583 348.908,-207.2331 338.3137,-207.1288 340.561,-213.7583"/>
<text text-anchor="middle" x="257.1811" y="-316.8444" font-family="Times,serif" font-size="14.00" fill="#c0c0c0">generates</text>
</g>
<!-- button15 -->
<g id="node26" class="node">
<title>button15</title>
<ellipse fill="none" stroke="#000000" cx="419.4706" cy="-665.0444" rx="113.9803" ry="18"/>
<text text-anchor="middle" x="419.4706" y="-661.3444" font-family="Times,serif" font-size="14.00" fill="#000000">button&#45;terminal&#45;curt.py.gsl&#45;5</text>
</g>
<!-- button_terminal_curt_py_gsl&#45;&gt;button15 -->
<g id="edge25" class="edge">
<title>button_terminal_curt_py_gsl&#45;&gt;button15</title>
<path fill="none" stroke="#000000" stroke-dasharray="1,5" d="M122.0598,-427.1628C144.6346,-453.0631 188.5698,-501.4683 231.1811,-537.0444 252.5661,-554.8987 266.4967,-549.7345 283.1811,-572.0444 299.0917,-593.3195 282.2979,-610.3574 301.1811,-629.0444 309.3239,-637.1026 319.2123,-643.3655 329.7647,-648.2315"/>
<polygon fill="#000000" stroke="#000000" points="328.605,-651.54 339.1818,-652.1582 331.299,-645.0791 328.605,-651.54"/>
<text text-anchor="middle" x="257.1811" y="-575.8444" font-family="Times,serif" font-size="14.00" fill="#c0c0c0">generates</text>
</g>
<!-- button110 -->
<g id="node36" class="node">
<title>button110</title>
<ellipse fill="none" stroke="#000000" cx="419.4706" cy="-409.0444" rx="118.0794" ry="18"/>
<text text-anchor="middle" x="419.4706" y="-405.3444" font-family="Times,serif" font-size="14.00" fill="#000000">button&#45;terminal&#45;curt.py.gsl&#45;10</text>
</g>
<!-- button_terminal_curt_py_gsl&#45;&gt;button110 -->
<g id="edge44" class="edge">
<title>button_terminal_curt_py_gsl&#45;&gt;button110</title>
<path fill="none" stroke="#000000" stroke-dasharray="1,5" d="M211.2713,-405.4399C218.0084,-405.2832 224.6895,-405.1485 231.1811,-405.0444 251.3392,-404.7209 272.7101,-404.7852 293.5401,-405.0694"/>
<polygon fill="#000000" stroke="#000000" points="293.662,-408.5716 303.7146,-405.2259 293.7696,-401.5725 293.662,-408.5716"/>
<text text-anchor="middle" x="257.1811" y="-408.8444" font-family="Times,serif" font-size="14.00" fill="#c0c0c0">generates</text>
</g>
<!-- button14&#45;&gt;DEST1 -->
<g id="edge20" class="edge">
<title>button14&#45;&gt;DEST1</title>
<path fill="none" stroke="#000000" d="M496.3772,-179.7608C515.7023,-176.9743 536.4405,-174.4544 555.7601,-173.0444 607.8376,-169.2436 668.0431,-176.5879 705.4491,-182.5394"/>
<polygon fill="#000000" stroke="#000000" points="704.9338,-186.0015 715.3692,-184.1706 706.0697,-179.0943 704.9338,-186.0015"/>
<text text-anchor="middle" x="569.7601" y="-176.8444" font-family="Times,serif" font-size="14.00" fill="#000000">1</text>
</g>
<!-- button_iot_hmi_c_gsl -->
<g id="node22" class="node">
<title>button_iot_hmi_c_gsl</title>
<ellipse fill="none" stroke="#000000" stroke-dasharray="1,5" cx="106.5905" cy="-337.0444" rx="81.4863" ry="18"/>
<text text-anchor="middle" x="106.5905" y="-333.3444" font-family="Times,serif" font-size="14.00" fill="#c0c0c0">button&#45;iot&#45;hmi.c.gsl</text>
</g>
<!-- button24 -->
<g id="node23" class="node">
<title>button24</title>
<ellipse fill="none" stroke="#000000" cx="419.4706" cy="-121.0444" rx="89.0842" ry="18"/>
<text text-anchor="middle" x="419.4706" y="-117.3444" font-family="Times,serif" font-size="14.00" fill="#000000">button&#45;iot&#45;hmi.c.gsl&#45;4</text>
</g>
<!-- button_iot_hmi_c_gsl&#45;&gt;button24 -->
<g id="edge21" class="edge">
<title>button_iot_hmi_c_gsl&#45;&gt;button24</title>
<path fill="none" stroke="#000000" stroke-dasharray="1,5" d="M120.6758,-319.2745C150.2182,-283.2032 222.4664,-201.0895 301.1811,-157.0444 315.7636,-148.8846 332.4151,-142.3586 348.529,-137.2272"/>
<polygon fill="#000000" stroke="#000000" points="349.9169,-140.4637 358.4694,-134.2103 347.8839,-133.7654 349.9169,-140.4637"/>
<text text-anchor="middle" x="257.1811" y="-206.8444" font-family="Times,serif" font-size="14.00" fill="#c0c0c0">generates</text>
</g>
<!-- button25 -->
<g id="node27" class="node">
<title>button25</title>
<ellipse fill="none" stroke="#000000" cx="419.4706" cy="-593.0444" rx="89.0842" ry="18"/>
<text text-anchor="middle" x="419.4706" y="-589.3444" font-family="Times,serif" font-size="14.00" fill="#000000">button&#45;iot&#45;hmi.c.gsl&#45;5</text>
</g>
<!-- button_iot_hmi_c_gsl&#45;&gt;button25 -->
<g id="edge27" class="edge">
<title>button_iot_hmi_c_gsl&#45;&gt;button25</title>
<path fill="none" stroke="#000000" stroke-dasharray="1,5" d="M172.9917,-347.4255C188.1337,-352.7703 202.8005,-360.8473 213.1811,-373.0444 244.7201,-410.1023 204.8494,-440.1219 231.1811,-481.0444 246.2557,-504.472 265.3189,-494.6659 283.1811,-516.0444 295.9411,-531.3163 286.302,-543.8284 301.1811,-557.0444 311.9393,-566.6 325.1736,-573.6197 338.8497,-578.7764"/>
<polygon fill="#000000" stroke="#000000" points="337.7687,-582.1058 348.3634,-582.057 340.0507,-575.4882 337.7687,-582.1058"/>
<text text-anchor="middle" x="257.1811" y="-519.8444" font-family="Times,serif" font-size="14.00" fill="#c0c0c0">generates</text>
</g>
<!-- button210 -->
<g id="node37" class="node">
<title>button210</title>
<ellipse fill="none" stroke="#000000" cx="419.4706" cy="-337.0444" rx="92.8835" ry="18"/>
<text text-anchor="middle" x="419.4706" y="-333.3444" font-family="Times,serif" font-size="14.00" fill="#000000">button&#45;iot&#45;hmi.c.gsl&#45;10</text>
</g>
<!-- button_iot_hmi_c_gsl&#45;&gt;button210 -->
<g id="edge47" class="edge">
<title>button_iot_hmi_c_gsl&#45;&gt;button210</title>
<path fill="none" stroke="#000000" stroke-dasharray="1,5" d="M187.9793,-337.0444C227.121,-337.0444 274.4776,-337.0444 316.1344,-337.0444"/>
<polygon fill="#000000" stroke="#000000" points="316.3145,-340.5445 326.3145,-337.0444 316.3144,-333.5445 316.3145,-340.5445"/>
<text text-anchor="middle" x="257.1811" y="-340.8444" font-family="Times,serif" font-size="14.00" fill="#c0c0c0">generates</text>
</g>
<!-- button24&#45;&gt;DEST1 -->
<g id="edge22" class="edge">
<title>button24&#45;&gt;DEST1</title>
<path fill="none" stroke="#000000" d="M492.1184,-131.5196C520.78,-136.0338 553.9262,-141.7294 583.7601,-148.0444 626.473,-157.0855 675.0015,-170.1228 706.8177,-179.0543"/>
<polygon fill="#000000" stroke="#000000" points="705.9569,-182.4481 716.5318,-181.7997 707.8606,-175.7119 705.9569,-182.4481"/>
<text text-anchor="middle" x="569.7601" y="-151.8444" font-family="Times,serif" font-size="14.00" fill="#000000">1</text>
</g>
<!-- DEST2 -->
<g id="node25" class="node">
<title>DEST2</title>
<ellipse fill="none" stroke="#000000" cx="741.4977" cy="-633.0444" rx="27" ry="18"/>
<text text-anchor="middle" x="741.4977" y="-629.3444" font-family="Times,serif" font-size="14.00" fill="#000000">/2</text>
</g>
<!-- button05&#45;&gt;DEST2 -->
<g id="edge24" class="edge">
<title>button05&#45;&gt;DEST2</title>
<path fill="none" stroke="#000000" d="M469.9273,-722.0122C490.9419,-715.6675 515.5707,-708.1225 537.7601,-701.0444 597.8566,-681.8743 667.4925,-658.3469 707.8193,-644.5914"/>
<polygon fill="#000000" stroke="#000000" points="709.0848,-647.8578 717.4167,-641.3134 706.8222,-641.2335 709.0848,-647.8578"/>
<text text-anchor="middle" x="569.7601" y="-697.8444" font-family="Times,serif" font-size="14.00" fill="#000000">1</text>
</g>
<!-- DEST2&#45;&gt;capture2 -->
<g id="edge34" class="edge">
<title>DEST2&#45;&gt;capture2</title>
<path fill="none" stroke="#000000" d="M766.334,-625.8349C816.393,-611.0567 932.698,-575.4688 1027.2353,-537.0444 1045.2997,-529.7021 1064.4833,-520.9447 1082.1134,-512.4876"/>
<polygon fill="#000000" stroke="#000000" points="1083.7001,-515.608 1091.177,-508.1015 1080.6509,-509.307 1083.7001,-515.608"/>
<text text-anchor="middle" x="963.2353" y="-586.8444" font-family="Times,serif" font-size="14.00" fill="#000000">create_glworb capture2</text>
</g>
<!-- DEST2&#45;&gt;capture4 -->
<g id="edge40" class="edge">
<title>DEST2&#45;&gt;capture4</title>
<path fill="none" stroke="#000000" d="M768.4794,-631.7166C834.4786,-628.4689 1005.0937,-620.073 1093.3088,-615.732"/>
<polygon fill="#000000" stroke="#000000" points="1093.5722,-619.2234 1103.388,-615.236 1093.228,-612.2319 1093.5722,-619.2234"/>
<text text-anchor="middle" x="963.2353" y="-628.8444" font-family="Times,serif" font-size="14.00" fill="#000000">create_glworb capture4</text>
</g>
<!-- button15&#45;&gt;DEST2 -->
<g id="edge26" class="edge">
<title>button15&#45;&gt;DEST2</title>
<path fill="none" stroke="#000000" d="M516.0893,-655.4433C579.5115,-649.141 658.8926,-641.2529 704.5385,-636.717"/>
<polygon fill="#000000" stroke="#000000" points="704.9628,-640.1922 714.5677,-635.7204 704.2706,-633.2265 704.9628,-640.1922"/>
<text text-anchor="middle" x="569.7601" y="-654.8444" font-family="Times,serif" font-size="14.00" fill="#000000">1</text>
</g>
<!-- button25&#45;&gt;DEST2 -->
<g id="edge28" class="edge">
<title>button25&#45;&gt;DEST2</title>
<path fill="none" stroke="#000000" d="M495.3787,-602.4732C561.3466,-610.6672 654.0608,-622.1836 704.7842,-628.4841"/>
<polygon fill="#000000" stroke="#000000" points="704.5907,-631.9868 714.9459,-629.7463 705.4536,-625.0402 704.5907,-631.9868"/>
<text text-anchor="middle" x="569.7601" y="-616.8444" font-family="Times,serif" font-size="14.00" fill="#000000">1</text>
</g>
<!-- slurp_term_cli_py_gsl -->
<g id="node28" class="node">
<title>slurp_term_cli_py_gsl</title>
<ellipse fill="none" stroke="#000000" stroke-dasharray="1,5" cx="106.5905" cy="-917.0444" rx="83.3857" ry="18"/>
<text text-anchor="middle" x="106.5905" y="-913.3444" font-family="Times,serif" font-size="14.00" fill="#c0c0c0">slurp&#45;term&#45;cli.py.gsl</text>
</g>
<!-- slurp06 -->
<g id="node29" class="node">
<title>slurp06</title>
<ellipse fill="none" stroke="#000000" cx="419.4706" cy="-1025.0444" rx="90.9839" ry="18"/>
<text text-anchor="middle" x="419.4706" y="-1021.3444" font-family="Times,serif" font-size="14.00" fill="#000000">slurp&#45;term&#45;cli.py.gsl&#45;6</text>
</g>
<!-- slurp_term_cli_py_gsl&#45;&gt;slurp06 -->
<g id="edge30" class="edge">
<title>slurp_term_cli_py_gsl&#45;&gt;slurp06</title>
<path fill="none" stroke="#000000" stroke-dasharray="1,5" d="M147.3408,-932.9197C186.5406,-948.0011 247.5863,-970.9911 301.1811,-989.0444 319.6322,-995.2596 339.8573,-1001.5896 358.2833,-1007.173"/>
<polygon fill="#000000" stroke="#000000" points="357.4384,-1010.5738 368.0229,-1010.106 359.4569,-1003.8711 357.4384,-1010.5738"/>
<text text-anchor="middle" x="257.1811" y="-984.8444" font-family="Times,serif" font-size="14.00" fill="#c0c0c0">generates</text>
</g>
<!-- slurp07 -->
<g id="node30" class="node">
<title>slurp07</title>
<ellipse fill="none" stroke="#000000" cx="419.4706" cy="-953.0444" rx="90.9839" ry="18"/>
<text text-anchor="middle" x="419.4706" y="-949.3444" font-family="Times,serif" font-size="14.00" fill="#000000">slurp&#45;term&#45;cli.py.gsl&#45;7</text>
</g>
<!-- slurp_term_cli_py_gsl&#45;&gt;slurp07 -->
<g id="edge33" class="edge">
<title>slurp_term_cli_py_gsl&#45;&gt;slurp07</title>
<path fill="none" stroke="#000000" stroke-dasharray="1,5" d="M180.3425,-925.5303C225.3771,-930.712 283.241,-937.3698 330.7677,-942.8382"/>
<polygon fill="#000000" stroke="#000000" points="330.4096,-946.32 340.7442,-943.9861 331.2098,-939.3659 330.4096,-946.32"/>
<text text-anchor="middle" x="257.1811" y="-940.8444" font-family="Times,serif" font-size="14.00" fill="#c0c0c0">generates</text>
</g>
<!-- slurp08 -->
<g id="node31" class="node">
<title>slurp08</title>
<ellipse fill="none" stroke="#000000" cx="419.4706" cy="-881.0444" rx="90.9839" ry="18"/>
<text text-anchor="middle" x="419.4706" y="-877.3444" font-family="Times,serif" font-size="14.00" fill="#000000">slurp&#45;term&#45;cli.py.gsl&#45;8</text>
</g>
<!-- slurp_term_cli_py_gsl&#45;&gt;slurp08 -->
<g id="edge36" class="edge">
<title>slurp_term_cli_py_gsl&#45;&gt;slurp08</title>
<path fill="none" stroke="#000000" stroke-dasharray="1,5" d="M180.3425,-908.5585C225.3771,-903.3768 283.241,-896.719 330.7677,-891.2505"/>
<polygon fill="#000000" stroke="#000000" points="331.2098,-894.7228 340.7442,-890.1026 330.4096,-887.7687 331.2098,-894.7228"/>
<text text-anchor="middle" x="257.1811" y="-905.8444" font-family="Times,serif" font-size="14.00" fill="#c0c0c0">generates</text>
</g>
<!-- slurp09 -->
<g id="node32" class="node">
<title>slurp09</title>
<ellipse fill="none" stroke="#000000" cx="419.4706" cy="-809.0444" rx="90.9839" ry="18"/>
<text text-anchor="middle" x="419.4706" y="-805.3444" font-family="Times,serif" font-size="14.00" fill="#000000">slurp&#45;term&#45;cli.py.gsl&#45;9</text>
</g>
<!-- slurp_term_cli_py_gsl&#45;&gt;slurp09 -->
<g id="edge39" class="edge">
<title>slurp_term_cli_py_gsl&#45;&gt;slurp09</title>
<path fill="none" stroke="#000000" stroke-dasharray="1,5" d="M147.3408,-901.1691C186.5406,-886.0876 247.5863,-863.0976 301.1811,-845.0444 319.6322,-838.8291 339.8573,-832.4991 358.2833,-826.9157"/>
<polygon fill="#000000" stroke="#000000" points="359.4569,-830.2176 368.0229,-823.9827 357.4384,-823.5149 359.4569,-830.2176"/>
<text text-anchor="middle" x="257.1811" y="-872.8444" font-family="Times,serif" font-size="14.00" fill="#c0c0c0">generates</text>
</g>
<!-- DESTsetBYTEBOOOKmarkercapture1 -->
<g id="node34" class="node">
<title>DESTsetBYTEBOOOKmarkercapture1</title>
<ellipse fill="none" stroke="#000000" cx="741.4977" cy="-373.0444" rx="139.9756" ry="18"/>
<text text-anchor="middle" x="741.4977" y="-369.3444" font-family="Times,serif" font-size="14.00" fill="#000000">/set/BYTEBOOOK/marker:capture1</text>
</g>
<!-- button010&#45;&gt;DESTsetBYTEBOOOKmarkercapture1 -->
<g id="edge42" class="edge">
<title>button010&#45;&gt;DESTsetBYTEBOOOKmarkercapture1</title>
<path fill="none" stroke="#000000" d="M481.542,-507.3192C515.2874,-497.1559 555.7312,-480.2333 583.7601,-453.0444 597.7531,-439.4707 587.0188,-425.8015 601.7601,-413.0444 613.1082,-403.2237 626.7253,-395.8071 640.9448,-390.2078"/>
<polygon fill="#000000" stroke="#000000" points="642.157,-393.4912 650.3581,-386.7836 639.7641,-386.9129 642.157,-393.4912"/>
<text text-anchor="middle" x="569.7601" y="-477.8444" font-family="Times,serif" font-size="14.00" fill="#000000">+=2</text>
</g>
<!-- DESTsetBYTEBOOOKmarkercapture2 -->
<g id="node35" class="node">
<title>DESTsetBYTEBOOOKmarkercapture2</title>
<ellipse fill="none" stroke="#000000" cx="741.4977" cy="-449.0444" rx="139.9756" ry="18"/>
<text text-anchor="middle" x="741.4977" y="-445.3444" font-family="Times,serif" font-size="14.00" fill="#000000">/set/BYTEBOOOK/marker:capture2</text>
</g>
<!-- button010&#45;&gt;DESTsetBYTEBOOOKmarkercapture2 -->
<g id="edge43" class="edge">
<title>button010&#45;&gt;DESTsetBYTEBOOOKmarkercapture2</title>
<path fill="none" stroke="#000000" d="M464.8664,-536.982C500.2438,-546.3726 549.0266,-552.3627 583.7601,-529.0444 601.3022,-517.2675 585.838,-498.9335 601.7601,-485.0444 611.1449,-476.8578 622.154,-470.4932 633.8028,-465.5516"/>
<polygon fill="#000000" stroke="#000000" points="635.2033,-468.7626 643.2633,-461.886 632.6742,-462.2354 635.2033,-468.7626"/>
<text text-anchor="middle" x="569.7601" y="-545.8444" font-family="Times,serif" font-size="14.00" fill="#000000">+= 2</text>
</g>
<!-- button110&#45;&gt;DESTsetBYTEBOOOKmarkercapture1 -->
<g id="edge45" class="edge">
<title>button110&#45;&gt;DESTsetBYTEBOOOKmarkercapture1</title>
<path fill="none" stroke="#000000" d="M495.6639,-395.2046C510.6776,-390.0053 525.5449,-382.8602 537.7601,-373.0444 550.4799,-362.823 541.6744,-349.2824 555.7601,-341.0444 576.2853,-329.0402 633.3695,-340.9798 678.8868,-353.5454"/>
<polygon fill="#000000" stroke="#000000" points="678.126,-356.9673 688.7005,-356.3124 680.0256,-350.23 678.126,-356.9673"/>
<text text-anchor="middle" x="569.7601" y="-344.8444" font-family="Times,serif" font-size="14.00" fill="#000000">+=2</text>
</g>
<!-- button110&#45;&gt;DESTsetBYTEBOOOKmarkercapture2 -->
<g id="edge46" class="edge">
<title>button110&#45;&gt;DESTsetBYTEBOOOKmarkercapture2</title>
<path fill="none" stroke="#000000" d="M511.3197,-420.4532C548.4368,-425.0637 591.6081,-430.4261 630.4677,-435.253"/>
<polygon fill="#000000" stroke="#000000" points="630.4194,-438.7738 640.7746,-436.5332 631.2823,-431.8272 630.4194,-438.7738"/>
<text text-anchor="middle" x="569.7601" y="-432.8444" font-family="Times,serif" font-size="14.00" fill="#000000">+= 2</text>
</g>
<!-- button210&#45;&gt;DESTsetBYTEBOOOKmarkercapture1 -->
<g id="edge48" class="edge">
<title>button210&#45;&gt;DESTsetBYTEBOOOKmarkercapture1</title>
<path fill="none" stroke="#000000" d="M455.028,-320.3609C489.6549,-306.6808 542.8955,-292.6121 583.7601,-313.0444 595.6858,-319.0072 590.6788,-329.6293 601.7601,-337.0444 613.6865,-345.0249 627.2718,-351.2364 641.1766,-356.0711"/>
<polygon fill="#000000" stroke="#000000" points="640.2456,-359.4485 650.8376,-359.203 642.4043,-352.7897 640.2456,-359.4485"/>
<text text-anchor="middle" x="569.7601" y="-316.8444" font-family="Times,serif" font-size="14.00" fill="#000000">+=2</text>
</g>
<!-- button210&#45;&gt;DESTsetBYTEBOOOKmarkercapture2 -->
<g id="edge49" class="edge">
<title>button210&#45;&gt;DESTsetBYTEBOOOKmarkercapture2</title>
<path fill="none" stroke="#000000" d="M475.7232,-351.4579C495.6536,-357.269 518.0211,-364.6077 537.7601,-373.0444 567.7696,-385.8707 571.6449,-396.468 601.7601,-409.0444 621.661,-417.3551 643.8485,-424.575 664.5778,-430.5061"/>
<polygon fill="#000000" stroke="#000000" points="663.7287,-433.9029 674.3019,-433.2263 665.6145,-427.1617 663.7287,-433.9029"/>
<text text-anchor="middle" x="569.7601" y="-403.8444" font-family="Times,serif" font-size="14.00" fill="#000000">+= 2</text>
</g>
</g>
</svg>
