<?xml version="1.0" encoding="UTF-8" standalone="no"?>
<!DOCTYPE svg PUBLIC "-//W3C//DTD SVG 1.1//EN"
 "http://www.w3.org/Graphics/SVG/1.1/DTD/svg11.dtd">
<!-- Generated by graphviz version 2.40.1 (20161225.0304)
 -->
<!-- Title: permutations Pages: 1 -->
<svg width="1568pt" height="1305pt"
 viewBox="0.00 0.00 1567.60 1305.00" xmlns="http://www.w3.org/2000/svg" xmlns:xlink="http://www.w3.org/1999/xlink">
<g id="graph0" class="graph" transform="scale(1 1) rotate(0) translate(4 1301)">
<title>permutations</title>
<polygon fill="#ffffff" stroke="transparent" points="-4,4 -4,-1301 1563.5975,-1301 1563.5975,4 -4,4"/>
<text text-anchor="middle" x="779.7987" y="-1281.8" font-family="Times,serif" font-size="14.00" fill="#000000">machine.xml@4704174258372acf9ae7b7f91dbe4fa54b17375e</text>
<!-- reality -->
<g id="node1" class="node">
<title>reality</title>
<ellipse fill="none" stroke="#ff0000" cx="741.4977" cy="-930" rx="33.2948" ry="18"/>
<text text-anchor="middle" x="741.4977" y="-926.3" font-family="Times,serif" font-size="14.00" fill="#ff0000">reality</text>
</g>
<!-- capture3 -->
<g id="node12" class="node">
<title>capture3</title>
<ellipse fill="none" stroke="#000000" cx="1147.9262" cy="-876" rx="44.5955" ry="48.5816"/>
<text text-anchor="middle" x="1147.9262" y="-895.3" font-family="Times,serif" font-size="14.00" fill="#000000">capture3</text>
<text text-anchor="middle" x="1147.9262" y="-880.3" font-family="Times,serif" font-size="14.00" fill="#000000">slurp</text>
<text text-anchor="middle" x="1147.9262" y="-849.3" font-family="Times,serif" font-size="14.00" fill="#000000">gphoto2</text>
</g>
<!-- reality&#45;&gt;capture3 -->
<g id="edge35" class="edge">
<title>reality&#45;&gt;capture3</title>
<path fill="none" stroke="#ff0000" d="M773.7292,-925.7176C843.1901,-916.4887 1007.6453,-894.6384 1093.5458,-883.2252"/>
<polygon fill="#ff0000" stroke="#ff0000" points="1094.1685,-886.6733 1103.6204,-881.8867 1093.2465,-879.7343 1094.1685,-886.6733"/>
<text text-anchor="middle" x="963.2353" y="-911.8" font-family="Times,serif" font-size="14.00" fill="#ff0000">sources</text>
</g>
<!-- capture4 -->
<g id="node15" class="node">
<title>capture4</title>
<ellipse fill="none" stroke="#000000" cx="1147.9262" cy="-697" rx="44.5955" ry="48.5816"/>
<text text-anchor="middle" x="1147.9262" y="-716.3" font-family="Times,serif" font-size="14.00" fill="#000000">capture4</text>
<text text-anchor="middle" x="1147.9262" y="-701.3" font-family="Times,serif" font-size="14.00" fill="#000000">slurp</text>
<text text-anchor="middle" x="1147.9262" y="-670.3" font-family="Times,serif" font-size="14.00" fill="#000000">gphoto2</text>
</g>
<!-- reality&#45;&gt;capture4 -->
<g id="edge38" class="edge">
<title>reality&#45;&gt;capture4</title>
<path fill="none" stroke="#ff0000" d="M774.4215,-927.2637C804.3816,-923.4565 848.7576,-914.4084 881.2353,-893 892.0731,-885.856 888.4264,-877.1876 899.2353,-870 948.3456,-837.3428 979.1011,-869.0796 1027.2353,-835 1038.7059,-826.8787 1036.4658,-819.983 1045.2353,-809 1064.8799,-784.3971 1088.5262,-758.3923 1108.1738,-737.6397"/>
<polygon fill="#ff0000" stroke="#ff0000" points="1110.855,-739.8994 1115.2166,-730.2439 1105.7858,-735.072 1110.855,-739.8994"/>
<text text-anchor="middle" x="963.2353" y="-873.8" font-family="Times,serif" font-size="14.00" fill="#ff0000">sources</text>
</g>
<!-- BYTEBOOOK -->
<g id="node2" class="node">
<title>BYTEBOOOK</title>
<ellipse fill="none" stroke="#ff0000" cx="741.4977" cy="-54" rx="64.9885" ry="18"/>
<text text-anchor="middle" x="741.4977" y="-50.3" font-family="Times,serif" font-size="14.00" fill="#000000">BYTEBOOOK</text>
</g>
<!-- capture1 -->
<g id="node5" class="node">
<title>capture1</title>
<ellipse fill="none" stroke="#000000" cx="1147.9262" cy="-275" rx="70.922" ry="48.1667"/>
<text text-anchor="middle" x="1147.9262" y="-293.8" font-family="Times,serif" font-size="14.00" fill="#000000">capture1</text>
<text text-anchor="middle" x="1147.9262" y="-278.8" font-family="Times,serif" font-size="14.00" fill="#000000">slurp</text>
<text text-anchor="middle" x="1147.9262" y="-263.8" font-family="Times,serif" font-size="14.00" fill="#000000">BYTEBOOOK</text>
<text text-anchor="middle" x="1147.9262" y="-248.8" font-family="Times,serif" font-size="14.00" fill="#000000">generic</text>
</g>
<!-- BYTEBOOOK&#45;&gt;capture1 -->
<g id="edge29" class="edge">
<title>BYTEBOOOK&#45;&gt;capture1</title>
<path fill="none" stroke="#ff0000" d="M805.8513,-56.9427C879.3432,-61.5187 993.7512,-72.7284 1027.2353,-99 1043.535,-111.7888 1034.8158,-124.0928 1045.2353,-142 1062.3049,-171.3363 1085.0701,-201.4787 1104.828,-225.635"/>
<polygon fill="#ff0000" stroke="#ff0000" points="1102.3322,-228.1092 1111.4006,-233.5878 1107.728,-223.6498 1102.3322,-228.1092"/>
<text text-anchor="middle" x="963.2353" y="-102.8" font-family="Times,serif" font-size="14.00" fill="#ff0000">sources</text>
</g>
<!-- capture2 -->
<g id="node9" class="node">
<title>capture2</title>
<ellipse fill="none" stroke="#000000" cx="1147.9262" cy="-76" rx="70.922" ry="48.1667"/>
<text text-anchor="middle" x="1147.9262" y="-94.8" font-family="Times,serif" font-size="14.00" fill="#000000">capture2</text>
<text text-anchor="middle" x="1147.9262" y="-79.8" font-family="Times,serif" font-size="14.00" fill="#000000">slurp</text>
<text text-anchor="middle" x="1147.9262" y="-64.8" font-family="Times,serif" font-size="14.00" fill="#000000">BYTEBOOOK</text>
<text text-anchor="middle" x="1147.9262" y="-49.8" font-family="Times,serif" font-size="14.00" fill="#000000">generic</text>
</g>
<!-- BYTEBOOOK&#45;&gt;capture2 -->
<g id="edge32" class="edge">
<title>BYTEBOOOK&#45;&gt;capture2</title>
<path fill="none" stroke="#ff0000" d="M800.319,-46.329C858.2759,-40.089 949.2194,-33.8331 1027.2353,-44 1042.4879,-45.9877 1058.5574,-49.332 1073.8192,-53.1281"/>
<polygon fill="#ff0000" stroke="#ff0000" points="1073.158,-56.5719 1083.7151,-55.6782 1074.9049,-49.7934 1073.158,-56.5719"/>
<text text-anchor="middle" x="963.2353" y="-47.8" font-family="Times,serif" font-size="14.00" fill="#ff0000">sources</text>
</g>
<!-- viewer_gui_kv_py_gsl -->
<g id="node3" class="node">
<title>viewer_gui_kv_py_gsl</title>
<ellipse fill="none" stroke="#000000" stroke-dasharray="1,5" cx="1147.9262" cy="-546" rx="84.485" ry="18"/>
<text text-anchor="middle" x="1147.9262" y="-542.3" font-family="Times,serif" font-size="14.00" fill="#c0c0c0">viewer&#45;gui&#45;kv.py.gsl</text>
</g>
<!-- viewer00 -->
<g id="node4" class="node">
<title>viewer00</title>
<ellipse fill="none" stroke="#000000" cx="1449.1073" cy="-410" rx="91.784" ry="18"/>
<text text-anchor="middle" x="1449.1073" y="-406.3" font-family="Times,serif" font-size="14.00" fill="#000000">viewer&#45;gui&#45;kv.py.gsl&#45;0</text>
</g>
<!-- viewer_gui_kv_py_gsl&#45;&gt;viewer00 -->
<g id="edge1" class="edge">
<title>viewer_gui_kv_py_gsl&#45;&gt;viewer00</title>
<path fill="none" stroke="#000000" stroke-dasharray="1,5" d="M1200.2193,-531.7827C1236.6823,-520.018 1284.9893,-500.5646 1320.6171,-472 1331.2992,-463.4356 1327.5941,-455.121 1338.6171,-447 1350.1958,-438.4696 1363.8648,-431.8236 1377.5701,-426.6733"/>
<polygon fill="#000000" stroke="#000000" points="1378.7674,-429.9624 1387.0389,-423.3418 1376.4441,-423.3592 1378.7674,-429.9624"/>
<text text-anchor="middle" x="1294.6171" y="-506.8" font-family="Times,serif" font-size="14.00" fill="#c0c0c0">generates</text>
</g>
<!-- viewer01 -->
<g id="node8" class="node">
<title>viewer01</title>
<ellipse fill="none" stroke="#000000" cx="1449.1073" cy="-336" rx="91.784" ry="18"/>
<text text-anchor="middle" x="1449.1073" y="-332.3" font-family="Times,serif" font-size="14.00" fill="#000000">viewer&#45;gui&#45;kv.py.gsl&#45;1</text>
</g>
<!-- viewer_gui_kv_py_gsl&#45;&gt;viewer01 -->
<g id="edge5" class="edge">
<title>viewer_gui_kv_py_gsl&#45;&gt;viewer01</title>
<path fill="none" stroke="#000000" stroke-dasharray="1,5" d="M1173.3771,-528.6519C1195.9448,-512.2635 1228.6428,-485.9335 1250.6171,-457 1261.9198,-442.1177 1256.2817,-433.0383 1268.6171,-419 1293.03,-391.2167 1305.3347,-390.1303 1338.6171,-374 1354.1816,-366.4566 1371.6353,-359.7226 1387.993,-354.0957"/>
<polygon fill="#000000" stroke="#000000" points="1389.1086,-357.4132 1397.4749,-350.9128 1386.8809,-350.7771 1389.1086,-357.4132"/>
<text text-anchor="middle" x="1294.6171" y="-422.8" font-family="Times,serif" font-size="14.00" fill="#c0c0c0">generates</text>
</g>
<!-- viewer02 -->
<g id="node11" class="node">
<title>viewer02</title>
<ellipse fill="none" stroke="#000000" cx="1449.1073" cy="-894" rx="91.784" ry="18"/>
<text text-anchor="middle" x="1449.1073" y="-890.3" font-family="Times,serif" font-size="14.00" fill="#000000">viewer&#45;gui&#45;kv.py.gsl&#45;2</text>
</g>
<!-- viewer_gui_kv_py_gsl&#45;&gt;viewer02 -->
<g id="edge9" class="edge">
<title>viewer_gui_kv_py_gsl&#45;&gt;viewer02</title>
<path fill="none" stroke="#000000" stroke-dasharray="1,5" d="M1178.4519,-562.9249C1201.9274,-577.5763 1233.2024,-600.9632 1250.6171,-630 1271.8221,-665.3567 1253.8152,-682.5207 1268.6171,-721 1271.3365,-728.0695 1333.0768,-832.8349 1338.6171,-838 1354.7709,-853.06 1375.745,-865.049 1395.0724,-874.0073"/>
<polygon fill="#000000" stroke="#000000" points="1393.8409,-877.2902 1404.3998,-878.1618 1396.689,-870.8958 1393.8409,-877.2902"/>
<text text-anchor="middle" x="1294.6171" y="-812.8" font-family="Times,serif" font-size="14.00" fill="#c0c0c0">generates</text>
</g>
<!-- viewer03 -->
<g id="node14" class="node">
<title>viewer03</title>
<ellipse fill="none" stroke="#000000" cx="1449.1073" cy="-690" rx="91.784" ry="18"/>
<text text-anchor="middle" x="1449.1073" y="-686.3" font-family="Times,serif" font-size="14.00" fill="#000000">viewer&#45;gui&#45;kv.py.gsl&#45;3</text>
</g>
<!-- viewer_gui_kv_py_gsl&#45;&gt;viewer03 -->
<g id="edge13" class="edge">
<title>viewer_gui_kv_py_gsl&#45;&gt;viewer03</title>
<path fill="none" stroke="#000000" stroke-dasharray="1,5" d="M1168.3508,-563.498C1196.8359,-587.6182 1247.3813,-629.3202 1268.6171,-640 1300.6022,-656.0859 1338.4633,-667.5841 1371.2284,-675.4653"/>
<polygon fill="#000000" stroke="#000000" points="1370.6874,-678.933 1381.2211,-677.7962 1372.2776,-672.116 1370.6874,-678.933"/>
<text text-anchor="middle" x="1294.6171" y="-663.8" font-family="Times,serif" font-size="14.00" fill="#c0c0c0">generates</text>
</g>
<!-- capture1&#45;&gt;viewer00 -->
<g id="edge2" class="edge">
<title>capture1&#45;&gt;viewer00</title>
<path fill="none" stroke="#000000" d="M1215.96,-288.8635C1250.3479,-298.5934 1290.9583,-314.5487 1320.6171,-340 1333.0004,-350.6266 1326.0823,-361.5525 1338.6171,-372 1349.6318,-381.1806 1362.9879,-388.1885 1376.5525,-393.5237"/>
<polygon fill="#000000" stroke="#000000" points="1375.3567,-396.813 1385.9505,-396.9561 1377.7582,-390.2378 1375.3567,-396.813"/>
<text text-anchor="middle" x="1294.6171" y="-343.8" font-family="Times,serif" font-size="14.00" fill="#000000">filter</text>
</g>
<!-- viewer10 -->
<g id="node7" class="node">
<title>viewer10</title>
<ellipse fill="none" stroke="#000000" cx="1449.1073" cy="-260" rx="110.4804" ry="18"/>
<text text-anchor="middle" x="1449.1073" y="-256.3" font-family="Times,serif" font-size="14.00" fill="#000000">viewer&#45;terminal&#45;cli.py.gsl&#45;0</text>
</g>
<!-- capture1&#45;&gt;viewer10 -->
<g id="edge4" class="edge">
<title>capture1&#45;&gt;viewer10</title>
<path fill="none" stroke="#000000" d="M1205.8736,-247.417C1225.3575,-239.5117 1247.512,-231.9644 1268.6171,-228 1311.3575,-219.9716 1359.8974,-229.6323 1395.8667,-240.385"/>
<polygon fill="#000000" stroke="#000000" points="1395.075,-243.8041 1405.6633,-243.433 1397.1546,-237.1202 1395.075,-243.8041"/>
<text text-anchor="middle" x="1294.6171" y="-231.8" font-family="Times,serif" font-size="14.00" fill="#000000">filter</text>
</g>
<!-- viewer_terminal_cli_py_gsl -->
<g id="node6" class="node">
<title>viewer_terminal_cli_py_gsl</title>
<ellipse fill="none" stroke="#000000" stroke-dasharray="1,5" cx="1147.9262" cy="-421" rx="102.8821" ry="18"/>
<text text-anchor="middle" x="1147.9262" y="-417.3" font-family="Times,serif" font-size="14.00" fill="#c0c0c0">viewer&#45;terminal&#45;cli.py.gsl</text>
</g>
<!-- viewer_terminal_cli_py_gsl&#45;&gt;viewer10 -->
<g id="edge3" class="edge">
<title>viewer_terminal_cli_py_gsl&#45;&gt;viewer10</title>
<path fill="none" stroke="#000000" stroke-dasharray="1,5" d="M1178.9895,-403.778C1201.8126,-389.6528 1231.9743,-367.6746 1250.6171,-341 1265.5932,-319.5717 1248.6002,-301.8161 1268.6171,-285 1286.4198,-270.044 1308.8779,-261.6152 1331.8508,-257.1985"/>
<polygon fill="#000000" stroke="#000000" points="1332.4325,-260.6499 1341.7158,-255.5439 1331.2746,-253.7463 1332.4325,-260.6499"/>
<text text-anchor="middle" x="1294.6171" y="-288.8" font-family="Times,serif" font-size="14.00" fill="#c0c0c0">generates</text>
</g>
<!-- viewer11 -->
<g id="node10" class="node">
<title>viewer11</title>
<ellipse fill="none" stroke="#000000" cx="1449.1073" cy="-136" rx="110.4804" ry="18"/>
<text text-anchor="middle" x="1449.1073" y="-132.3" font-family="Times,serif" font-size="14.00" fill="#000000">viewer&#45;terminal&#45;cli.py.gsl&#45;1</text>
</g>
<!-- viewer_terminal_cli_py_gsl&#45;&gt;viewer11 -->
<g id="edge7" class="edge">
<title>viewer_terminal_cli_py_gsl&#45;&gt;viewer11</title>
<path fill="none" stroke="#000000" stroke-dasharray="1,5" d="M1181.9098,-403.8249C1205.2674,-390.1298 1234.8148,-368.6714 1250.6171,-341 1281.5087,-286.9056 1229.7141,-250.6523 1268.6171,-202 1289.6716,-175.6691 1322.2254,-159.8418 1353.9202,-150.3286"/>
<polygon fill="#000000" stroke="#000000" points="1355.0361,-153.6506 1363.7153,-147.5743 1353.1412,-146.912 1355.0361,-153.6506"/>
<text text-anchor="middle" x="1294.6171" y="-205.8" font-family="Times,serif" font-size="14.00" fill="#c0c0c0">generates</text>
</g>
<!-- viewer12 -->
<g id="node13" class="node">
<title>viewer12</title>
<ellipse fill="none" stroke="#000000" cx="1449.1073" cy="-802" rx="110.4804" ry="18"/>
<text text-anchor="middle" x="1449.1073" y="-798.3" font-family="Times,serif" font-size="14.00" fill="#000000">viewer&#45;terminal&#45;cli.py.gsl&#45;2</text>
</g>
<!-- viewer_terminal_cli_py_gsl&#45;&gt;viewer12 -->
<g id="edge11" class="edge">
<title>viewer_terminal_cli_py_gsl&#45;&gt;viewer12</title>
<path fill="none" stroke="#000000" stroke-dasharray="1,5" d="M1169.003,-438.81C1189.9243,-456.5951 1222.8015,-484.8322 1250.6171,-510 1258.7767,-517.3829 1260.069,-520.0706 1268.6171,-527 1290.4529,-544.7008 1306.2226,-538.8562 1320.6171,-563 1357.9408,-625.603 1301.1988,-663.4535 1338.6171,-726 1352.8623,-749.8117 1377.7908,-767.9242 1400.368,-780.4832"/>
<polygon fill="#000000" stroke="#000000" points="1398.7329,-783.5778 1409.2042,-785.1914 1402.0246,-777.4 1398.7329,-783.5778"/>
<text text-anchor="middle" x="1294.6171" y="-566.8" font-family="Times,serif" font-size="14.00" fill="#c0c0c0">generates</text>
</g>
<!-- viewer13 -->
<g id="node16" class="node">
<title>viewer13</title>
<ellipse fill="none" stroke="#000000" cx="1449.1073" cy="-483" rx="110.4804" ry="18"/>
<text text-anchor="middle" x="1449.1073" y="-479.3" font-family="Times,serif" font-size="14.00" fill="#000000">viewer&#45;terminal&#45;cli.py.gsl&#45;3</text>
</g>
<!-- viewer_terminal_cli_py_gsl&#45;&gt;viewer13 -->
<g id="edge15" class="edge">
<title>viewer_terminal_cli_py_gsl&#45;&gt;viewer13</title>
<path fill="none" stroke="#000000" stroke-dasharray="1,5" d="M1222.4893,-433.3924C1252.989,-438.7193 1288.5725,-445.2644 1320.6171,-452 1339.8359,-456.0397 1360.5649,-460.843 1379.6464,-465.4478"/>
<polygon fill="#000000" stroke="#000000" points="1378.9142,-468.8717 1389.4579,-467.8327 1380.5675,-462.0697 1378.9142,-468.8717"/>
<text text-anchor="middle" x="1294.6171" y="-455.8" font-family="Times,serif" font-size="14.00" fill="#c0c0c0">generates</text>
</g>
<!-- capture2&#45;&gt;viewer01 -->
<g id="edge6" class="edge">
<title>capture2&#45;&gt;viewer01</title>
<path fill="none" stroke="#000000" d="M1218.6497,-74.1193C1254.4422,-77.1494 1295.5152,-87.462 1320.6171,-116 1347.1671,-146.1844 1313.9206,-264.2812 1338.6171,-296 1346.8566,-306.5824 1358.151,-314.3675 1370.3877,-320.0942"/>
<polygon fill="#000000" stroke="#000000" points="1369.3187,-323.4413 1379.894,-324.0844 1372.028,-316.9868 1369.3187,-323.4413"/>
<text text-anchor="middle" x="1294.6171" y="-119.8" font-family="Times,serif" font-size="14.00" fill="#000000">filter</text>
</g>
<!-- capture2&#45;&gt;viewer11 -->
<g id="edge8" class="edge">
<title>capture2&#45;&gt;viewer11</title>
<path fill="none" stroke="#000000" d="M1214.082,-58.9618C1246.6459,-53.3134 1286.2022,-50.584 1320.6171,-60 1357.5144,-70.0952 1394.5771,-93.813 1419.3493,-112.0893"/>
<polygon fill="#000000" stroke="#000000" points="1417.487,-115.0687 1427.5785,-118.2957 1421.702,-109.4799 1417.487,-115.0687"/>
<text text-anchor="middle" x="1294.6171" y="-63.8" font-family="Times,serif" font-size="14.00" fill="#000000">filter</text>
</g>
<!-- capture3&#45;&gt;viewer02 -->
<g id="edge10" class="edge">
<title>capture3&#45;&gt;viewer02</title>
<path fill="none" stroke="#000000" d="M1192.6908,-878.6753C1234.333,-881.1641 1297.8055,-884.9575 1351.1798,-888.1474"/>
<polygon fill="#000000" stroke="#000000" points="1351.1742,-891.6532 1361.3652,-888.7561 1351.5919,-884.6657 1351.1742,-891.6532"/>
<text text-anchor="middle" x="1294.6171" y="-890.8" font-family="Times,serif" font-size="14.00" fill="#000000">filter</text>
</g>
<!-- capture3&#45;&gt;viewer12 -->
<g id="edge12" class="edge">
<title>capture3&#45;&gt;viewer12</title>
<path fill="none" stroke="#000000" d="M1191.3988,-865.3188C1240.215,-853.3247 1320.1679,-833.6803 1378.0879,-819.4494"/>
<polygon fill="#000000" stroke="#000000" points="1379.0325,-822.8215 1387.9086,-817.0365 1377.3623,-816.0237 1379.0325,-822.8215"/>
<text text-anchor="middle" x="1294.6171" y="-849.8" font-family="Times,serif" font-size="14.00" fill="#000000">filter</text>
</g>
<!-- capture4&#45;&gt;viewer03 -->
<g id="edge14" class="edge">
<title>capture4&#45;&gt;viewer03</title>
<path fill="none" stroke="#000000" d="M1192.6602,-697.242C1227.5286,-697.3094 1277.1588,-697.14 1320.6171,-696 1330.2443,-695.7475 1340.2742,-695.4097 1350.298,-695.0227"/>
<polygon fill="#000000" stroke="#000000" points="1350.4532,-698.5194 1360.3046,-694.6205 1350.172,-691.525 1350.4532,-698.5194"/>
<text text-anchor="middle" x="1294.6171" y="-700.8" font-family="Times,serif" font-size="14.00" fill="#000000">filter</text>
</g>
<!-- capture4&#45;&gt;viewer13 -->
<g id="edge16" class="edge">
<title>capture4&#45;&gt;viewer13</title>
<path fill="none" stroke="#000000" d="M1186.6446,-671.9179C1233.5909,-641.4662 1308.0304,-593.0391 1320.6171,-584 1355.5544,-558.9098 1394.1706,-528.1182 1419.8576,-507.1756"/>
<polygon fill="#000000" stroke="#000000" points="1422.1983,-509.7827 1427.7221,-500.7418 1417.766,-504.3647 1422.1983,-509.7827"/>
<text text-anchor="middle" x="1294.6171" y="-621.8" font-family="Times,serif" font-size="14.00" fill="#000000">filter</text>
</g>
<!-- button_gui_kv_py_gsl -->
<g id="node17" class="node">
<title>button_gui_kv_py_gsl</title>
<ellipse fill="none" stroke="#000000" stroke-dasharray="1,5" cx="106.5905" cy="-413" rx="83.3857" ry="18"/>
<text text-anchor="middle" x="106.5905" y="-409.3" font-family="Times,serif" font-size="14.00" fill="#c0c0c0">button&#45;gui&#45;kv.py.gsl</text>
</g>
<!-- button04 -->
<g id="node18" class="node">
<title>button04</title>
<ellipse fill="none" stroke="#000000" cx="419.4706" cy="-895" rx="90.1842" ry="18"/>
<text text-anchor="middle" x="419.4706" y="-891.3" font-family="Times,serif" font-size="14.00" fill="#000000">button&#45;gui&#45;kv.py.gsl&#45;4</text>
</g>
<!-- button_gui_kv_py_gsl&#45;&gt;button04 -->
<g id="edge17" class="edge">
<title>button_gui_kv_py_gsl&#45;&gt;button04</title>
<path fill="none" stroke="#000000" stroke-dasharray="1,5" d="M114.6916,-430.9993C136.8544,-479.7632 198.9746,-613.1601 231.1811,-649 249.8017,-669.7213 268.8336,-660.1201 283.1811,-684 322.9935,-750.2637 252.4637,-796.979 301.1811,-857 309.9866,-867.8486 321.9097,-875.6401 334.8088,-881.227"/>
<polygon fill="#000000" stroke="#000000" points="333.7541,-884.5717 344.3432,-884.9176 336.281,-878.0437 333.7541,-884.5717"/>
<text text-anchor="middle" x="257.1811" y="-687.8" font-family="Times,serif" font-size="14.00" fill="#c0c0c0">generates</text>
</g>
<!-- button05 -->
<g id="node24" class="node">
<title>button05</title>
<ellipse fill="none" stroke="#000000" cx="419.4706" cy="-92" rx="90.1842" ry="18"/>
<text text-anchor="middle" x="419.4706" y="-88.3" font-family="Times,serif" font-size="14.00" fill="#000000">button&#45;gui&#45;kv.py.gsl&#45;5</text>
</g>
<!-- button_gui_kv_py_gsl&#45;&gt;button05 -->
<g id="edge23" class="edge">
<title>button_gui_kv_py_gsl&#45;&gt;button05</title>
<path fill="none" stroke="#000000" stroke-dasharray="1,5" d="M131.3445,-395.6764C155.9536,-377.1044 192.8784,-345.3385 213.1811,-309 230.9567,-277.1845 216.453,-262.3359 231.1811,-229 253.1053,-179.376 257.396,-161.0325 301.1811,-129 313.7886,-119.7765 328.7584,-112.8087 343.7368,-107.5591"/>
<polygon fill="#000000" stroke="#000000" points="345.1376,-110.7836 353.5562,-104.351 342.9637,-104.1297 345.1376,-110.7836"/>
<text text-anchor="middle" x="257.1811" y="-232.8" font-family="Times,serif" font-size="14.00" fill="#c0c0c0">generates</text>
</g>
<!-- button010 -->
<g id="node33" class="node">
<title>button010</title>
<ellipse fill="none" stroke="#000000" cx="419.4706" cy="-453" rx="94.7833" ry="18"/>
<text text-anchor="middle" x="419.4706" y="-449.3" font-family="Times,serif" font-size="14.00" fill="#000000">button&#45;gui&#45;kv.py.gsl&#45;10</text>
</g>
<!-- button_gui_kv_py_gsl&#45;&gt;button010 -->
<g id="edge41" class="edge">
<title>button_gui_kv_py_gsl&#45;&gt;button010</title>
<path fill="none" stroke="#000000" stroke-dasharray="1,5" d="M178.3715,-422.1768C223.5964,-427.9586 282.3289,-435.4672 330.5025,-441.6259"/>
<polygon fill="#000000" stroke="#000000" points="330.2501,-445.1221 340.6132,-442.9185 331.1378,-438.1786 330.2501,-445.1221"/>
<text text-anchor="middle" x="257.1811" y="-439.8" font-family="Times,serif" font-size="14.00" fill="#c0c0c0">generates</text>
</g>
<!-- button011 -->
<g id="node38" class="node">
<title>button011</title>
<ellipse fill="none" stroke="#000000" cx="419.4706" cy="-381" rx="94.7833" ry="18"/>
<text text-anchor="middle" x="419.4706" y="-377.3" font-family="Times,serif" font-size="14.00" fill="#000000">button&#45;gui&#45;kv.py.gsl&#45;11</text>
</g>
<!-- button_gui_kv_py_gsl&#45;&gt;button011 -->
<g id="edge50" class="edge">
<title>button_gui_kv_py_gsl&#45;&gt;button011</title>
<path fill="none" stroke="#000000" stroke-dasharray="1,5" d="M158.6218,-398.8684C180.8055,-393.4807 207.0831,-387.9339 231.1811,-385 258.0905,-381.7238 287.3189,-380.1502 314.542,-379.5199"/>
<polygon fill="#000000" stroke="#000000" points="314.9368,-383.0131 324.8682,-379.3229 314.8033,-376.0143 314.9368,-383.0131"/>
<text text-anchor="middle" x="257.1811" y="-388.8" font-family="Times,serif" font-size="14.00" fill="#c0c0c0">generates</text>
</g>
<!-- DEST1 -->
<g id="node19" class="node">
<title>DEST1</title>
<ellipse fill="none" stroke="#000000" cx="741.4977" cy="-857" rx="27" ry="18"/>
<text text-anchor="middle" x="741.4977" y="-853.3" font-family="Times,serif" font-size="14.00" fill="#000000">/1</text>
</g>
<!-- button04&#45;&gt;DEST1 -->
<g id="edge18" class="edge">
<title>button04&#45;&gt;DEST1</title>
<path fill="none" stroke="#000000" d="M497.4244,-885.8013C563.1137,-878.0498 654.2021,-867.3011 704.4695,-861.3694"/>
<polygon fill="#000000" stroke="#000000" points="705.0317,-864.8274 714.5526,-860.1796 704.2113,-857.8757 705.0317,-864.8274"/>
<text text-anchor="middle" x="569.7601" y="-882.8" font-family="Times,serif" font-size="14.00" fill="#000000">1</text>
</g>
<!-- DEST1&#45;&gt;capture1 -->
<g id="edge31" class="edge">
<title>DEST1&#45;&gt;capture1</title>
<path fill="none" stroke="#000000" d="M761.7111,-844.799C816.0453,-810.7398 965.3089,-708.5773 1027.2353,-579 1064.5739,-500.8712 1009.7854,-464.0036 1045.2353,-385 1056.4242,-360.0643 1075.617,-337.1393 1094.4038,-318.7457"/>
<polygon fill="#000000" stroke="#000000" points="1097.0121,-321.0951 1101.8441,-311.6663 1092.1868,-316.0239 1097.0121,-321.0951"/>
<text text-anchor="middle" x="963.2353" y="-742.8" font-family="Times,serif" font-size="14.00" fill="#000000">create_glworb capture1</text>
</g>
<!-- DEST1&#45;&gt;capture3 -->
<g id="edge37" class="edge">
<title>DEST1&#45;&gt;capture3</title>
<path fill="none" stroke="#000000" d="M764.7227,-847.6863C813.7387,-829.315 931.1507,-792.0978 1027.2353,-815 1052.8136,-821.0967 1079.1118,-833.5346 1100.6043,-845.5981"/>
<polygon fill="#000000" stroke="#000000" points="1099.0928,-848.7666 1109.505,-850.7257 1102.5871,-842.7011 1099.0928,-848.7666"/>
<text text-anchor="middle" x="963.2353" y="-818.8" font-family="Times,serif" font-size="14.00" fill="#000000">create_glworb capture3</text>
</g>
<!-- button_terminal_curt_py_gsl -->
<g id="node20" class="node">
<title>button_terminal_curt_py_gsl</title>
<ellipse fill="none" stroke="#000000" stroke-dasharray="1,5" cx="106.5905" cy="-661" rx="106.6812" ry="18"/>
<text text-anchor="middle" x="106.5905" y="-657.3" font-family="Times,serif" font-size="14.00" fill="#c0c0c0">button&#45;terminal&#45;curt.py.gsl</text>
</g>
<!-- button14 -->
<g id="node21" class="node">
<title>button14</title>
<ellipse fill="none" stroke="#000000" cx="419.4706" cy="-968" rx="113.9803" ry="18"/>
<text text-anchor="middle" x="419.4706" y="-964.3" font-family="Times,serif" font-size="14.00" fill="#000000">button&#45;terminal&#45;curt.py.gsl&#45;4</text>
</g>
<!-- button_terminal_curt_py_gsl&#45;&gt;button14 -->
<g id="edge19" class="edge">
<title>button_terminal_curt_py_gsl&#45;&gt;button14</title>
<path fill="none" stroke="#000000" stroke-dasharray="1,5" d="M114.5859,-679.2001C136.8149,-727.6881 204.1668,-861.0455 301.1811,-931 312.4167,-939.1017 325.4815,-945.4685 338.7452,-950.4606"/>
<polygon fill="#000000" stroke="#000000" points="337.8202,-953.8453 348.415,-953.8578 340.1405,-947.241 337.8202,-953.8453"/>
<text text-anchor="middle" x="257.1811" y="-918.8" font-family="Times,serif" font-size="14.00" fill="#c0c0c0">generates</text>
</g>
<!-- button15 -->
<g id="node26" class="node">
<title>button15</title>
<ellipse fill="none" stroke="#000000" cx="419.4706" cy="-165" rx="113.9803" ry="18"/>
<text text-anchor="middle" x="419.4706" y="-161.3" font-family="Times,serif" font-size="14.00" fill="#000000">button&#45;terminal&#45;curt.py.gsl&#45;5</text>
</g>
<!-- button_terminal_curt_py_gsl&#45;&gt;button15 -->
<g id="edge25" class="edge">
<title>button_terminal_curt_py_gsl&#45;&gt;button15</title>
<path fill="none" stroke="#000000" stroke-dasharray="1,5" d="M125.0531,-643.1196C166.5973,-602.424 265.2123,-503.0858 283.1811,-460 305.3885,-406.7508 265.2464,-246.1369 301.1811,-201 307.7163,-192.7912 316.0683,-186.4047 325.3049,-181.4439"/>
<polygon fill="#000000" stroke="#000000" points="326.8781,-184.5714 334.4014,-177.1115 323.8681,-178.2515 326.8781,-184.5714"/>
<text text-anchor="middle" x="257.1811" y="-531.8" font-family="Times,serif" font-size="14.00" fill="#c0c0c0">generates</text>
</g>
<!-- button110 -->
<g id="node36" class="node">
<title>button110</title>
<ellipse fill="none" stroke="#000000" cx="419.4706" cy="-577" rx="118.0794" ry="18"/>
<text text-anchor="middle" x="419.4706" y="-573.3" font-family="Times,serif" font-size="14.00" fill="#000000">button&#45;terminal&#45;curt.py.gsl&#45;10</text>
</g>
<!-- button_terminal_curt_py_gsl&#45;&gt;button110 -->
<g id="edge44" class="edge">
<title>button_terminal_curt_py_gsl&#45;&gt;button110</title>
<path fill="none" stroke="#000000" stroke-dasharray="1,5" d="M124.4012,-642.8706C146.9301,-621.3652 188.0212,-586.7053 231.1811,-573 261.8317,-563.267 296.7238,-561.6033 328.0739,-563.2452"/>
<polygon fill="#000000" stroke="#000000" points="327.9149,-566.742 338.1182,-563.8883 328.3623,-559.7564 327.9149,-566.742"/>
<text text-anchor="middle" x="257.1811" y="-576.8" font-family="Times,serif" font-size="14.00" fill="#c0c0c0">generates</text>
</g>
<!-- button111 -->
<g id="node39" class="node">
<title>button111</title>
<ellipse fill="none" stroke="#000000" cx="419.4706" cy="-745" rx="118.0794" ry="18"/>
<text text-anchor="middle" x="419.4706" y="-741.3" font-family="Times,serif" font-size="14.00" fill="#000000">button&#45;terminal&#45;curt.py.gsl&#45;11</text>
</g>
<!-- button_terminal_curt_py_gsl&#45;&gt;button111 -->
<g id="edge53" class="edge">
<title>button_terminal_curt_py_gsl&#45;&gt;button111</title>
<path fill="none" stroke="#000000" stroke-dasharray="1,5" d="M149.1068,-677.5628C172.985,-686.472 203.4691,-697.1989 231.1811,-705 264.2692,-714.3145 301.1653,-722.6016 333.4677,-729.1831"/>
<polygon fill="#000000" stroke="#000000" points="332.8416,-732.6272 343.3357,-731.1701 334.2234,-725.7649 332.8416,-732.6272"/>
<text text-anchor="middle" x="257.1811" y="-722.8" font-family="Times,serif" font-size="14.00" fill="#c0c0c0">generates</text>
</g>
<!-- button14&#45;&gt;DEST1 -->
<g id="edge20" class="edge">
<title>button14&#45;&gt;DEST1</title>
<path fill="none" stroke="#000000" d="M477.8655,-952.5289C497.2599,-946.6582 518.7471,-939.3466 537.7601,-931 552.8024,-924.3965 586.5752,-900.2687 601.7601,-894 635.7457,-879.97 676.5989,-869.8803 705.328,-863.816"/>
<polygon fill="#000000" stroke="#000000" points="706.2363,-867.2026 715.3287,-861.7641 704.8293,-860.3455 706.2363,-867.2026"/>
<text text-anchor="middle" x="569.7601" y="-924.8" font-family="Times,serif" font-size="14.00" fill="#000000">1</text>
</g>
<!-- button_iot_hmi_c_gsl -->
<g id="node22" class="node">
<title>button_iot_hmi_c_gsl</title>
<ellipse fill="none" stroke="#000000" stroke-dasharray="1,5" cx="106.5905" cy="-273" rx="81.4863" ry="18"/>
<text text-anchor="middle" x="106.5905" y="-269.3" font-family="Times,serif" font-size="14.00" fill="#c0c0c0">button&#45;iot&#45;hmi.c.gsl</text>
</g>
<!-- button24 -->
<g id="node23" class="node">
<title>button24</title>
<ellipse fill="none" stroke="#000000" cx="419.4706" cy="-821" rx="89.0842" ry="18"/>
<text text-anchor="middle" x="419.4706" y="-817.3" font-family="Times,serif" font-size="14.00" fill="#000000">button&#45;iot&#45;hmi.c.gsl&#45;4</text>
</g>
<!-- button_iot_hmi_c_gsl&#45;&gt;button24 -->
<g id="edge21" class="edge">
<title>button_iot_hmi_c_gsl&#45;&gt;button24</title>
<path fill="none" stroke="#000000" stroke-dasharray="1,5" d="M132.8765,-290.1199C158.3175,-308.3104 195.5455,-339.5805 213.1811,-377 254.2496,-464.14 182.4189,-509.9202 231.1811,-593 245.2827,-617.0259 268.6735,-604.217 283.1811,-628 318.8369,-686.4522 258.0798,-727.7997 301.1811,-781 310.6059,-792.6331 323.5545,-800.9008 337.4397,-806.7721"/>
<polygon fill="#000000" stroke="#000000" points="336.5792,-810.1891 347.1704,-810.4659 339.0635,-803.6447 336.5792,-810.1891"/>
<text text-anchor="middle" x="257.1811" y="-631.8" font-family="Times,serif" font-size="14.00" fill="#c0c0c0">generates</text>
</g>
<!-- button25 -->
<g id="node27" class="node">
<title>button25</title>
<ellipse fill="none" stroke="#000000" cx="419.4706" cy="-18" rx="89.0842" ry="18"/>
<text text-anchor="middle" x="419.4706" y="-14.3" font-family="Times,serif" font-size="14.00" fill="#000000">button&#45;iot&#45;hmi.c.gsl&#45;5</text>
</g>
<!-- button_iot_hmi_c_gsl&#45;&gt;button25 -->
<g id="edge27" class="edge">
<title>button_iot_hmi_c_gsl&#45;&gt;button25</title>
<path fill="none" stroke="#000000" stroke-dasharray="1,5" d="M115.554,-255.0961C133.5423,-220.574 176.9964,-143.903 231.1811,-95 264.2735,-65.1332 310.5063,-45.9995 348.8771,-34.2756"/>
<polygon fill="#000000" stroke="#000000" points="350.3556,-37.4889 358.9604,-31.3077 348.379,-30.7738 350.3556,-37.4889"/>
<text text-anchor="middle" x="257.1811" y="-98.8" font-family="Times,serif" font-size="14.00" fill="#c0c0c0">generates</text>
</g>
<!-- button210 -->
<g id="node37" class="node">
<title>button210</title>
<ellipse fill="none" stroke="#000000" cx="419.4706" cy="-309" rx="92.8835" ry="18"/>
<text text-anchor="middle" x="419.4706" y="-305.3" font-family="Times,serif" font-size="14.00" fill="#000000">button&#45;iot&#45;hmi.c.gsl&#45;10</text>
</g>
<!-- button_iot_hmi_c_gsl&#45;&gt;button210 -->
<g id="edge47" class="edge">
<title>button_iot_hmi_c_gsl&#45;&gt;button210</title>
<path fill="none" stroke="#000000" stroke-dasharray="1,5" d="M178.7644,-281.3043C223.5818,-286.461 281.5509,-293.131 329.3702,-298.633"/>
<polygon fill="#000000" stroke="#000000" points="329.0773,-302.1224 339.4119,-299.7884 329.8775,-295.1682 329.0773,-302.1224"/>
<text text-anchor="middle" x="257.1811" y="-297.8" font-family="Times,serif" font-size="14.00" fill="#c0c0c0">generates</text>
</g>
<!-- button211 -->
<g id="node40" class="node">
<title>button211</title>
<ellipse fill="none" stroke="#000000" cx="419.4706" cy="-237" rx="92.8835" ry="18"/>
<text text-anchor="middle" x="419.4706" y="-233.3" font-family="Times,serif" font-size="14.00" fill="#000000">button&#45;iot&#45;hmi.c.gsl&#45;11</text>
</g>
<!-- button_iot_hmi_c_gsl&#45;&gt;button211 -->
<g id="edge56" class="edge">
<title>button_iot_hmi_c_gsl&#45;&gt;button211</title>
<path fill="none" stroke="#000000" stroke-dasharray="1,5" d="M178.7644,-264.6957C223.5818,-259.539 281.5509,-252.869 329.3702,-247.367"/>
<polygon fill="#000000" stroke="#000000" points="329.8775,-250.8318 339.4119,-246.2116 329.0773,-243.8776 329.8775,-250.8318"/>
<text text-anchor="middle" x="257.1811" y="-262.8" font-family="Times,serif" font-size="14.00" fill="#c0c0c0">generates</text>
</g>
<!-- button24&#45;&gt;DEST1 -->
<g id="edge22" class="edge">
<title>button24&#45;&gt;DEST1</title>
<path fill="none" stroke="#000000" d="M497.4244,-829.7146C563.1137,-837.0581 654.2021,-847.2411 704.4695,-852.8606"/>
<polygon fill="#000000" stroke="#000000" points="704.2257,-856.355 714.5526,-853.9878 705.0034,-849.3983 704.2257,-856.355"/>
<text text-anchor="middle" x="569.7601" y="-842.8" font-family="Times,serif" font-size="14.00" fill="#000000">1</text>
</g>
<!-- DEST2 -->
<g id="node25" class="node">
<title>DEST2</title>
<ellipse fill="none" stroke="#000000" cx="741.4977" cy="-129" rx="27" ry="18"/>
<text text-anchor="middle" x="741.4977" y="-125.3" font-family="Times,serif" font-size="14.00" fill="#000000">/2</text>
</g>
<!-- button05&#45;&gt;DEST2 -->
<g id="edge24" class="edge">
<title>button05&#45;&gt;DEST2</title>
<path fill="none" stroke="#000000" d="M509.614,-93.4801C533.7534,-94.5201 559.7968,-96.2256 583.7601,-99 626.0536,-103.8966 674.0282,-113.629 705.8505,-120.684"/>
<polygon fill="#000000" stroke="#000000" points="705.4675,-124.1852 715.9917,-122.9631 707.0025,-117.3555 705.4675,-124.1852"/>
<text text-anchor="middle" x="569.7601" y="-102.8" font-family="Times,serif" font-size="14.00" fill="#000000">1</text>
</g>
<!-- DEST2&#45;&gt;capture2 -->
<g id="edge34" class="edge">
<title>DEST2&#45;&gt;capture2</title>
<path fill="none" stroke="#000000" d="M768.6001,-130.9777C819.7236,-134.0862 933.6668,-138.0475 1027.2353,-120 1044.2598,-116.7163 1062.0746,-111.3692 1078.6297,-105.5149"/>
<polygon fill="#000000" stroke="#000000" points="1080.0191,-108.7338 1088.216,-102.021 1077.6221,-102.1569 1080.0191,-108.7338"/>
<text text-anchor="middle" x="963.2353" y="-136.8" font-family="Times,serif" font-size="14.00" fill="#000000">create_glworb capture2</text>
</g>
<!-- DEST2&#45;&gt;capture4 -->
<g id="edge40" class="edge">
<title>DEST2&#45;&gt;capture4</title>
<path fill="none" stroke="#000000" d="M756.5213,-144.001C783.4426,-171.3353 840.8585,-231.7299 881.2353,-289 967.2259,-410.9682 958.5743,-460.5072 1045.2353,-582 1064.0061,-608.3154 1087.9188,-635.3938 1107.9454,-656.6597"/>
<polygon fill="#000000" stroke="#000000" points="1105.4266,-659.09 1114.8522,-663.9284 1110.5011,-654.2682 1105.4266,-659.09"/>
<text text-anchor="middle" x="963.2353" y="-558.8" font-family="Times,serif" font-size="14.00" fill="#000000">create_glworb capture4</text>
</g>
<!-- button15&#45;&gt;DEST2 -->
<g id="edge26" class="edge">
<title>button15&#45;&gt;DEST2</title>
<path fill="none" stroke="#000000" d="M464.1831,-148.3676C490.4447,-139.4901 524.5171,-129.4901 555.7601,-125 607.1204,-117.6187 667.2787,-121.0941 704.8947,-124.6961"/>
<polygon fill="#000000" stroke="#000000" points="704.579,-128.1819 714.8805,-125.7065 705.2837,-121.2175 704.579,-128.1819"/>
<text text-anchor="middle" x="569.7601" y="-128.8" font-family="Times,serif" font-size="14.00" fill="#000000">1</text>
</g>
<!-- button25&#45;&gt;DEST2 -->
<g id="edge28" class="edge">
<title>button25&#45;&gt;DEST2</title>
<path fill="none" stroke="#000000" d="M468.2586,-33.1519C489.6559,-39.9313 515.0261,-48.1517 537.7601,-56 558.3628,-63.1126 565.2405,-61.5071 583.7601,-73 593.1099,-78.8023 592.1808,-84.585 601.7601,-90 633.9816,-108.2143 675.2564,-118.3684 704.5732,-123.7141"/>
<polygon fill="#000000" stroke="#000000" points="704.3455,-127.2263 714.7941,-125.4721 705.5321,-120.3276 704.3455,-127.2263"/>
<text text-anchor="middle" x="569.7601" y="-76.8" font-family="Times,serif" font-size="14.00" fill="#000000">1</text>
</g>
<!-- slurp_term_cli_py_gsl -->
<g id="node28" class="node">
<title>slurp_term_cli_py_gsl</title>
<ellipse fill="none" stroke="#000000" stroke-dasharray="1,5" cx="106.5905" cy="-1148" rx="83.3857" ry="18"/>
<text text-anchor="middle" x="106.5905" y="-1144.3" font-family="Times,serif" font-size="14.00" fill="#c0c0c0">slurp&#45;term&#45;cli.py.gsl</text>
</g>
<!-- slurp06 -->
<g id="node29" class="node">
<title>slurp06</title>
<ellipse fill="none" stroke="#000000" cx="419.4706" cy="-1256" rx="90.9839" ry="18"/>
<text text-anchor="middle" x="419.4706" y="-1252.3" font-family="Times,serif" font-size="14.00" fill="#000000">slurp&#45;term&#45;cli.py.gsl&#45;6</text>
</g>
<!-- slurp_term_cli_py_gsl&#45;&gt;slurp06 -->
<g id="edge30" class="edge">
<title>slurp_term_cli_py_gsl&#45;&gt;slurp06</title>
<path fill="none" stroke="#000000" stroke-dasharray="1,5" d="M147.3408,-1163.8753C186.5406,-1178.9567 247.5863,-1201.9468 301.1811,-1220 319.6322,-1226.2152 339.8573,-1232.5453 358.2833,-1238.1286"/>
<polygon fill="#000000" stroke="#000000" points="357.4384,-1241.5294 368.0229,-1241.0617 359.4569,-1234.8267 357.4384,-1241.5294"/>
<text text-anchor="middle" x="257.1811" y="-1215.8" font-family="Times,serif" font-size="14.00" fill="#c0c0c0">generates</text>
</g>
<!-- slurp07 -->
<g id="node30" class="node">
<title>slurp07</title>
<ellipse fill="none" stroke="#000000" cx="419.4706" cy="-1184" rx="90.9839" ry="18"/>
<text text-anchor="middle" x="419.4706" y="-1180.3" font-family="Times,serif" font-size="14.00" fill="#000000">slurp&#45;term&#45;cli.py.gsl&#45;7</text>
</g>
<!-- slurp_term_cli_py_gsl&#45;&gt;slurp07 -->
<g id="edge33" class="edge">
<title>slurp_term_cli_py_gsl&#45;&gt;slurp07</title>
<path fill="none" stroke="#000000" stroke-dasharray="1,5" d="M180.3425,-1156.4859C225.3771,-1161.6676 283.241,-1168.3254 330.7677,-1173.7938"/>
<polygon fill="#000000" stroke="#000000" points="330.4096,-1177.2756 340.7442,-1174.9417 331.2098,-1170.3215 330.4096,-1177.2756"/>
<text text-anchor="middle" x="257.1811" y="-1171.8" font-family="Times,serif" font-size="14.00" fill="#c0c0c0">generates</text>
</g>
<!-- slurp08 -->
<g id="node31" class="node">
<title>slurp08</title>
<ellipse fill="none" stroke="#000000" cx="419.4706" cy="-1112" rx="90.9839" ry="18"/>
<text text-anchor="middle" x="419.4706" y="-1108.3" font-family="Times,serif" font-size="14.00" fill="#000000">slurp&#45;term&#45;cli.py.gsl&#45;8</text>
</g>
<!-- slurp_term_cli_py_gsl&#45;&gt;slurp08 -->
<g id="edge36" class="edge">
<title>slurp_term_cli_py_gsl&#45;&gt;slurp08</title>
<path fill="none" stroke="#000000" stroke-dasharray="1,5" d="M180.3425,-1139.5141C225.3771,-1134.3324 283.241,-1127.6746 330.7677,-1122.2062"/>
<polygon fill="#000000" stroke="#000000" points="331.2098,-1125.6785 340.7442,-1121.0583 330.4096,-1118.7244 331.2098,-1125.6785"/>
<text text-anchor="middle" x="257.1811" y="-1136.8" font-family="Times,serif" font-size="14.00" fill="#c0c0c0">generates</text>
</g>
<!-- slurp09 -->
<g id="node32" class="node">
<title>slurp09</title>
<ellipse fill="none" stroke="#000000" cx="419.4706" cy="-1040" rx="90.9839" ry="18"/>
<text text-anchor="middle" x="419.4706" y="-1036.3" font-family="Times,serif" font-size="14.00" fill="#000000">slurp&#45;term&#45;cli.py.gsl&#45;9</text>
</g>
<!-- slurp_term_cli_py_gsl&#45;&gt;slurp09 -->
<g id="edge39" class="edge">
<title>slurp_term_cli_py_gsl&#45;&gt;slurp09</title>
<path fill="none" stroke="#000000" stroke-dasharray="1,5" d="M147.3408,-1132.1247C186.5406,-1117.0433 247.5863,-1094.0532 301.1811,-1076 319.6322,-1069.7848 339.8573,-1063.4547 358.2833,-1057.8714"/>
<polygon fill="#000000" stroke="#000000" points="359.4569,-1061.1733 368.0229,-1054.9383 357.4384,-1054.4706 359.4569,-1061.1733"/>
<text text-anchor="middle" x="257.1811" y="-1103.8" font-family="Times,serif" font-size="14.00" fill="#c0c0c0">generates</text>
</g>
<!-- DESTsetBYTEBOOOKmarkercapture1 -->
<g id="node34" class="node">
<title>DESTsetBYTEBOOOKmarkercapture1</title>
<ellipse fill="none" stroke="#000000" cx="741.4977" cy="-605" rx="139.9756" ry="18"/>
<text text-anchor="middle" x="741.4977" y="-601.3" font-family="Times,serif" font-size="14.00" fill="#000000">/set/BYTEBOOOK/marker:capture1</text>
</g>
<!-- button010&#45;&gt;DESTsetBYTEBOOOKmarkercapture1 -->
<g id="edge42" class="edge">
<title>button010&#45;&gt;DESTsetBYTEBOOOKmarkercapture1</title>
<path fill="none" stroke="#000000" d="M452.1131,-469.9904C478.6045,-485.3039 515.1475,-510.1301 537.7601,-541 552.2123,-560.7296 536.3059,-578.1791 555.7601,-593 580.0081,-611.4731 611.607,-617.961 641.8466,-618.7883"/>
<polygon fill="#000000" stroke="#000000" points="642.0123,-622.2895 652.037,-618.861 642.0623,-615.2897 642.0123,-622.2895"/>
<text text-anchor="middle" x="569.7601" y="-611.8" font-family="Times,serif" font-size="14.00" fill="#000000">+= 2</text>
</g>
<!-- DESTsetBYTEBOOOKmarkercapture2 -->
<g id="node35" class="node">
<title>DESTsetBYTEBOOOKmarkercapture2</title>
<ellipse fill="none" stroke="#000000" cx="741.4977" cy="-325" rx="139.9756" ry="18"/>
<text text-anchor="middle" x="741.4977" y="-321.3" font-family="Times,serif" font-size="14.00" fill="#000000">/set/BYTEBOOOK/marker:capture2</text>
</g>
<!-- button010&#45;&gt;DESTsetBYTEBOOOKmarkercapture2 -->
<g id="edge43" class="edge">
<title>button010&#45;&gt;DESTsetBYTEBOOOKmarkercapture2</title>
<path fill="none" stroke="#000000" d="M495.5741,-442.1607C511.2143,-436.7944 526.3629,-428.8228 537.7601,-417 559.4575,-394.4922 532.2617,-369.6206 555.7601,-349 566.3795,-339.6811 578.7451,-332.8343 591.9583,-327.8889"/>
<polygon fill="#000000" stroke="#000000" points="593.3487,-331.1142 601.7165,-324.6157 591.1226,-324.4776 593.3487,-331.1142"/>
<text text-anchor="middle" x="569.7601" y="-352.8" font-family="Times,serif" font-size="14.00" fill="#000000">+= 2</text>
</g>
<!-- button110&#45;&gt;DESTsetBYTEBOOOKmarkercapture1 -->
<g id="edge45" class="edge">
<title>button110&#45;&gt;DESTsetBYTEBOOOKmarkercapture1</title>
<path fill="none" stroke="#000000" d="M444.0828,-594.7743C470.2818,-612.5068 513.6823,-638.5685 555.7601,-649 604.8342,-661.1659 661.3862,-643.2023 699.0722,-626.7009"/>
<polygon fill="#000000" stroke="#000000" points="700.5632,-629.868 708.2308,-622.5564 697.6772,-623.4905 700.5632,-629.868"/>
<text text-anchor="middle" x="569.7601" y="-656.8" font-family="Times,serif" font-size="14.00" fill="#000000">+= 2</text>
</g>
<!-- button110&#45;&gt;DESTsetBYTEBOOOKmarkercapture2 -->
<g id="edge46" class="edge">
<title>button110&#45;&gt;DESTsetBYTEBOOOKmarkercapture2</title>
<path fill="none" stroke="#000000" d="M454.756,-559.7876C481.6804,-544.8061 517.489,-520.5466 537.7601,-489 558.4003,-456.879 531.5275,-434.5052 555.7601,-405 581.0228,-374.2405 620.3363,-355.0354 656.3014,-343.1834"/>
<polygon fill="#000000" stroke="#000000" points="657.3618,-346.519 665.8505,-340.1793 655.261,-339.8417 657.3618,-346.519"/>
<text text-anchor="middle" x="569.7601" y="-408.8" font-family="Times,serif" font-size="14.00" fill="#000000">+= 2</text>
</g>
<!-- button210&#45;&gt;DESTsetBYTEBOOOKmarkercapture1 -->
<g id="edge48" class="edge">
<title>button210&#45;&gt;DESTsetBYTEBOOOKmarkercapture1</title>
<path fill="none" stroke="#000000" d="M497.3269,-319.0202C512.6874,-324.4399 527.2762,-332.6405 537.7601,-345 577.2009,-391.4968 523.5349,-429.2403 555.7601,-481 586.2105,-529.9092 643.8911,-563.8183 686.9303,-583.6622"/>
<polygon fill="#000000" stroke="#000000" points="685.5952,-586.8993 696.1514,-587.8036 688.4631,-580.5138 685.5952,-586.8993"/>
<text text-anchor="middle" x="569.7601" y="-517.8" font-family="Times,serif" font-size="14.00" fill="#000000">+= 2</text>
</g>
<!-- button210&#45;&gt;DESTsetBYTEBOOOKmarkercapture2 -->
<g id="edge49" class="edge">
<title>button210&#45;&gt;DESTsetBYTEBOOOKmarkercapture2</title>
<path fill="none" stroke="#000000" d="M490.7953,-297.3571C507.5489,-292.0373 524.3937,-284.2879 537.7601,-273 551.4271,-261.4582 540.5432,-246.4046 555.7601,-237 566.346,-230.4576 571.7163,-233.8677 583.7601,-237 631.2702,-249.3563 679.6597,-279.5078 710.0869,-301.07"/>
<polygon fill="#000000" stroke="#000000" points="708.3968,-304.1664 718.5543,-307.1789 712.4924,-298.4896 708.3968,-304.1664"/>
<text text-anchor="middle" x="569.7601" y="-240.8" font-family="Times,serif" font-size="14.00" fill="#000000">+= 2</text>
</g>
<!-- button011&#45;&gt;DESTsetBYTEBOOOKmarkercapture1 -->
<g id="edge51" class="edge">
<title>button011&#45;&gt;DESTsetBYTEBOOOKmarkercapture1</title>
<path fill="none" stroke="#000000" d="M497.4733,-391.264C512.7308,-396.6768 527.2398,-404.8129 537.7601,-417 573.0004,-457.8236 521.6665,-495.214 555.7601,-537 576.614,-562.5591 607.9706,-578.5113 639.0115,-588.4676"/>
<polygon fill="#000000" stroke="#000000" points="638.0379,-591.8296 648.6227,-591.369 640.0609,-585.1283 638.0379,-591.8296"/>
<text text-anchor="middle" x="569.7601" y="-565.8" font-family="Times,serif" font-size="14.00" fill="#000000">&#45;= 2</text>
</g>
<!-- button011&#45;&gt;DESTsetBYTEBOOOKmarkercapture2 -->
<g id="edge52" class="edge">
<title>button011&#45;&gt;DESTsetBYTEBOOOKmarkercapture2</title>
<path fill="none" stroke="#000000" d="M494.0143,-369.8338C510.0059,-364.4923 525.6987,-356.6137 537.7601,-345 555.3773,-328.0366 535.838,-307.1857 555.7601,-293 598.9107,-262.2741 661.7636,-283.2062 702.1439,-302.7486"/>
<polygon fill="#000000" stroke="#000000" points="700.6432,-305.9114 711.1512,-307.265 703.7808,-299.654 700.6432,-305.9114"/>
<text text-anchor="middle" x="569.7601" y="-296.8" font-family="Times,serif" font-size="14.00" fill="#000000">&#45;= 2</text>
</g>
<!-- button111&#45;&gt;DESTsetBYTEBOOOKmarkercapture1 -->
<g id="edge54" class="edge">
<title>button111&#45;&gt;DESTsetBYTEBOOOKmarkercapture1</title>
<path fill="none" stroke="#000000" d="M467.965,-761.4596C501.6476,-770.1235 546.9164,-776.1418 583.7601,-761 647.742,-734.7052 699.5867,-668.5226 724.8326,-631.3626"/>
<polygon fill="#000000" stroke="#000000" points="727.7577,-633.2846 730.3841,-623.0204 721.9301,-629.4065 727.7577,-633.2846"/>
<text text-anchor="middle" x="569.7601" y="-772.8" font-family="Times,serif" font-size="14.00" fill="#000000">&#45;= 2</text>
</g>
<!-- button111&#45;&gt;DESTsetBYTEBOOOKmarkercapture2 -->
<g id="edge55" class="edge">
<title>button111&#45;&gt;DESTsetBYTEBOOOKmarkercapture2</title>
<path fill="none" stroke="#000000" d="M494.401,-730.9979C526.5771,-721.1868 561.7627,-704.6657 583.7601,-677 614.0455,-638.9107 585.4116,-614.8337 601.7601,-569 632.0629,-484.0449 691.4176,-394.6155 722.1013,-351.4268"/>
<polygon fill="#000000" stroke="#000000" points="725.0345,-353.3422 728.0159,-343.1755 719.3452,-349.264 725.0345,-353.3422"/>
<text text-anchor="middle" x="569.7601" y="-706.8" font-family="Times,serif" font-size="14.00" fill="#000000">&#45;= 2</text>
</g>
<!-- button211&#45;&gt;DESTsetBYTEBOOOKmarkercapture1 -->
<g id="edge57" class="edge">
<title>button211&#45;&gt;DESTsetBYTEBOOOKmarkercapture1</title>
<path fill="none" stroke="#000000" d="M497.4537,-246.9134C512.8073,-252.3389 527.3612,-260.5689 537.7601,-273 581.4085,-325.1783 525.5912,-364.028 555.7601,-425 565.306,-444.2925 664.7493,-535.6634 714.0698,-580.3173"/>
<polygon fill="#000000" stroke="#000000" points="711.7683,-582.955 721.5336,-587.0647 716.4626,-577.7623 711.7683,-582.955"/>
<text text-anchor="middle" x="569.7601" y="-457.8" font-family="Times,serif" font-size="14.00" fill="#000000">&#45;= 2</text>
</g>
<!-- button211&#45;&gt;DESTsetBYTEBOOOKmarkercapture2 -->
<g id="edge58" class="edge">
<title>button211&#45;&gt;DESTsetBYTEBOOOKmarkercapture2</title>
<path fill="none" stroke="#000000" d="M458.0997,-220.5132C491.9001,-208.4594 541.9859,-196.3887 583.7601,-210 637.8909,-227.6374 688.9024,-271.6468 717.5795,-299.8226"/>
<polygon fill="#000000" stroke="#000000" points="715.1742,-302.3672 724.7186,-306.9667 720.1257,-297.4191 715.1742,-302.3672"/>
<text text-anchor="middle" x="569.7601" y="-213.8" font-family="Times,serif" font-size="14.00" fill="#000000">&#45;= 2</text>
</g>
</g>
</svg>
