<?xml version="1.0" encoding="UTF-8" standalone="no"?>
<!DOCTYPE svg PUBLIC "-//W3C//DTD SVG 1.1//EN"
 "http://www.w3.org/Graphics/SVG/1.1/DTD/svg11.dtd">
<!-- Generated by graphviz version 2.40.1 (20161225.0304)
 -->
<!-- Title: permutations Pages: 1 -->
<svg width="1571pt" height="1052pt"
 viewBox="0.00 0.00 1570.60 1052.00" xmlns="http://www.w3.org/2000/svg" xmlns:xlink="http://www.w3.org/1999/xlink">
<g id="graph0" class="graph" transform="scale(1 1) rotate(0) translate(4 1048)">
<title>permutations</title>
<polygon fill="#ffffff" stroke="transparent" points="-4,4 -4,-1048 1566.5975,-1048 1566.5975,4 -4,4"/>
<!-- reality -->
<g id="node1" class="node">
<title>reality</title>
<ellipse fill="none" stroke="#ff0000" cx="744.4977" cy="-520" rx="33.2948" ry="18"/>
<text text-anchor="middle" x="744.4977" y="-516.3" font-family="Times,serif" font-size="14.00" fill="#000000">reality</text>
</g>
<!-- capture3 -->
<g id="node12" class="node">
<title>capture3</title>
<ellipse fill="none" stroke="#000000" cx="1150.9262" cy="-343" rx="44.5955" ry="48.5816"/>
<text text-anchor="middle" x="1150.9262" y="-362.3" font-family="Times,serif" font-size="14.00" fill="#000000">capture3</text>
<text text-anchor="middle" x="1150.9262" y="-347.3" font-family="Times,serif" font-size="14.00" fill="#000000">slurp</text>
<text text-anchor="middle" x="1150.9262" y="-316.3" font-family="Times,serif" font-size="14.00" fill="#000000">gphoto2</text>
</g>
<!-- reality&#45;&gt;capture3 -->
<g id="edge35" class="edge">
<title>reality&#45;&gt;capture3</title>
<path fill="none" stroke="#ff0000" d="M775.9557,-514.0979C804.7149,-508.1895 848.1385,-497.9692 884.2353,-484 964.3442,-452.9984 1051.2719,-403.8457 1103.3998,-372.5246"/>
<polygon fill="#ff0000" stroke="#ff0000" points="1105.3401,-375.4416 1112.0893,-367.2747 1101.7202,-369.4501 1105.3401,-375.4416"/>
</g>
<!-- capture4 -->
<g id="node15" class="node">
<title>capture4</title>
<ellipse fill="none" stroke="#000000" cx="1150.9262" cy="-616" rx="44.5955" ry="48.5816"/>
<text text-anchor="middle" x="1150.9262" y="-635.3" font-family="Times,serif" font-size="14.00" fill="#000000">capture4</text>
<text text-anchor="middle" x="1150.9262" y="-620.3" font-family="Times,serif" font-size="14.00" fill="#000000">slurp</text>
<text text-anchor="middle" x="1150.9262" y="-589.3" font-family="Times,serif" font-size="14.00" fill="#000000">gphoto2</text>
</g>
<!-- reality&#45;&gt;capture4 -->
<g id="edge38" class="edge">
<title>reality&#45;&gt;capture4</title>
<path fill="none" stroke="#ff0000" d="M777.5837,-517.8217C831.8159,-515.3081 942.3775,-514.6484 1030.2353,-543 1057.1867,-551.6972 1084.418,-567.4343 1106.176,-582.0757"/>
<polygon fill="#ff0000" stroke="#ff0000" points="1104.3157,-585.0442 1114.5379,-587.8294 1108.2838,-579.2775 1104.3157,-585.0442"/>
</g>
<!-- BYTEBOOOK -->
<g id="node2" class="node">
<title>BYTEBOOOK</title>
<ellipse fill="none" stroke="#ff0000" cx="744.4977" cy="-284" rx="64.9885" ry="18"/>
<text text-anchor="middle" x="744.4977" y="-280.3" font-family="Times,serif" font-size="14.00" fill="#000000">BYTEBOOOK</text>
</g>
<!-- capture1 -->
<g id="node5" class="node">
<title>capture1</title>
<ellipse fill="none" stroke="#000000" cx="1150.9262" cy="-209" rx="70.922" ry="48.1667"/>
<text text-anchor="middle" x="1150.9262" y="-227.8" font-family="Times,serif" font-size="14.00" fill="#000000">capture1</text>
<text text-anchor="middle" x="1150.9262" y="-212.8" font-family="Times,serif" font-size="14.00" fill="#000000">slurp</text>
<text text-anchor="middle" x="1150.9262" y="-197.8" font-family="Times,serif" font-size="14.00" fill="#000000">BYTEBOOOK</text>
<text text-anchor="middle" x="1150.9262" y="-182.8" font-family="Times,serif" font-size="14.00" fill="#000000">generic</text>
</g>
<!-- BYTEBOOOK&#45;&gt;capture1 -->
<g id="edge29" class="edge">
<title>BYTEBOOOK&#45;&gt;capture1</title>
<path fill="none" stroke="#ff0000" d="M809.5821,-284.7517C868.1349,-284.0225 956.0968,-279.4236 1030.2353,-261 1048.4505,-256.4735 1067.422,-249.4863 1084.7828,-242.0874"/>
<polygon fill="#ff0000" stroke="#ff0000" points="1086.4878,-245.1619 1094.2469,-237.9476 1083.6824,-238.7486 1086.4878,-245.1619"/>
</g>
<!-- capture2 -->
<g id="node9" class="node">
<title>capture2</title>
<ellipse fill="none" stroke="#000000" cx="1150.9262" cy="-482" rx="70.922" ry="48.1667"/>
<text text-anchor="middle" x="1150.9262" y="-500.8" font-family="Times,serif" font-size="14.00" fill="#000000">capture2</text>
<text text-anchor="middle" x="1150.9262" y="-485.8" font-family="Times,serif" font-size="14.00" fill="#000000">slurp</text>
<text text-anchor="middle" x="1150.9262" y="-470.8" font-family="Times,serif" font-size="14.00" fill="#000000">BYTEBOOOK</text>
<text text-anchor="middle" x="1150.9262" y="-455.8" font-family="Times,serif" font-size="14.00" fill="#000000">generic</text>
</g>
<!-- BYTEBOOOK&#45;&gt;capture2 -->
<g id="edge32" class="edge">
<title>BYTEBOOOK&#45;&gt;capture2</title>
<path fill="none" stroke="#ff0000" d="M798.7913,-294.093C825.1787,-299.9692 856.9959,-308.5152 884.2353,-320 925.8575,-337.549 1026.4215,-400.9783 1091.4739,-443.0666"/>
<polygon fill="#ff0000" stroke="#ff0000" points="1089.7174,-446.099 1100.0127,-448.6005 1093.5244,-440.2248 1089.7174,-446.099"/>
</g>
<!-- viewer_gui_kv_py_gsl -->
<g id="node3" class="node">
<title>viewer_gui_kv_py_gsl</title>
<ellipse fill="none" stroke="#000000" stroke-dasharray="1,5" cx="1150.9262" cy="-719" rx="84.485" ry="18"/>
<text text-anchor="middle" x="1150.9262" y="-715.3" font-family="Times,serif" font-size="14.00" fill="#c0c0c0">viewer&#45;gui&#45;kv.py.gsl</text>
</g>
<!-- viewer00 -->
<g id="node4" class="node">
<title>viewer00</title>
<ellipse fill="none" stroke="#000000" cx="1452.1073" cy="-424" rx="91.784" ry="18"/>
<text text-anchor="middle" x="1452.1073" y="-420.3" font-family="Times,serif" font-size="14.00" fill="#000000">viewer&#45;gui&#45;kv.py.gsl&#45;0</text>
</g>
<!-- viewer_gui_kv_py_gsl&#45;&gt;viewer00 -->
<g id="edge1" class="edge">
<title>viewer_gui_kv_py_gsl&#45;&gt;viewer00</title>
<path fill="none" stroke="#000000" stroke-dasharray="1,5" d="M1217.0788,-707.6754C1230.9882,-702.3424 1244.2619,-694.5073 1253.6171,-683 1292.0788,-635.6901 1239.8302,-599.03 1271.6171,-547 1286.2715,-523.0131 1304.5463,-531.6501 1323.6171,-511 1334.4262,-499.2957 1330.0352,-490.9402 1341.6171,-480 1357.672,-464.8346 1378.6265,-452.8248 1397.966,-443.8792"/>
<polygon fill="#000000" stroke="#000000" points="1399.5827,-446.9909 1407.3016,-439.7335 1396.7417,-440.5933 1399.5827,-446.9909"/>
<text text-anchor="middle" x="1297.6171" y="-550.8" font-family="Times,serif" font-size="14.00" fill="#c0c0c0">generates</text>
</g>
<!-- viewer01 -->
<g id="node8" class="node">
<title>viewer01</title>
<ellipse fill="none" stroke="#000000" cx="1452.1073" cy="-628" rx="91.784" ry="18"/>
<text text-anchor="middle" x="1452.1073" y="-624.3" font-family="Times,serif" font-size="14.00" fill="#000000">viewer&#45;gui&#45;kv.py.gsl&#45;1</text>
</g>
<!-- viewer_gui_kv_py_gsl&#45;&gt;viewer01 -->
<g id="edge5" class="edge">
<title>viewer_gui_kv_py_gsl&#45;&gt;viewer01</title>
<path fill="none" stroke="#000000" stroke-dasharray="1,5" d="M1196.6552,-734.1569C1232.2794,-743.4656 1282.4335,-751.0092 1323.6171,-736 1368.2792,-719.7231 1408.1945,-680.3381 1431.2781,-653.9033"/>
<polygon fill="#000000" stroke="#000000" points="1434.0607,-656.0344 1437.8883,-646.1551 1428.7353,-651.4912 1434.0607,-656.0344"/>
<text text-anchor="middle" x="1297.6171" y="-748.8" font-family="Times,serif" font-size="14.00" fill="#c0c0c0">generates</text>
</g>
<!-- viewer02 -->
<g id="node11" class="node">
<title>viewer02</title>
<ellipse fill="none" stroke="#000000" cx="1452.1073" cy="-516" rx="91.784" ry="18"/>
<text text-anchor="middle" x="1452.1073" y="-512.3" font-family="Times,serif" font-size="14.00" fill="#000000">viewer&#45;gui&#45;kv.py.gsl&#45;2</text>
</g>
<!-- viewer_gui_kv_py_gsl&#45;&gt;viewer02 -->
<g id="edge9" class="edge">
<title>viewer_gui_kv_py_gsl&#45;&gt;viewer02</title>
<path fill="none" stroke="#000000" stroke-dasharray="1,5" d="M1207.962,-705.622C1223.6945,-700.2318 1240.1293,-692.8804 1253.6171,-683 1264.3732,-675.1207 1262.3036,-668.5413 1271.6171,-659 1292.1748,-637.9394 1303.4627,-639.447 1323.6171,-618 1333.2417,-607.7581 1331.664,-601.923 1341.6171,-592 1362.7227,-570.9581 1390.3474,-551.957 1412.6945,-538.217"/>
<polygon fill="#000000" stroke="#000000" points="1414.5343,-541.1948 1421.2873,-533.0309 1410.9172,-535.2017 1414.5343,-541.1948"/>
<text text-anchor="middle" x="1297.6171" y="-662.8" font-family="Times,serif" font-size="14.00" fill="#c0c0c0">generates</text>
</g>
<!-- viewer03 -->
<g id="node14" class="node">
<title>viewer03</title>
<ellipse fill="none" stroke="#000000" cx="1452.1073" cy="-776" rx="91.784" ry="18"/>
<text text-anchor="middle" x="1452.1073" y="-772.3" font-family="Times,serif" font-size="14.00" fill="#000000">viewer&#45;gui&#45;kv.py.gsl&#45;3</text>
</g>
<!-- viewer_gui_kv_py_gsl&#45;&gt;viewer03 -->
<g id="edge13" class="edge">
<title>viewer_gui_kv_py_gsl&#45;&gt;viewer03</title>
<path fill="none" stroke="#000000" stroke-dasharray="1,5" d="M1171.9151,-736.6569C1194.7528,-754.6139 1233.169,-781.2768 1271.6171,-792 1309.4005,-802.5378 1353.1971,-799.0143 1388.1854,-792.6273"/>
<polygon fill="#000000" stroke="#000000" points="1389.1281,-796.0096 1398.2749,-790.663 1387.7903,-789.1386 1389.1281,-796.0096"/>
<text text-anchor="middle" x="1297.6171" y="-802.8" font-family="Times,serif" font-size="14.00" fill="#c0c0c0">generates</text>
</g>
<!-- capture1&#45;&gt;viewer00 -->
<g id="edge2" class="edge">
<title>capture1&#45;&gt;viewer00</title>
<path fill="none" stroke="#000000" d="M1208.9717,-236.5489C1225.4786,-246.8662 1242.0843,-260.04 1253.6171,-276 1271.9277,-301.3397 1251.3295,-320.2135 1271.6171,-344 1288.5407,-363.8424 1349.1214,-388.3631 1395.4763,-404.9888"/>
<polygon fill="#000000" stroke="#000000" points="1394.5365,-408.369 1405.1312,-408.4122 1396.8759,-401.7714 1394.5365,-408.369"/>
<text text-anchor="middle" x="1297.6171" y="-380.8" font-family="Times,serif" font-size="14.00" fill="#000000">filter</text>
</g>
<!-- viewer10 -->
<g id="node7" class="node">
<title>viewer10</title>
<ellipse fill="none" stroke="#000000" cx="1452.1073" cy="-18" rx="110.4804" ry="18"/>
<text text-anchor="middle" x="1452.1073" y="-14.3" font-family="Times,serif" font-size="14.00" fill="#000000">viewer&#45;terminal&#45;cli.py.gsl&#45;0</text>
</g>
<!-- capture1&#45;&gt;viewer10 -->
<g id="edge4" class="edge">
<title>capture1&#45;&gt;viewer10</title>
<path fill="none" stroke="#000000" d="M1205.5372,-178.2284C1222.0741,-167.4146 1239.5611,-154.3441 1253.6171,-140 1263.9714,-129.4334 1261.2088,-122.5134 1271.6171,-112 1297.8083,-85.5444 1308.8689,-83.704 1341.6171,-66 1360.1102,-56.0025 1381.1152,-46.4557 1399.8084,-38.547"/>
<polygon fill="#000000" stroke="#000000" points="1401.1818,-41.7665 1409.0619,-34.6846 1398.4853,-35.3067 1401.1818,-41.7665"/>
<text text-anchor="middle" x="1297.6171" y="-115.8" font-family="Times,serif" font-size="14.00" fill="#000000">filter</text>
</g>
<!-- viewer_terminal_cli_py_gsl -->
<g id="node6" class="node">
<title>viewer_terminal_cli_py_gsl</title>
<ellipse fill="none" stroke="#000000" stroke-dasharray="1,5" cx="1150.9262" cy="-104" rx="102.8821" ry="18"/>
<text text-anchor="middle" x="1150.9262" y="-100.3" font-family="Times,serif" font-size="14.00" fill="#c0c0c0">viewer&#45;terminal&#45;cli.py.gsl</text>
</g>
<!-- viewer_terminal_cli_py_gsl&#45;&gt;viewer10 -->
<g id="edge3" class="edge">
<title>viewer_terminal_cli_py_gsl&#45;&gt;viewer10</title>
<path fill="none" stroke="#000000" stroke-dasharray="1,5" d="M1168.0629,-85.8816C1189.7693,-64.3873 1229.4559,-29.7385 1271.6171,-16 1299.2025,-7.0111 1330.4423,-4.7856 1359.0852,-5.6071"/>
<polygon fill="#000000" stroke="#000000" points="1358.9626,-9.1049 1369.098,-6.0186 1359.2502,-2.1108 1358.9626,-9.1049"/>
<text text-anchor="middle" x="1297.6171" y="-19.8" font-family="Times,serif" font-size="14.00" fill="#c0c0c0">generates</text>
</g>
<!-- viewer11 -->
<g id="node10" class="node">
<title>viewer11</title>
<ellipse fill="none" stroke="#000000" cx="1452.1073" cy="-180" rx="110.4804" ry="18"/>
<text text-anchor="middle" x="1452.1073" y="-176.3" font-family="Times,serif" font-size="14.00" fill="#000000">viewer&#45;terminal&#45;cli.py.gsl&#45;1</text>
</g>
<!-- viewer_terminal_cli_py_gsl&#45;&gt;viewer11 -->
<g id="edge7" class="edge">
<title>viewer_terminal_cli_py_gsl&#45;&gt;viewer11</title>
<path fill="none" stroke="#000000" stroke-dasharray="1,5" d="M1209.7119,-118.834C1259.0851,-131.2928 1329.749,-149.1241 1382.0506,-162.3219"/>
<polygon fill="#000000" stroke="#000000" points="1381.3711,-165.7601 1391.9236,-164.8133 1383.0839,-158.9728 1381.3711,-165.7601"/>
<text text-anchor="middle" x="1297.6171" y="-150.8" font-family="Times,serif" font-size="14.00" fill="#c0c0c0">generates</text>
</g>
<!-- viewer12 -->
<g id="node13" class="node">
<title>viewer12</title>
<ellipse fill="none" stroke="#000000" cx="1452.1073" cy="-102" rx="110.4804" ry="18"/>
<text text-anchor="middle" x="1452.1073" y="-98.3" font-family="Times,serif" font-size="14.00" fill="#000000">viewer&#45;terminal&#45;cli.py.gsl&#45;2</text>
</g>
<!-- viewer_terminal_cli_py_gsl&#45;&gt;viewer12 -->
<g id="edge11" class="edge">
<title>viewer_terminal_cli_py_gsl&#45;&gt;viewer12</title>
<path fill="none" stroke="#000000" stroke-dasharray="1,5" d="M1177.3547,-86.365C1200.9356,-71.7597 1236.9916,-52.1321 1271.6171,-44 1294.116,-38.7159 1301.2449,-38.2028 1323.6171,-44 1332.4761,-46.2956 1333.4105,-49.9497 1341.6171,-54 1360.95,-63.5415 1382.6286,-73.1817 1401.6292,-81.2941"/>
<polygon fill="#000000" stroke="#000000" points="1400.433,-84.5884 1411.006,-85.2672 1403.1639,-78.1431 1400.433,-84.5884"/>
<text text-anchor="middle" x="1297.6171" y="-47.8" font-family="Times,serif" font-size="14.00" fill="#c0c0c0">generates</text>
</g>
<!-- viewer13 -->
<g id="node16" class="node">
<title>viewer13</title>
<ellipse fill="none" stroke="#000000" cx="1452.1073" cy="-312" rx="110.4804" ry="18"/>
<text text-anchor="middle" x="1452.1073" y="-308.3" font-family="Times,serif" font-size="14.00" fill="#000000">viewer&#45;terminal&#45;cli.py.gsl&#45;3</text>
</g>
<!-- viewer_terminal_cli_py_gsl&#45;&gt;viewer13 -->
<g id="edge15" class="edge">
<title>viewer_terminal_cli_py_gsl&#45;&gt;viewer13</title>
<path fill="none" stroke="#000000" stroke-dasharray="1,5" d="M1216.867,-117.895C1230.6993,-123.6075 1243.9922,-131.6584 1253.6171,-143 1279.7294,-173.7699 1246.3491,-200.533 1271.6171,-232 1287.6954,-252.0228 1346.7876,-276.0141 1393.0315,-292.4683"/>
<polygon fill="#000000" stroke="#000000" points="1392.0895,-295.8471 1402.6843,-295.861 1394.4106,-289.2431 1392.0895,-295.8471"/>
<text text-anchor="middle" x="1297.6171" y="-268.8" font-family="Times,serif" font-size="14.00" fill="#c0c0c0">generates</text>
</g>
<!-- capture2&#45;&gt;viewer01 -->
<g id="edge6" class="edge">
<title>capture2&#45;&gt;viewer01</title>
<path fill="none" stroke="#000000" d="M1204.5816,-513.6439C1220.8961,-524.1408 1238.4967,-536.3865 1253.6171,-549 1262.5493,-556.4514 1261.8031,-561.7555 1271.6171,-568 1304.0735,-588.6517 1344.3683,-602.9329 1378.6458,-612.3649"/>
<polygon fill="#000000" stroke="#000000" points="1378.0434,-615.8264 1388.6074,-615.0177 1379.8449,-609.0621 1378.0434,-615.8264"/>
<text text-anchor="middle" x="1297.6171" y="-597.8" font-family="Times,serif" font-size="14.00" fill="#000000">filter</text>
</g>
<!-- capture2&#45;&gt;viewer11 -->
<g id="edge8" class="edge">
<title>capture2&#45;&gt;viewer11</title>
<path fill="none" stroke="#000000" d="M1207.6668,-453.2485C1224.8208,-441.9567 1242.1327,-427.4653 1253.6171,-410 1275.311,-377.0078 1249.6097,-355.7839 1271.6171,-323 1287.1441,-299.8697 1301.367,-304.7641 1323.6171,-288 1359.5291,-260.9424 1398.8296,-227.2665 1424.3873,-204.7803"/>
<polygon fill="#000000" stroke="#000000" points="1427.0036,-207.1392 1432.1806,-197.8953 1422.369,-201.8931 1427.0036,-207.1392"/>
<text text-anchor="middle" x="1297.6171" y="-326.8" font-family="Times,serif" font-size="14.00" fill="#000000">filter</text>
</g>
<!-- capture3&#45;&gt;viewer02 -->
<g id="edge10" class="edge">
<title>capture3&#45;&gt;viewer02</title>
<path fill="none" stroke="#000000" d="M1190.943,-364.4954C1211.7659,-377.2615 1236.3972,-395.0436 1253.6171,-416 1265.9937,-431.0622 1257.1479,-442.9351 1271.6171,-456 1298.1619,-479.9685 1334.5527,-494.3956 1367.7069,-503.0646"/>
<polygon fill="#000000" stroke="#000000" points="1366.8699,-506.463 1377.4178,-505.4671 1368.5511,-499.6678 1366.8699,-506.463"/>
<text text-anchor="middle" x="1297.6171" y="-490.8" font-family="Times,serif" font-size="14.00" fill="#000000">filter</text>
</g>
<!-- capture3&#45;&gt;viewer12 -->
<g id="edge12" class="edge">
<title>capture3&#45;&gt;viewer12</title>
<path fill="none" stroke="#000000" d="M1192.2177,-324.4946C1213.414,-313.0475 1237.9954,-296.4239 1253.6171,-275 1271.026,-251.125 1255.0641,-235.4762 1271.6171,-211 1287.9514,-186.8471 1303.709,-192.3035 1323.6171,-171 1333.4642,-160.4627 1330.3398,-152.9901 1341.6171,-144 1353.6614,-134.3984 1368.1412,-126.8166 1382.5931,-120.8956"/>
<polygon fill="#000000" stroke="#000000" points="1383.9922,-124.1073 1392.06,-117.24 1381.4706,-117.5772 1383.9922,-124.1073"/>
<text text-anchor="middle" x="1297.6171" y="-214.8" font-family="Times,serif" font-size="14.00" fill="#000000">filter</text>
</g>
<!-- capture4&#45;&gt;viewer03 -->
<g id="edge14" class="edge">
<title>capture4&#45;&gt;viewer03</title>
<path fill="none" stroke="#000000" d="M1191.2323,-637.4123C1248.7455,-667.9657 1353.7669,-723.7575 1411.4647,-754.409"/>
<polygon fill="#000000" stroke="#000000" points="1409.8308,-757.5042 1420.304,-759.1048 1413.1149,-751.3223 1409.8308,-757.5042"/>
<text text-anchor="middle" x="1297.6171" y="-709.8" font-family="Times,serif" font-size="14.00" fill="#000000">filter</text>
</g>
<!-- capture4&#45;&gt;viewer13 -->
<g id="edge16" class="edge">
<title>capture4&#45;&gt;viewer13</title>
<path fill="none" stroke="#000000" d="M1192.7116,-598.4603C1214.3276,-587.2139 1239.1501,-570.4747 1253.6171,-548 1281.1431,-505.238 1244.2524,-477.8654 1271.6171,-435 1286.6074,-411.5183 1300.569,-415.6488 1323.6171,-400 1355.7723,-378.1679 1392.3297,-353.1071 1418.2067,-335.3274"/>
<polygon fill="#000000" stroke="#000000" points="1420.2925,-338.1409 1426.5511,-329.5921 1416.3275,-332.3721 1420.2925,-338.1409"/>
<text text-anchor="middle" x="1297.6171" y="-438.8" font-family="Times,serif" font-size="14.00" fill="#000000">filter</text>
</g>
<!-- button_gui_kv_py_gsl -->
<g id="node17" class="node">
<title>button_gui_kv_py_gsl</title>
<ellipse fill="none" stroke="#000000" stroke-dasharray="1,5" cx="106.5905" cy="-634" rx="83.3857" ry="18"/>
<text text-anchor="middle" x="106.5905" y="-630.3" font-family="Times,serif" font-size="14.00" fill="#c0c0c0">button&#45;gui&#45;kv.py.gsl</text>
</g>
<!-- button04 -->
<g id="node18" class="node">
<title>button04</title>
<ellipse fill="none" stroke="#000000" cx="419.4706" cy="-266" rx="90.1842" ry="18"/>
<text text-anchor="middle" x="419.4706" y="-262.3" font-family="Times,serif" font-size="14.00" fill="#000000">button&#45;gui&#45;kv.py.gsl&#45;4</text>
</g>
<!-- button_gui_kv_py_gsl&#45;&gt;button04 -->
<g id="edge17" class="edge">
<title>button_gui_kv_py_gsl&#45;&gt;button04</title>
<path fill="none" stroke="#000000" stroke-dasharray="1,5" d="M116.6373,-615.9799C135.8106,-582.6583 180.2732,-510.3186 231.1811,-461 251.1899,-441.6158 268.3532,-449.5846 283.1811,-426 312.8217,-378.8548 264.8915,-344.2409 301.1811,-302 309.8201,-291.9442 321.1751,-284.645 333.4329,-279.3577"/>
<polygon fill="#000000" stroke="#000000" points="334.8767,-282.5524 342.9525,-275.6943 332.3626,-276.0194 334.8767,-282.5524"/>
<text text-anchor="middle" x="257.1811" y="-464.8" font-family="Times,serif" font-size="14.00" fill="#c0c0c0">generates</text>
</g>
<!-- button05 -->
<g id="node24" class="node">
<title>button05</title>
<ellipse fill="none" stroke="#000000" cx="419.4706" cy="-738" rx="90.1842" ry="18"/>
<text text-anchor="middle" x="419.4706" y="-734.3" font-family="Times,serif" font-size="14.00" fill="#000000">button&#45;gui&#45;kv.py.gsl&#45;5</text>
</g>
<!-- button_gui_kv_py_gsl&#45;&gt;button05 -->
<g id="edge23" class="edge">
<title>button_gui_kv_py_gsl&#45;&gt;button05</title>
<path fill="none" stroke="#000000" stroke-dasharray="1,5" d="M149.3175,-649.4938C188.6302,-663.6152 248.6254,-684.8277 301.1811,-702 319.861,-708.1036 340.3079,-714.4455 358.8691,-720.0749"/>
<polygon fill="#000000" stroke="#000000" points="358.0881,-723.495 368.6729,-723.0354 360.1117,-716.7939 358.0881,-723.495"/>
<text text-anchor="middle" x="257.1811" y="-698.8" font-family="Times,serif" font-size="14.00" fill="#c0c0c0">generates</text>
</g>
<!-- button010 -->
<g id="node33" class="node">
<title>button010</title>
<ellipse fill="none" stroke="#000000" cx="419.4706" cy="-522" rx="94.7833" ry="18"/>
<text text-anchor="middle" x="419.4706" y="-518.3" font-family="Times,serif" font-size="14.00" fill="#000000">button&#45;gui&#45;kv.py.gsl&#45;10</text>
</g>
<!-- button_gui_kv_py_gsl&#45;&gt;button010 -->
<g id="edge41" class="edge">
<title>button_gui_kv_py_gsl&#45;&gt;button010</title>
<path fill="none" stroke="#000000" stroke-dasharray="1,5" d="M188.1759,-630.4238C220.531,-625.4358 256.3409,-615.0445 283.1811,-594 297.2584,-582.9624 287.5141,-569.5418 301.1811,-558 311.8049,-549.0282 324.6261,-542.2918 337.8524,-537.234"/>
<polygon fill="#000000" stroke="#000000" points="339.2512,-540.4525 347.5291,-533.8398 336.9343,-533.847 339.2512,-540.4525"/>
<text text-anchor="middle" x="257.1811" y="-624.8" font-family="Times,serif" font-size="14.00" fill="#c0c0c0">generates</text>
</g>
<!-- DEST1 -->
<g id="node19" class="node">
<title>DEST1</title>
<ellipse fill="none" stroke="#000000" cx="744.4977" cy="-189" rx="27" ry="18"/>
<text text-anchor="middle" x="744.4977" y="-185.3" font-family="Times,serif" font-size="14.00" fill="#000000">/1</text>
</g>
<!-- button04&#45;&gt;DEST1 -->
<g id="edge18" class="edge">
<title>button04&#45;&gt;DEST1</title>
<path fill="none" stroke="#000000" d="M477.9543,-252.145C545.2294,-236.2073 653.5369,-210.5489 709.107,-197.3842"/>
<polygon fill="#000000" stroke="#000000" points="709.9238,-200.7876 718.8476,-195.0766 708.3101,-193.9762 709.9238,-200.7876"/>
<text text-anchor="middle" x="571.2601" y="-236.8" font-family="Times,serif" font-size="14.00" fill="#000000">1</text>
</g>
<!-- DEST1&#45;&gt;capture1 -->
<g id="edge31" class="edge">
<title>DEST1&#45;&gt;capture1</title>
<path fill="none" stroke="#000000" d="M771.3698,-186.6249C822.1095,-182.583 935.4385,-175.666 1030.2353,-185 1044.4866,-186.4032 1059.5494,-188.7171 1074.0217,-191.3685"/>
<polygon fill="#000000" stroke="#000000" points="1073.4518,-194.8227 1083.9294,-193.2509 1074.7585,-187.9457 1073.4518,-194.8227"/>
<text text-anchor="middle" x="966.2353" y="-188.8" font-family="Times,serif" font-size="14.00" fill="#000000">create_glworb capture1</text>
</g>
<!-- DEST1&#45;&gt;capture3 -->
<g id="edge37" class="edge">
<title>DEST1&#45;&gt;capture3</title>
<path fill="none" stroke="#000000" d="M768.1057,-197.9453C832.1178,-222.2002 1010.1318,-289.6515 1099.0297,-323.3359"/>
<polygon fill="#000000" stroke="#000000" points="1098.0496,-326.7073 1108.6409,-326.9777 1100.5299,-320.1614 1098.0496,-326.7073"/>
<text text-anchor="middle" x="966.2353" y="-297.8" font-family="Times,serif" font-size="14.00" fill="#000000">create_glworb capture3</text>
</g>
<!-- button_terminal_curt_py_gsl -->
<g id="node20" class="node">
<title>button_terminal_curt_py_gsl</title>
<ellipse fill="none" stroke="#000000" stroke-dasharray="1,5" cx="106.5905" cy="-410" rx="106.6812" ry="18"/>
<text text-anchor="middle" x="106.5905" y="-406.3" font-family="Times,serif" font-size="14.00" fill="#c0c0c0">button&#45;terminal&#45;curt.py.gsl</text>
</g>
<!-- button14 -->
<g id="node21" class="node">
<title>button14</title>
<ellipse fill="none" stroke="#000000" cx="419.4706" cy="-194" rx="113.9803" ry="18"/>
<text text-anchor="middle" x="419.4706" y="-190.3" font-family="Times,serif" font-size="14.00" fill="#000000">button&#45;terminal&#45;curt.py.gsl&#45;4</text>
</g>
<!-- button_terminal_curt_py_gsl&#45;&gt;button14 -->
<g id="edge19" class="edge">
<title>button_terminal_curt_py_gsl&#45;&gt;button14</title>
<path fill="none" stroke="#000000" stroke-dasharray="1,5" d="M177.7593,-396.5052C190.8781,-391.284 203.4765,-384.0428 213.1811,-374 232.5275,-353.9793 218.0024,-338.5242 231.1811,-314 254.1849,-271.1922 260.6851,-256.8655 301.1811,-230 312.6964,-222.3606 325.9004,-216.2868 339.2155,-211.4744"/>
<polygon fill="#000000" stroke="#000000" points="340.561,-214.7139 348.908,-208.1887 338.3137,-208.0845 340.561,-214.7139"/>
<text text-anchor="middle" x="257.1811" y="-317.8" font-family="Times,serif" font-size="14.00" fill="#c0c0c0">generates</text>
</g>
<!-- button15 -->
<g id="node26" class="node">
<title>button15</title>
<ellipse fill="none" stroke="#000000" cx="419.4706" cy="-666" rx="113.9803" ry="18"/>
<text text-anchor="middle" x="419.4706" y="-662.3" font-family="Times,serif" font-size="14.00" fill="#000000">button&#45;terminal&#45;curt.py.gsl&#45;5</text>
</g>
<!-- button_terminal_curt_py_gsl&#45;&gt;button15 -->
<g id="edge25" class="edge">
<title>button_terminal_curt_py_gsl&#45;&gt;button15</title>
<path fill="none" stroke="#000000" stroke-dasharray="1,5" d="M122.0598,-428.1185C144.6346,-454.0187 188.5698,-502.4239 231.1811,-538 252.5661,-555.8544 266.4967,-550.6902 283.1811,-573 299.0917,-594.2751 282.2979,-611.313 301.1811,-630 309.3239,-638.0582 319.2123,-644.3212 329.7647,-649.1872"/>
<polygon fill="#000000" stroke="#000000" points="328.605,-652.4956 339.1818,-653.1138 331.299,-646.0348 328.605,-652.4956"/>
<text text-anchor="middle" x="257.1811" y="-576.8" font-family="Times,serif" font-size="14.00" fill="#c0c0c0">generates</text>
</g>
<!-- button110 -->
<g id="node36" class="node">
<title>button110</title>
<ellipse fill="none" stroke="#000000" cx="419.4706" cy="-410" rx="118.0794" ry="18"/>
<text text-anchor="middle" x="419.4706" y="-406.3" font-family="Times,serif" font-size="14.00" fill="#000000">button&#45;terminal&#45;curt.py.gsl&#45;10</text>
</g>
<!-- button_terminal_curt_py_gsl&#45;&gt;button110 -->
<g id="edge44" class="edge">
<title>button_terminal_curt_py_gsl&#45;&gt;button110</title>
<path fill="none" stroke="#000000" stroke-dasharray="1,5" d="M211.2713,-406.3955C218.0084,-406.2389 224.6895,-406.1042 231.1811,-406 251.3392,-405.6765 272.7101,-405.7409 293.5401,-406.0251"/>
<polygon fill="#000000" stroke="#000000" points="293.662,-409.5273 303.7146,-406.1815 293.7696,-402.5281 293.662,-409.5273"/>
<text text-anchor="middle" x="257.1811" y="-409.8" font-family="Times,serif" font-size="14.00" fill="#c0c0c0">generates</text>
</g>
<!-- button14&#45;&gt;DEST1 -->
<g id="edge20" class="edge">
<title>button14&#45;&gt;DEST1</title>
<path fill="none" stroke="#000000" d="M496.3772,-180.7164C515.7023,-177.93 536.4405,-175.41 555.7601,-174 608.7995,-170.1291 670.1819,-177.142 708.1775,-182.828"/>
<polygon fill="#000000" stroke="#000000" points="707.83,-186.3158 718.2477,-184.3864 708.9006,-179.3982 707.83,-186.3158"/>
<text text-anchor="middle" x="571.2601" y="-177.8" font-family="Times,serif" font-size="14.00" fill="#000000">1</text>
</g>
<!-- button_iot_hmi_c_gsl -->
<g id="node22" class="node">
<title>button_iot_hmi_c_gsl</title>
<ellipse fill="none" stroke="#000000" stroke-dasharray="1,5" cx="106.5905" cy="-338" rx="81.4863" ry="18"/>
<text text-anchor="middle" x="106.5905" y="-334.3" font-family="Times,serif" font-size="14.00" fill="#c0c0c0">button&#45;iot&#45;hmi.c.gsl</text>
</g>
<!-- button24 -->
<g id="node23" class="node">
<title>button24</title>
<ellipse fill="none" stroke="#000000" cx="419.4706" cy="-122" rx="89.0842" ry="18"/>
<text text-anchor="middle" x="419.4706" y="-118.3" font-family="Times,serif" font-size="14.00" fill="#000000">button&#45;iot&#45;hmi.c.gsl&#45;4</text>
</g>
<!-- button_iot_hmi_c_gsl&#45;&gt;button24 -->
<g id="edge21" class="edge">
<title>button_iot_hmi_c_gsl&#45;&gt;button24</title>
<path fill="none" stroke="#000000" stroke-dasharray="1,5" d="M120.6758,-320.2302C150.2182,-284.1588 222.4664,-202.0451 301.1811,-158 315.7636,-149.8403 332.4151,-143.3143 348.529,-138.1829"/>
<polygon fill="#000000" stroke="#000000" points="349.9169,-141.4194 358.4694,-135.1659 347.8839,-134.7211 349.9169,-141.4194"/>
<text text-anchor="middle" x="257.1811" y="-207.8" font-family="Times,serif" font-size="14.00" fill="#c0c0c0">generates</text>
</g>
<!-- button25 -->
<g id="node27" class="node">
<title>button25</title>
<ellipse fill="none" stroke="#000000" cx="419.4706" cy="-594" rx="89.0842" ry="18"/>
<text text-anchor="middle" x="419.4706" y="-590.3" font-family="Times,serif" font-size="14.00" fill="#000000">button&#45;iot&#45;hmi.c.gsl&#45;5</text>
</g>
<!-- button_iot_hmi_c_gsl&#45;&gt;button25 -->
<g id="edge27" class="edge">
<title>button_iot_hmi_c_gsl&#45;&gt;button25</title>
<path fill="none" stroke="#000000" stroke-dasharray="1,5" d="M172.9917,-348.3811C188.1337,-353.726 202.8005,-361.8029 213.1811,-374 244.7201,-411.0579 204.8494,-441.0776 231.1811,-482 246.2557,-505.4277 265.3189,-495.6215 283.1811,-517 295.9411,-532.2719 286.302,-544.784 301.1811,-558 311.9393,-567.5556 325.1736,-574.5753 338.8497,-579.732"/>
<polygon fill="#000000" stroke="#000000" points="337.7687,-583.0614 348.3634,-583.0126 340.0507,-576.4438 337.7687,-583.0614"/>
<text text-anchor="middle" x="257.1811" y="-520.8" font-family="Times,serif" font-size="14.00" fill="#c0c0c0">generates</text>
</g>
<!-- button210 -->
<g id="node37" class="node">
<title>button210</title>
<ellipse fill="none" stroke="#000000" cx="419.4706" cy="-338" rx="92.8835" ry="18"/>
<text text-anchor="middle" x="419.4706" y="-334.3" font-family="Times,serif" font-size="14.00" fill="#000000">button&#45;iot&#45;hmi.c.gsl&#45;10</text>
</g>
<!-- button_iot_hmi_c_gsl&#45;&gt;button210 -->
<g id="edge47" class="edge">
<title>button_iot_hmi_c_gsl&#45;&gt;button210</title>
<path fill="none" stroke="#000000" stroke-dasharray="1,5" d="M187.9793,-338C227.121,-338 274.4776,-338 316.1344,-338"/>
<polygon fill="#000000" stroke="#000000" points="316.3145,-341.5001 326.3145,-338 316.3144,-334.5001 316.3145,-341.5001"/>
<text text-anchor="middle" x="257.1811" y="-341.8" font-family="Times,serif" font-size="14.00" fill="#c0c0c0">generates</text>
</g>
<!-- button24&#45;&gt;DEST1 -->
<g id="edge22" class="edge">
<title>button24&#45;&gt;DEST1</title>
<path fill="none" stroke="#000000" d="M492.602,-132.3695C521.9735,-136.907 556.0795,-142.647 586.7601,-149 629.4473,-157.8392 677.981,-170.5547 709.8055,-179.2624"/>
<polygon fill="#000000" stroke="#000000" points="708.952,-182.6576 719.5224,-181.9388 710.8108,-175.9089 708.952,-182.6576"/>
<text text-anchor="middle" x="571.2601" y="-152.8" font-family="Times,serif" font-size="14.00" fill="#000000">1</text>
</g>
<!-- DEST2 -->
<g id="node25" class="node">
<title>DEST2</title>
<ellipse fill="none" stroke="#000000" cx="744.4977" cy="-636" rx="27" ry="18"/>
<text text-anchor="middle" x="744.4977" y="-632.3" font-family="Times,serif" font-size="14.00" fill="#000000">/2</text>
</g>
<!-- button05&#45;&gt;DEST2 -->
<g id="edge24" class="edge">
<title>button05&#45;&gt;DEST2</title>
<path fill="none" stroke="#000000" d="M469.5914,-722.9107C490.6618,-716.5246 515.4222,-708.9644 537.7601,-702 598.6066,-683.0295 669.3113,-660.3112 710.2768,-647.0817"/>
<polygon fill="#000000" stroke="#000000" points="711.5878,-650.3364 720.0269,-643.9308 709.4352,-643.6755 711.5878,-650.3364"/>
<text text-anchor="middle" x="571.2601" y="-698.8" font-family="Times,serif" font-size="14.00" fill="#000000">1</text>
</g>
<!-- DEST2&#45;&gt;capture2 -->
<g id="edge34" class="edge">
<title>DEST2&#45;&gt;capture2</title>
<path fill="none" stroke="#000000" d="M768.1057,-627.0547C827.7262,-604.4639 986.2427,-544.4003 1079.5401,-509.0489"/>
<polygon fill="#000000" stroke="#000000" points="1080.8041,-512.3129 1088.9152,-505.4966 1078.3238,-505.767 1080.8041,-512.3129"/>
<text text-anchor="middle" x="966.2353" y="-576.8" font-family="Times,serif" font-size="14.00" fill="#000000">create_glworb capture2</text>
</g>
<!-- DEST2&#45;&gt;capture4 -->
<g id="edge40" class="edge">
<title>DEST2&#45;&gt;capture4</title>
<path fill="none" stroke="#000000" d="M771.4794,-634.6723C837.4786,-631.4245 1008.0937,-623.0287 1096.3088,-618.6877"/>
<polygon fill="#000000" stroke="#000000" points="1096.5722,-622.179 1106.388,-618.1917 1096.228,-615.1875 1096.5722,-622.179"/>
<text text-anchor="middle" x="966.2353" y="-631.8" font-family="Times,serif" font-size="14.00" fill="#000000">create_glworb capture4</text>
</g>
<!-- button15&#45;&gt;DEST2 -->
<g id="edge26" class="edge">
<title>button15&#45;&gt;DEST2</title>
<path fill="none" stroke="#000000" d="M517.8715,-656.9176C581.8344,-651.0138 661.5776,-643.6535 707.4041,-639.4237"/>
<polygon fill="#000000" stroke="#000000" points="707.8362,-642.8988 717.4722,-638.4945 707.1928,-635.9285 707.8362,-642.8988"/>
<text text-anchor="middle" x="571.2601" y="-656.8" font-family="Times,serif" font-size="14.00" fill="#000000">1</text>
</g>
<!-- button25&#45;&gt;DEST2 -->
<g id="edge28" class="edge">
<title>button25&#45;&gt;DEST2</title>
<path fill="none" stroke="#000000" d="M494.8553,-603.7412C561.6998,-612.3789 656.4657,-624.6245 707.8793,-631.2682"/>
<polygon fill="#000000" stroke="#000000" points="707.4987,-634.748 717.8649,-632.5585 708.3959,-627.8057 707.4987,-634.748"/>
<text text-anchor="middle" x="571.2601" y="-618.8" font-family="Times,serif" font-size="14.00" fill="#000000">1</text>
</g>
<!-- slurp_term_cli_py_gsl -->
<g id="node28" class="node">
<title>slurp_term_cli_py_gsl</title>
<ellipse fill="none" stroke="#000000" stroke-dasharray="1,5" cx="106.5905" cy="-918" rx="83.3857" ry="18"/>
<text text-anchor="middle" x="106.5905" y="-914.3" font-family="Times,serif" font-size="14.00" fill="#c0c0c0">slurp&#45;term&#45;cli.py.gsl</text>
</g>
<!-- slurp06 -->
<g id="node29" class="node">
<title>slurp06</title>
<ellipse fill="none" stroke="#000000" cx="419.4706" cy="-1026" rx="90.9839" ry="18"/>
<text text-anchor="middle" x="419.4706" y="-1022.3" font-family="Times,serif" font-size="14.00" fill="#000000">slurp&#45;term&#45;cli.py.gsl&#45;6</text>
</g>
<!-- slurp_term_cli_py_gsl&#45;&gt;slurp06 -->
<g id="edge30" class="edge">
<title>slurp_term_cli_py_gsl&#45;&gt;slurp06</title>
<path fill="none" stroke="#000000" stroke-dasharray="1,5" d="M147.3408,-933.8753C186.5406,-948.9567 247.5863,-971.9468 301.1811,-990 319.6322,-996.2152 339.8573,-1002.5453 358.2833,-1008.1286"/>
<polygon fill="#000000" stroke="#000000" points="357.4384,-1011.5294 368.0229,-1011.0617 359.4569,-1004.8267 357.4384,-1011.5294"/>
<text text-anchor="middle" x="257.1811" y="-985.8" font-family="Times,serif" font-size="14.00" fill="#c0c0c0">generates</text>
</g>
<!-- slurp07 -->
<g id="node30" class="node">
<title>slurp07</title>
<ellipse fill="none" stroke="#000000" cx="419.4706" cy="-954" rx="90.9839" ry="18"/>
<text text-anchor="middle" x="419.4706" y="-950.3" font-family="Times,serif" font-size="14.00" fill="#000000">slurp&#45;term&#45;cli.py.gsl&#45;7</text>
</g>
<!-- slurp_term_cli_py_gsl&#45;&gt;slurp07 -->
<g id="edge33" class="edge">
<title>slurp_term_cli_py_gsl&#45;&gt;slurp07</title>
<path fill="none" stroke="#000000" stroke-dasharray="1,5" d="M180.3425,-926.4859C225.3771,-931.6676 283.241,-938.3254 330.7677,-943.7938"/>
<polygon fill="#000000" stroke="#000000" points="330.4096,-947.2756 340.7442,-944.9417 331.2098,-940.3215 330.4096,-947.2756"/>
<text text-anchor="middle" x="257.1811" y="-941.8" font-family="Times,serif" font-size="14.00" fill="#c0c0c0">generates</text>
</g>
<!-- slurp08 -->
<g id="node31" class="node">
<title>slurp08</title>
<ellipse fill="none" stroke="#000000" cx="419.4706" cy="-882" rx="90.9839" ry="18"/>
<text text-anchor="middle" x="419.4706" y="-878.3" font-family="Times,serif" font-size="14.00" fill="#000000">slurp&#45;term&#45;cli.py.gsl&#45;8</text>
</g>
<!-- slurp_term_cli_py_gsl&#45;&gt;slurp08 -->
<g id="edge36" class="edge">
<title>slurp_term_cli_py_gsl&#45;&gt;slurp08</title>
<path fill="none" stroke="#000000" stroke-dasharray="1,5" d="M180.3425,-909.5141C225.3771,-904.3324 283.241,-897.6746 330.7677,-892.2062"/>
<polygon fill="#000000" stroke="#000000" points="331.2098,-895.6785 340.7442,-891.0583 330.4096,-888.7244 331.2098,-895.6785"/>
<text text-anchor="middle" x="257.1811" y="-906.8" font-family="Times,serif" font-size="14.00" fill="#c0c0c0">generates</text>
</g>
<!-- slurp09 -->
<g id="node32" class="node">
<title>slurp09</title>
<ellipse fill="none" stroke="#000000" cx="419.4706" cy="-810" rx="90.9839" ry="18"/>
<text text-anchor="middle" x="419.4706" y="-806.3" font-family="Times,serif" font-size="14.00" fill="#000000">slurp&#45;term&#45;cli.py.gsl&#45;9</text>
</g>
<!-- slurp_term_cli_py_gsl&#45;&gt;slurp09 -->
<g id="edge39" class="edge">
<title>slurp_term_cli_py_gsl&#45;&gt;slurp09</title>
<path fill="none" stroke="#000000" stroke-dasharray="1,5" d="M147.3408,-902.1247C186.5406,-887.0433 247.5863,-864.0532 301.1811,-846 319.6322,-839.7848 339.8573,-833.4547 358.2833,-827.8714"/>
<polygon fill="#000000" stroke="#000000" points="359.4569,-831.1733 368.0229,-824.9383 357.4384,-824.4706 359.4569,-831.1733"/>
<text text-anchor="middle" x="257.1811" y="-873.8" font-family="Times,serif" font-size="14.00" fill="#c0c0c0">generates</text>
</g>
<!-- DESTsetBYTEBOOOKmarkercapture1 -->
<g id="node34" class="node">
<title>DESTsetBYTEBOOOKmarkercapture1</title>
<ellipse fill="none" stroke="#000000" cx="744.4977" cy="-356" rx="139.9756" ry="18"/>
<text text-anchor="middle" x="744.4977" y="-352.3" font-family="Times,serif" font-size="14.00" fill="#000000">/set/BYTEBOOOK/marker:capture1</text>
</g>
<!-- button010&#45;&gt;DESTsetBYTEBOOOKmarkercapture1 -->
<g id="edge42" class="edge">
<title>button010&#45;&gt;DESTsetBYTEBOOOKmarkercapture1</title>
<path fill="none" stroke="#000000" d="M482.3635,-508.3444C516.8372,-498.0935 558.2316,-480.8941 586.7601,-453 600.9896,-439.087 590.4609,-425.8414 604.7601,-412 621.7725,-395.5322 644.2439,-383.7068 666.18,-375.3002"/>
<polygon fill="#000000" stroke="#000000" points="667.6559,-378.4881 675.8638,-371.7888 665.2696,-371.9073 667.6559,-378.4881"/>
<text text-anchor="middle" x="571.2601" y="-480.8" font-family="Times,serif" font-size="14.00" fill="#000000">+=2</text>
</g>
<!-- DESTsetBYTEBOOOKmarkercapture2 -->
<g id="node35" class="node">
<title>DESTsetBYTEBOOOKmarkercapture2</title>
<ellipse fill="none" stroke="#000000" cx="744.4977" cy="-448" rx="139.9756" ry="18"/>
<text text-anchor="middle" x="744.4977" y="-444.3" font-family="Times,serif" font-size="14.00" fill="#000000">/set/BYTEBOOOK/marker:capture2</text>
</g>
<!-- button010&#45;&gt;DESTsetBYTEBOOOKmarkercapture2 -->
<g id="edge43" class="edge">
<title>button010&#45;&gt;DESTsetBYTEBOOOKmarkercapture2</title>
<path fill="none" stroke="#000000" d="M464.3267,-537.924C500.5169,-547.7511 551.0966,-554.3414 586.7601,-530 604.893,-517.6237 588.3272,-498.558 604.7601,-484 614.0079,-475.8073 624.8784,-469.4351 636.4033,-464.4861"/>
<polygon fill="#000000" stroke="#000000" points="637.7354,-467.7233 645.7679,-460.8146 635.1803,-461.2063 637.7354,-467.7233"/>
<text text-anchor="middle" x="571.2601" y="-546.8" font-family="Times,serif" font-size="14.00" fill="#000000">+ = 2</text>
</g>
<!-- button110&#45;&gt;DESTsetBYTEBOOOKmarkercapture1 -->
<g id="edge45" class="edge">
<title>button110&#45;&gt;DESTsetBYTEBOOOKmarkercapture1</title>
<path fill="none" stroke="#000000" d="M495.6639,-396.1602C510.6776,-390.961 525.5449,-383.8159 537.7601,-374 550.4799,-363.7786 541.6744,-350.238 555.7601,-342 596.0259,-318.4506 649.6766,-325.3262 689.483,-336.1239"/>
<polygon fill="#000000" stroke="#000000" points="688.711,-339.5435 699.2885,-338.9375 690.6417,-332.8151 688.711,-339.5435"/>
<text text-anchor="middle" x="571.2601" y="-345.8" font-family="Times,serif" font-size="14.00" fill="#000000">+=2</text>
</g>
<!-- button110&#45;&gt;DESTsetBYTEBOOOKmarkercapture2 -->
<g id="edge46" class="edge">
<title>button110&#45;&gt;DESTsetBYTEBOOOKmarkercapture2</title>
<path fill="none" stroke="#000000" d="M513.4819,-420.9912C550.1405,-425.2771 592.4913,-430.2284 630.8404,-434.712"/>
<polygon fill="#000000" stroke="#000000" points="630.6797,-438.2169 641.0185,-435.9019 631.4926,-431.2643 630.6797,-438.2169"/>
<text text-anchor="middle" x="571.2601" y="-432.8" font-family="Times,serif" font-size="14.00" fill="#000000">+ = 2</text>
</g>
<!-- button210&#45;&gt;DESTsetBYTEBOOOKmarkercapture1 -->
<g id="edge48" class="edge">
<title>button210&#45;&gt;DESTsetBYTEBOOOKmarkercapture1</title>
<path fill="none" stroke="#000000" d="M481.7006,-324.4985C500.4123,-319.0249 520.5342,-311.6589 537.7601,-302 547.0962,-296.765 545.7552,-289.8039 555.7601,-286 568.6385,-281.1036 574.9566,-278.8933 586.7601,-286 601.4081,-294.8193 591.3372,-309.4089 604.7601,-320 615.0254,-328.0997 626.9138,-334.3931 639.3365,-339.28"/>
<polygon fill="#000000" stroke="#000000" points="638.3282,-342.6372 648.9224,-342.7496 640.7105,-336.0551 638.3282,-342.6372"/>
<text text-anchor="middle" x="571.2601" y="-289.8" font-family="Times,serif" font-size="14.00" fill="#000000">+=2</text>
</g>
<!-- button210&#45;&gt;DESTsetBYTEBOOOKmarkercapture2 -->
<g id="edge49" class="edge">
<title>button210&#45;&gt;DESTsetBYTEBOOOKmarkercapture2</title>
<path fill="none" stroke="#000000" d="M470.8789,-353.0563C491.7116,-359.3108 515.9541,-366.7838 537.7601,-374 589.3587,-391.0753 647.6059,-412.0831 689.0926,-427.3472"/>
<polygon fill="#000000" stroke="#000000" points="688.1418,-430.7269 698.7352,-430.9026 690.5635,-424.1591 688.1418,-430.7269"/>
<text text-anchor="middle" x="571.2601" y="-393.8" font-family="Times,serif" font-size="14.00" fill="#000000">+ = 2</text>
</g>
</g>
</svg>
